{"asset": {"version": "2.0", "generator": "rotato_extract.py"}, "scene": 0, "scenes": [{"nodes": [0, 1, 2, 3, 4, 5, 6, 7, 8]}], "nodes": [{"mesh": 0, "name": "Geometry_157"}, {"mesh": 1, "name": "Geometry_222"}, {"mesh": 2, "name": "Screen"}, {"mesh": 3, "name": "Geometry_330"}, {"mesh": 4, "name": "Geometry_386"}, {"mesh": 5, "name": "Geometry_404"}, {"mesh": 6, "name": "Geometry_422"}, {"mesh": 7, "name": "Geometry_440"}, {"mesh": 8, "name": "Geometry_971"}], "meshes": [{"name": "Geometry_157", "primitives": [{"attributes": {"POSITION": 0, "NORMAL": 1, "TEXCOORD_0": 2}, "indices": 3, "mode": 4}]}, {"name": "Geometry_222", "primitives": [{"attributes": {"POSITION": 4, "NORMAL": 5, "TEXCOORD_0": 6}, "indices": 7, "mode": 4}]}, {"name": "Screen", "primitives": [{"attributes": {"POSITION": 8, "NORMAL": 9, "TEXCOORD_0": 10}, "indices": 11, "mode": 4}]}, {"name": "Geometry_330", "primitives": [{"attributes": {"POSITION": 12, "NORMAL": 13, "TEXCOORD_0": 14}, "indices": 15, "mode": 4}, {"attributes": {"POSITION": 12, "NORMAL": 13, "TEXCOORD_0": 14}, "indices": 16, "mode": 4}]}, {"name": "Geometry_386", "primitives": [{"attributes": {"POSITION": 17, "NORMAL": 18, "TEXCOORD_0": 19}, "indices": 20, "mode": 4}]}, {"name": "Geometry_404", "primitives": [{"attributes": {"POSITION": 21, "NORMAL": 22, "TEXCOORD_0": 23}, "indices": 24, "mode": 4}]}, {"name": "Geometry_422", "primitives": [{"attributes": {"POSITION": 25, "NORMAL": 26, "TEXCOORD_0": 27}, "indices": 28, "mode": 4}]}, {"name": "Geometry_440", "primitives": [{"attributes": {"POSITION": 29, "NORMAL": 30, "TEXCOORD_0": 31}, "indices": 32, "mode": 4}, {"attributes": {"POSITION": 29, "NORMAL": 30, "TEXCOORD_0": 31}, "indices": 33, "mode": 4}, {"attributes": {"POSITION": 29, "NORMAL": 30, "TEXCOORD_0": 31}, "indices": 34, "mode": 4}, {"attributes": {"POSITION": 29, "NORMAL": 30, "TEXCOORD_0": 31}, "indices": 35, "mode": 4}, {"attributes": {"POSITION": 29, "NORMAL": 30, "TEXCOORD_0": 31}, "indices": 36, "mode": 4}, {"attributes": {"POSITION": 29, "NORMAL": 30, "TEXCOORD_0": 31}, "indices": 37, "mode": 4}, {"attributes": {"POSITION": 29, "NORMAL": 30, "TEXCOORD_0": 31}, "indices": 38, "mode": 4}, {"attributes": {"POSITION": 29, "NORMAL": 30, "TEXCOORD_0": 31}, "indices": 39, "mode": 4}, {"attributes": {"POSITION": 29, "NORMAL": 30, "TEXCOORD_0": 31}, "indices": 40, "mode": 4}, {"attributes": {"POSITION": 29, "NORMAL": 30, "TEXCOORD_0": 31}, "indices": 41, "mode": 4}, {"attributes": {"POSITION": 29, "NORMAL": 30, "TEXCOORD_0": 31}, "indices": 42, "mode": 4}, {"attributes": {"POSITION": 29, "NORMAL": 30, "TEXCOORD_0": 31}, "indices": 43, "mode": 4}, {"attributes": {"POSITION": 29, "NORMAL": 30, "TEXCOORD_0": 31}, "indices": 44, "mode": 4}, {"attributes": {"POSITION": 29, "NORMAL": 30, "TEXCOORD_0": 31}, "indices": 45, "mode": 4}, {"attributes": {"POSITION": 29, "NORMAL": 30, "TEXCOORD_0": 31}, "indices": 46, "mode": 4}]}, {"name": "Geometry_971", "primitives": [{"attributes": {"POSITION": 47, "NORMAL": 48, "TEXCOORD_0": 49}, "indices": 50, "mode": 4}]}], "accessors": [{"bufferView": 0, "byteOffset": 0, "componentType": 5126, "count": 870, "type": "VEC3", "min": [3.4518797724318517, 2.3192967535543403, 0.26880124007884554], "max": [3.586689735252264, 3.9718769162833496, 0.49247123254541414]}, {"bufferView": 1, "byteOffset": 0, "componentType": 5126, "count": 870, "type": "VEC3"}, {"bufferView": 2, "byteOffset": 0, "componentType": 5126, "count": 870, "type": "VEC2"}, {"bufferView": 3, "byteOffset": 0, "componentType": 5123, "count": 732, "type": "SCALAR"}, {"bufferView": 4, "byteOffset": 0, "componentType": 5126, "count": 488, "type": "VEC3", "min": [-3.1394997155964433, -6.6712896172231435, 0.7474811963553769], "max": [3.1394997155964433, 6.877699497002368, 0.7474811963553769]}, {"bufferView": 5, "byteOffset": 0, "componentType": 5126, "count": 488, "type": "VEC3"}, {"bufferView": 6, "byteOffset": 0, "componentType": 5126, "count": 488, "type": "VEC2"}, {"bufferView": 7, "byteOffset": 0, "componentType": 5123, "count": 2688, "type": "SCALAR"}, {"bufferView": 8, "byteOffset": 0, "componentType": 5126, "count": 488, "type": "VEC3", "min": [-3.1333059294085133, -6.675955919009425, 0.7460322368556619], "max": [3.145693642879735, 6.873064312564095, 0.7460322368556619]}, {"bufferView": 9, "byteOffset": 0, "componentType": 5126, "count": 488, "type": "VEC3"}, {"bufferView": 10, "byteOffset": 0, "componentType": 5126, "count": 488, "type": "VEC2"}, {"bufferView": 11, "byteOffset": 0, "componentType": 5123, "count": 1347, "type": "SCALAR"}, {"bufferView": 12, "byteOffset": 0, "componentType": 5126, "count": 1404, "type": "VEC3", "min": [-3.5847797641289247, 4.6862762114703855, 0.17489125688284624], "max": [-3.4364698269087057, 5.416476935464118, 0.6128512296244502]}, {"bufferView": 13, "byteOffset": 0, "componentType": 5126, "count": 1404, "type": "VEC3"}, {"bufferView": 14, "byteOffset": 0, "componentType": 5126, "count": 1404, "type": "VEC2"}, {"bufferView": 15, "byteOffset": 0, "componentType": 5123, "count": 1068, "type": "SCALAR"}, {"bufferView": 16, "byteOffset": 0, "componentType": 5123, "count": 258, "type": "SCALAR"}, {"bufferView": 17, "byteOffset": 0, "componentType": 5126, "count": 870, "type": "VEC3", "min": [-3.586689735252264, 1.9738768904149424, 0.26880124007884554], "max": [-3.4518797724318517, 3.0031765650868465, 0.49247123254541414]}, {"bufferView": 18, "byteOffset": 0, "componentType": 5126, "count": 870, "type": "VEC3"}, {"bufferView": 19, "byteOffset": 0, "componentType": 5126, "count": 870, "type": "VEC2"}, {"bufferView": 20, "byteOffset": 0, "componentType": 5123, "count": 732, "type": "SCALAR"}, {"bufferView": 21, "byteOffset": 0, "componentType": 5126, "count": 870, "type": "VEC3", "min": [-3.586689735252264, 3.276776173412827, 0.26880124007884554], "max": [-3.4518797724318517, 4.306176937556245, 0.49247123254541414]}, {"bufferView": 22, "byteOffset": 0, "componentType": 5126, "count": 870, "type": "VEC3"}, {"bufferView": 23, "byteOffset": 0, "componentType": 5126, "count": 870, "type": "VEC2"}, {"bufferView": 24, "byteOffset": 0, "componentType": 5123, "count": 732, "type": "SCALAR"}, {"bufferView": 25, "byteOffset": 0, "componentType": 5126, "count": 2708, "type": "VEC3", "min": [1.5300199073541165, -0.569913298386922, 0.2783412609297411], "max": [3.544199732291702, 1.0447263644367695, 0.4824612290984778]}, {"bufferView": 26, "byteOffset": 0, "componentType": 5126, "count": 2708, "type": "VEC3"}, {"bufferView": 27, "byteOffset": 0, "componentType": 5126, "count": 2708, "type": "VEC2"}, {"bufferView": 28, "byteOffset": 0, "componentType": 5123, "count": 4128, "type": "SCALAR"}, {"bufferView": 29, "byteOffset": 0, "componentType": 5126, "count": 51586, "type": "VEC3", "min": [-3.547279861731525, -7.078292751615129, -0.10216872621532458], "max": [3.547279861731525, 7.28427658304571, 0.7694812098259121]}, {"bufferView": 30, "byteOffset": 0, "componentType": 5126, "count": 51586, "type": "VEC3"}, {"bufferView": 31, "byteOffset": 0, "componentType": 5126, "count": 51586, "type": "VEC2"}, {"bufferView": 32, "byteOffset": 0, "componentType": 5123, "count": 4704, "type": "SCALAR"}, {"bufferView": 33, "byteOffset": 0, "componentType": 5123, "count": 1968, "type": "SCALAR"}, {"bufferView": 34, "byteOffset": 0, "componentType": 5123, "count": 2052, "type": "SCALAR"}, {"bufferView": 35, "byteOffset": 0, "componentType": 5123, "count": 1044, "type": "SCALAR"}, {"bufferView": 36, "byteOffset": 0, "componentType": 5123, "count": 66, "type": "SCALAR"}, {"bufferView": 37, "byteOffset": 0, "componentType": 5123, "count": 66, "type": "SCALAR"}, {"bufferView": 38, "byteOffset": 0, "componentType": 5123, "count": 528, "type": "SCALAR"}, {"bufferView": 39, "byteOffset": 0, "componentType": 5123, "count": 26682, "type": "SCALAR"}, {"bufferView": 40, "byteOffset": 0, "componentType": 5123, "count": 1104, "type": "SCALAR"}, {"bufferView": 41, "byteOffset": 0, "componentType": 5123, "count": 10272, "type": "SCALAR"}, {"bufferView": 42, "byteOffset": 0, "componentType": 5123, "count": 3000, "type": "SCALAR"}, {"bufferView": 43, "byteOffset": 0, "componentType": 5123, "count": 2136, "type": "SCALAR"}, {"bufferView": 44, "byteOffset": 0, "componentType": 5123, "count": 13380, "type": "SCALAR"}, {"bufferView": 45, "byteOffset": 0, "componentType": 5123, "count": 300, "type": "SCALAR"}, {"bufferView": 46, "byteOffset": 0, "componentType": 5123, "count": 2016, "type": "SCALAR"}, {"bufferView": 47, "byteOffset": 0, "componentType": 5126, "count": 488, "type": "VEC3", "min": [-3.1394997155964433, -6.67151101511538, 0.05817769572974285], "max": [3.1394997155964433, 6.8774732536137435, 0.05817769572974285]}, {"bufferView": 48, "byteOffset": 0, "componentType": 5126, "count": 488, "type": "VEC3"}, {"bufferView": 49, "byteOffset": 0, "componentType": 5126, "count": 488, "type": "VEC2"}, {"bufferView": 50, "byteOffset": 0, "componentType": 5123, "count": 1347, "type": "SCALAR"}], "bufferViews": [{"buffer": 0, "byteOffset": 0, "byteLength": 10440, "target": 34962}, {"buffer": 0, "byteOffset": 10440, "byteLength": 10440, "target": 34962}, {"buffer": 0, "byteOffset": 20880, "byteLength": 6960, "target": 34962}, {"buffer": 0, "byteOffset": 27840, "byteLength": 1464, "target": 34963}, {"buffer": 0, "byteOffset": 29304, "byteLength": 5856, "target": 34962}, {"buffer": 0, "byteOffset": 35160, "byteLength": 5856, "target": 34962}, {"buffer": 0, "byteOffset": 41016, "byteLength": 3904, "target": 34962}, {"buffer": 0, "byteOffset": 44920, "byteLength": 5376, "target": 34963}, {"buffer": 0, "byteOffset": 50296, "byteLength": 5856, "target": 34962}, {"buffer": 0, "byteOffset": 56152, "byteLength": 5856, "target": 34962}, {"buffer": 0, "byteOffset": 62008, "byteLength": 3904, "target": 34962}, {"buffer": 0, "byteOffset": 65912, "byteLength": 2694, "target": 34963}, {"buffer": 0, "byteOffset": 68608, "byteLength": 16848, "target": 34962}, {"buffer": 0, "byteOffset": 85456, "byteLength": 16848, "target": 34962}, {"buffer": 0, "byteOffset": 102304, "byteLength": 11232, "target": 34962}, {"buffer": 0, "byteOffset": 113536, "byteLength": 2136, "target": 34963}, {"buffer": 0, "byteOffset": 115672, "byteLength": 516, "target": 34963}, {"buffer": 0, "byteOffset": 116188, "byteLength": 10440, "target": 34962}, {"buffer": 0, "byteOffset": 126628, "byteLength": 10440, "target": 34962}, {"buffer": 0, "byteOffset": 137068, "byteLength": 6960, "target": 34962}, {"buffer": 0, "byteOffset": 144028, "byteLength": 1464, "target": 34963}, {"buffer": 0, "byteOffset": 145492, "byteLength": 10440, "target": 34962}, {"buffer": 0, "byteOffset": 155932, "byteLength": 10440, "target": 34962}, {"buffer": 0, "byteOffset": 166372, "byteLength": 6960, "target": 34962}, {"buffer": 0, "byteOffset": 173332, "byteLength": 1464, "target": 34963}, {"buffer": 0, "byteOffset": 174796, "byteLength": 32496, "target": 34962}, {"buffer": 0, "byteOffset": 207292, "byteLength": 32496, "target": 34962}, {"buffer": 0, "byteOffset": 239788, "byteLength": 21664, "target": 34962}, {"buffer": 0, "byteOffset": 261452, "byteLength": 8256, "target": 34963}, {"buffer": 0, "byteOffset": 269708, "byteLength": 619032, "target": 34962}, {"buffer": 0, "byteOffset": 888740, "byteLength": 619032, "target": 34962}, {"buffer": 0, "byteOffset": 1507772, "byteLength": 412688, "target": 34962}, {"buffer": 0, "byteOffset": 1920460, "byteLength": 9408, "target": 34963}, {"buffer": 0, "byteOffset": 1929868, "byteLength": 3936, "target": 34963}, {"buffer": 0, "byteOffset": 1933804, "byteLength": 4104, "target": 34963}, {"buffer": 0, "byteOffset": 1937908, "byteLength": 2088, "target": 34963}, {"buffer": 0, "byteOffset": 1939996, "byteLength": 132, "target": 34963}, {"buffer": 0, "byteOffset": 1940128, "byteLength": 132, "target": 34963}, {"buffer": 0, "byteOffset": 1940260, "byteLength": 1056, "target": 34963}, {"buffer": 0, "byteOffset": 1941316, "byteLength": 53364, "target": 34963}, {"buffer": 0, "byteOffset": 1994680, "byteLength": 2208, "target": 34963}, {"buffer": 0, "byteOffset": 1996888, "byteLength": 20544, "target": 34963}, {"buffer": 0, "byteOffset": 2017432, "byteLength": 6000, "target": 34963}, {"buffer": 0, "byteOffset": 2023432, "byteLength": 4272, "target": 34963}, {"buffer": 0, "byteOffset": 2027704, "byteLength": 26760, "target": 34963}, {"buffer": 0, "byteOffset": 2054464, "byteLength": 600, "target": 34963}, {"buffer": 0, "byteOffset": 2055064, "byteLength": 4032, "target": 34963}, {"buffer": 0, "byteOffset": 2059096, "byteLength": 5856, "target": 34962}, {"buffer": 0, "byteOffset": 2064952, "byteLength": 5856, "target": 34962}, {"buffer": 0, "byteOffset": 2070808, "byteLength": 3904, "target": 34962}, {"buffer": 0, "byteOffset": 2074712, "byteLength": 2694, "target": 34963}], "buffers": [{"byteLength": 2077408, "uri": "data:application/octet-stream;base64,"}]}