{"asset":{"version":"2.0","generator":"rotato_extract.py"},"scene":0,"scenes":[{"nodes":[0,1,2,3,4,5,6,7,8,9,10,11,12,13,14,15,16,17,18,19,20,21,22,23]}],"nodes":[{"mesh":0,"name":"Back"},{"mesh":1,"name":"Black"},{"mesh":2,"name":"Camera_Edge"},{"mesh":3,"name":"Camera_Module"},{"mesh":4,"name":"Edge"},{"mesh":5,"name":"Edge_Antenna"},{"mesh":6,"name":"Flash"},{"mesh":7,"name":"Glass"},{"mesh":8,"name":"Glass_Back"},{"mesh":9,"name":"Glass_Camera"},{"mesh":10,"name":"Glass_Screen"},{"mesh":11,"name":"Gray"},{"mesh":12,"name":"Lens"},{"mesh":13,"name":"Matte"},{"mesh":14,"name":"Mic"},{"mesh":15,"name":"Plastic"},{"mesh":16,"name":"Screen"},{"mesh":17,"name":"Screen_Edge"},{"mesh":18,"name":"Sensor"},{"mesh":19,"name":"Flat_shadow"},{"mesh":20,"name":"Long_and_smooth_shadow"},{"mesh":21,"name":"Long_shadow"},{"mesh":22,"name":"Standing_shadow"},{"mesh":23,"name":"rotatoTag"}],"meshes":[{"name":"Back","primitives":[{"attributes":{"POSITION":0,"NORMAL":1,"TEXCOORD_0":2},"indices":3,"mode":4}]},{"name":"Black","primitives":[{"attributes":{"POSITION":4,"NORMAL":5,"TEXCOORD_0":6},"indices":7,"mode":4}]},{"name":"Camera_Edge","primitives":[{"attributes":{"POSITION":8,"NORMAL":9,"TEXCOORD_0":10},"indices":11,"mode":4}]},{"name":"Camera_Module","primitives":[{"attributes":{"POSITION":12,"NORMAL":13,"TEXCOORD_0":14},"indices":15,"mode":4}]},{"name":"Edge","primitives":[{"attributes":{"POSITION":16,"NORMAL":17,"TEXCOORD_0":18},"indices":19,"mode":4}]},{"name":"Edge_Antenna","primitives":[{"attributes":{"POSITION":20,"NORMAL":21,"TEXCOORD_0":22},"indices":23,"mode":4}]},{"name":"Flash","primitives":[{"attributes":{"POSITION":24,"NORMAL":25,"TEXCOORD_0":26},"indices":27,"mode":4}]},{"name":"Glass","primitives":[{"attributes":{"POSITION":28,"NORMAL":29,"TEXCOORD_0":30},"indices":31,"mode":4}]},{"name":"Glass_Back","primitives":[{"attributes":{"POSITION":32,"NORMAL":33,"TEXCOORD_0":34},"indices":35,"mode":4}]},{"name":"Glass_Camera","primitives":[{"attributes":{"POSITION":36,"NORMAL":37,"TEXCOORD_0":38},"indices":39,"mode":4}]},{"name":"Glass_Screen","primitives":[{"attributes":{"POSITION":40,"NORMAL":41,"TEXCOORD_0":42},"indices":43,"mode":4}]},{"name":"Gray","primitives":[{"attributes":{"POSITION":44,"NORMAL":45,"TEXCOORD_0":46},"indices":47,"mode":4}]},{"name":"Lens","primitives":[{"attributes":{"POSITION":48,"NORMAL":49,"TEXCOORD_0":50},"indices":51,"mode":4}]},{"name":"Matte","primitives":[{"attributes":{"POSITION":52,"NORMAL":53,"TEXCOORD_0":54},"indices":55,"mode":4}]},{"name":"Mic","primitives":[{"attributes":{"POSITION":56,"NORMAL":57,"TEXCOORD_0":58},"indices":59,"mode":4}]},{"name":"Plastic","primitives":[{"attributes":{"POSITION":60,"NORMAL":61,"TEXCOORD_0":62},"indices":63,"mode":4}]},{"name":"Screen","primitives":[{"attributes":{"POSITION":64,"NORMAL":65,"TEXCOORD_0":66},"indices":67,"mode":4}]},{"name":"Screen_Edge","primitives":[{"attributes":{"POSITION":68,"NORMAL":69,"TEXCOORD_0":70},"indices":71,"mode":4}]},{"name":"Sensor","primitives":[{"attributes":{"POSITION":72,"NORMAL":73,"TEXCOORD_0":74},"indices":75,"mode":4}]},{"name":"Flat_shadow","primitives":[{"attributes":{"POSITION":76,"NORMAL":77,"TEXCOORD_0":78},"indices":79,"mode":4}]},{"name":"Long_and_smooth_shadow","primitives":[{"attributes":{"POSITION":80,"NORMAL":81,"TEXCOORD_0":82},"indices":83,"mode":4}]},{"name":"Long_shadow","primitives":[{"attributes":{"POSITION":84,"NORMAL":85,"TEXCOORD_0":86},"indices":87,"mode":4}]},{"name":"Standing_shadow","primitives":[{"attributes":{"POSITION":88,"NORMAL":89,"TEXCOORD_0":90},"indices":91,"mode":4}]},{"name":"rotatoTag","primitives":[{"attributes":{"POSITION":92,"NORMAL":93,"TEXCOORD_0":94},"indices":95,"mode":4}]}],"accessors":[{"bufferView":0,"byteOffset":0,"componentType":5126,"count":1180,"type":"VEC3","min":[-3.686824068427086,-8.129415661096573,-0.3006055485457182],"max":[3.686824068427086,8.129415661096573,-0.02308146795257926]},{"bufferView":1,"byteOffset":0,"componentType":5126,"count":1180,"type":"VEC3"},{"bufferView":2,"byteOffset":0,"componentType":5126,"count":1180,"type":"VEC2"},{"bufferView":3,"byteOffset":0,"componentType":5123,"count":6480,"type":"SCALAR"},{"bufferView":4,"byteOffset":0,"componentType":5126,"count":576,"type":"VEC3","min":[-2.9707957059144974,3.297686204314232,-0.477184122428298],"max":[2.580581232905388,7.717517763376236,0.31907877419143915]},{"bufferView":5,"byteOffset":0,"componentType":5126,"count":576,"type":"VEC3"},{"bufferView":6,"byteOffset":0,"componentType":5126,"count":576,"type":"VEC2"},{"bufferView":7,"byteOffset":0,"componentType":5123,"count":1728,"type":"SCALAR"},{"bufferView":8,"byteOffset":0,"componentType":5126,"count":3072,"type":"VEC3","min":[1.4087261632084846,4.421554133296013,-0.5146830342710018],"max":[2.6536568999290466,7.384030520915985,-0.2850139979273081]},{"bufferView":9,"byteOffset":0,"componentType":5126,"count":3072,"type":"VEC3"},{"bufferView":10,"byteOffset":0,"componentType":5126,"count":3072,"type":"VEC2"},{"bufferView":11,"byteOffset":0,"componentType":5123,"count":16128,"type":"SCALAR"},{"bufferView":12,"byteOffset":0,"componentType":5126,"count":1287,"type":"VEC3","min":[0.4687261302024126,3.0708029866218567,-0.4112372640520334],"max":[2.9618753120303154,7.606995850801468,-0.3944223280996084]},{"bufferView":13,"byteOffset":0,"componentType":5126,"count":1287,"type":"VEC3"},{"bufferView":14,"byteOffset":0,"componentType":5126,"count":1287,"type":"VEC2"},{"bufferView":15,"byteOffset":0,"componentType":5123,"count":5817,"type":"SCALAR"},{"bufferView":16,"byteOffset":0,"componentType":5126,"count":20824,"type":"VEC3","min":[-3.763223811984062,-8.254075050354004,-0.3944223280996084],"max":[3.769032657146454,8.254065364599228,0.29268874786794186]},{"bufferView":17,"byteOffset":0,"componentType":5126,"count":20824,"type":"VEC3"},{"bufferView":18,"byteOffset":0,"componentType":5126,"count":20824,"type":"VEC2"},{"bufferView":19,"byteOffset":0,"componentType":5123,"count":107763,"type":"SCALAR"},{"bufferView":20,"byteOffset":0,"componentType":5126,"count":1470,"type":"VEC3","min":[-3.7162207067012787,-8.254072815179825,-0.45057632960379124],"max":[3.7162739783525467,8.254065364599228,0.29268874786794186]},{"bufferView":21,"byteOffset":0,"componentType":5126,"count":1470,"type":"VEC3"},{"bufferView":22,"byteOffset":0,"componentType":5126,"count":1470,"type":"VEC2"},{"bufferView":23,"byteOffset":0,"componentType":5123,"count":6864,"type":"SCALAR"},{"bufferView":24,"byteOffset":0,"componentType":5126,"count":64,"type":"VEC3","min":[0.7248713634908199,5.648079514503479,-0.3944223280996084],"max":[1.222783699631691,6.145991384983063,-0.3944223280996084]},{"bufferView":25,"byteOffset":0,"componentType":5126,"count":64,"type":"VEC3"},{"bufferView":26,"byteOffset":0,"componentType":5126,"count":64,"type":"VEC2"},{"bufferView":27,"byteOffset":0,"componentType":5123,"count":186,"type":"SCALAR"},{"bufferView":28,"byteOffset":0,"componentType":5126,"count":160,"type":"VEC3","min":[-2.951676584780216,4.494629800319672,-0.4953053779900074],"max":[2.580581232905388,7.69839882850647,0.3211901756003499]},{"bufferView":29,"byteOffset":0,"componentType":5126,"count":160,"type":"VEC3"},{"bufferView":30,"byteOffset":0,"componentType":5126,"count":160,"type":"VEC2"},{"bufferView":31,"byteOffset":0,"componentType":5123,"count":462,"type":"SCALAR"},{"bufferView":32,"byteOffset":0,"componentType":5126,"count":2018,"type":"VEC3","min":[-3.686824068427086,-8.129415661096573,-0.3180861473083496],"max":[3.686824068427086,8.129415661096573,-0.04054562887176871]},{"bufferView":33,"byteOffset":0,"componentType":5126,"count":2018,"type":"VEC3"},{"bufferView":34,"byteOffset":0,"componentType":5126,"count":2018,"type":"VEC2"},{"bufferView":35,"byteOffset":0,"componentType":5123,"count":10911,"type":"SCALAR"},{"bufferView":36,"byteOffset":0,"componentType":5126,"count":1096,"type":"VEC3","min":[0.5121377762407064,3.114214539527893,-0.45062187127768993],"max":[2.918463759124279,7.5635842978954315,-0.4112372640520334]},{"bufferView":37,"byteOffset":0,"componentType":5126,"count":1096,"type":"VEC3"},{"bufferView":38,"byteOffset":0,"componentType":5126,"count":1096,"type":"VEC2"},{"bufferView":39,"byteOffset":0,"componentType":5123,"count":5424,"type":"SCALAR"},{"bufferView":40,"byteOffset":0,"componentType":5126,"count":463,"type":"VEC3","min":[-3.555610030889511,-7.897958159446716,0.2579039894044399],"max":[3.555610030889511,7.957421988248825,0.3216418670490384]},{"bufferView":41,"byteOffset":0,"componentType":5126,"count":463,"type":"VEC3"},{"bufferView":42,"byteOffset":0,"componentType":5126,"count":463,"type":"VEC2"},{"bufferView":43,"byteOffset":0,"componentType":5123,"count":2424,"type":"SCALAR"},{"bufferView":44,"byteOffset":0,"componentType":5126,"count":576,"type":"VEC3","min":[-2.911161072552204,3.3453144133090973,-0.4666400607675314],"max":[2.489057555794716,7.657883316278458,0.31717850361019373]},{"bufferView":45,"byteOffset":0,"componentType":5126,"count":576,"type":"VEC3"},{"bufferView":46,"byteOffset":0,"componentType":5126,"count":576,"type":"VEC2"},{"bufferView":47,"byteOffset":0,"componentType":5123,"count":1728,"type":"SCALAR"},{"bufferView":48,"byteOffset":0,"componentType":5126,"count":2795,"type":"VEC3","min":[-2.8541499748826027,3.4194398671388626,-0.4358193837106228],"max":[2.2775357589125633,7.60088711977005,0.2989183412864804]},{"bufferView":49,"byteOffset":0,"componentType":5126,"count":2795,"type":"VEC3"},{"bufferView":50,"byteOffset":0,"componentType":5126,"count":2795,"type":"VEC2"},{"bufferView":51,"byteOffset":0,"componentType":5123,"count":14400,"type":"SCALAR"},{"bufferView":52,"byteOffset":0,"componentType":5126,"count":8460,"type":"VEC3","min":[-3.6180000752210617,-8.207132667303085,-0.14756269520148635],"max":[3.6294467747211456,4.6950772404670715,0.18408972537145019]},{"bufferView":53,"byteOffset":0,"componentType":5126,"count":8460,"type":"VEC3"},{"bufferView":54,"byteOffset":0,"componentType":5126,"count":8460,"type":"VEC2"},{"bufferView":55,"byteOffset":0,"componentType":5123,"count":12690,"type":"SCALAR"},{"bufferView":56,"byteOffset":0,"componentType":5126,"count":64,"type":"VEC3","min":[0.88075315579772,4.9509454518556595,-0.4112372640520334],"max":[1.0669025592505932,5.137094855308533,-0.4112372640520334]},{"bufferView":57,"byteOffset":0,"componentType":5126,"count":64,"type":"VEC3"},{"bufferView":58,"byteOffset":0,"componentType":5126,"count":64,"type":"VEC2"},{"bufferView":59,"byteOffset":0,"componentType":5123,"count":186,"type":"SCALAR"},{"bufferView":60,"byteOffset":0,"componentType":5126,"count":1548,"type":"VEC3","min":[1.3968255370855331,4.409653693437576,-0.4106601234525442],"max":[2.665557339787483,7.3959313333034515,-0.222372030839324]},{"bufferView":61,"byteOffset":0,"componentType":5126,"count":1548,"type":"VEC3"},{"bufferView":62,"byteOffset":0,"componentType":5126,"count":1548,"type":"VEC2"},{"bufferView":63,"byteOffset":0,"componentType":5123,"count":8514,"type":"SCALAR"},{"bufferView":64,"byteOffset":0,"componentType":5126,"count":463,"type":"VEC3","min":[-3.555610030889511,-7.897958159446716,0.25410568341612816],"max":[3.555610030889511,7.957421988248825,0.31784356106072664]},{"bufferView":65,"byteOffset":0,"componentType":5126,"count":463,"type":"VEC3"},{"bufferView":66,"byteOffset":0,"componentType":5126,"count":463,"type":"VEC2"},{"bufferView":67,"byteOffset":0,"componentType":5123,"count":2424,"type":"SCALAR"},{"bufferView":68,"byteOffset":0,"componentType":5126,"count":662,"type":"VEC3","min":[-3.6765683442354202,-8.134090155363083,0.11211276287212968],"max":[3.6765683442354202,8.134090155363083,0.3216418670490384]},{"bufferView":69,"byteOffset":0,"componentType":5126,"count":662,"type":"VEC3"},{"bufferView":70,"byteOffset":0,"componentType":5126,"count":662,"type":"VEC2"},{"bufferView":71,"byteOffset":0,"componentType":5123,"count":3384,"type":"SCALAR"},{"bufferView":72,"byteOffset":0,"componentType":5126,"count":66,"type":"VEC3","min":[0.8755285292863846,6.569086015224457,-0.3944223280996084],"max":[1.0721263475716114,6.9663360714912415,-0.3944223280996084]},{"bufferView":73,"byteOffset":0,"componentType":5126,"count":66,"type":"VEC3"},{"bufferView":74,"byteOffset":0,"componentType":5126,"count":66,"type":"VEC2"},{"bufferView":75,"byteOffset":0,"componentType":5123,"count":192,"type":"SCALAR"},{"bufferView":76,"byteOffset":0,"componentType":5126,"count":4,"type":"VEC3","min":[-16.6908860206604,-16.688827011013327,-0.7024545122037973],"max":[16.6908860206604,16.688827011013327,-0.1781296085466299]},{"bufferView":77,"byteOffset":0,"componentType":5126,"count":4,"type":"VEC3"},{"bufferView":78,"byteOffset":0,"componentType":5126,"count":4,"type":"VEC2"},{"bufferView":79,"byteOffset":0,"componentType":5123,"count":6,"type":"SCALAR"},{"bufferView":80,"byteOffset":0,"componentType":5126,"count":4,"type":"VEC3","min":[-16.6908860206604,-16.69088502580605,-0.3177309254021164],"max":[16.6908860206604,16.69088502580605,-0.31772946623854675]},{"bufferView":81,"byteOffset":0,"componentType":5126,"count":4,"type":"VEC3"},{"bufferView":82,"byteOffset":0,"componentType":5126,"count":4,"type":"VEC2"},{"bufferView":83,"byteOffset":0,"componentType":5123,"count":6,"type":"SCALAR"},{"bufferView":84,"byteOffset":0,"componentType":5126,"count":4,"type":"VEC3","min":[-16.6908860206604,-16.69088502580605,-0.3177309254021164],"max":[16.6908860206604,16.69088502580605,-0.31772946623854675]},{"bufferView":85,"byteOffset":0,"componentType":5126,"count":4,"type":"VEC3"},{"bufferView":86,"byteOffset":0,"componentType":5126,"count":4,"type":"VEC2"},{"bufferView":87,"byteOffset":0,"componentType":5123,"count":6,"type":"SCALAR"},{"bufferView":88,"byteOffset":0,"componentType":5126,"count":4,"type":"VEC3","min":[-16.6908860206604,-8.255983144044876,-16.6908860206604],"max":[16.6908860206604,-8.255983144044876,16.6908860206604]},{"bufferView":89,"byteOffset":0,"componentType":5126,"count":4,"type":"VEC3"},{"bufferView":90,"byteOffset":0,"componentType":5126,"count":4,"type":"VEC2"},{"bufferView":91,"byteOffset":0,"componentType":5123,"count":6,"type":"SCALAR"},{"bufferView":92,"byteOffset":0,"componentType":5126,"count":32,"type":"VEC3","min":[2.6497241258624626,-2.01900848746277,0.05062629369536703],"max":[4.649722933768885,1.9809881746766678,0.05062644469102556]},{"bufferView":93,"byteOffset":0,"componentType":5126,"count":32,"type":"VEC3"},{"bufferView":94,"byteOffset":0,"componentType":5126,"count":32,"type":"VEC2"},{"bufferView":95,"byteOffset":0,"componentType":5123,"count":90,"type":"SCALAR"}],"bufferViews":[{"buffer":0,"byteOffset":0,"byteLength":14160,"target":34962},{"buffer":0,"byteOffset":14160,"byteLength":14160,"target":34962},{"buffer":0,"byteOffset":28320,"byteLength":9440,"target":34962},{"buffer":0,"byteOffset":37760,"byteLength":12960,"target":34963},{"buffer":0,"byteOffset":50720,"byteLength":6912,"target":34962},{"buffer":0,"byteOffset":57632,"byteLength":6912,"target":34962},{"buffer":0,"byteOffset":64544,"byteLength":4608,"target":34962},{"buffer":0,"byteOffset":69152,"byteLength":3456,"target":34963},{"buffer":0,"byteOffset":72608,"byteLength":36864,"target":34962},{"buffer":0,"byteOffset":109472,"byteLength":36864,"target":34962},{"buffer":0,"byteOffset":146336,"byteLength":24576,"target":34962},{"buffer":0,"byteOffset":170912,"byteLength":32256,"target":34963},{"buffer":0,"byteOffset":203168,"byteLength":15444,"target":34962},{"buffer":0,"byteOffset":218612,"byteLength":15444,"target":34962},{"buffer":0,"byteOffset":234056,"byteLength":10296,"target":34962},{"buffer":0,"byteOffset":244352,"byteLength":11634,"target":34963},{"buffer":0,"byteOffset":255988,"byteLength":249888,"target":34962},{"buffer":0,"byteOffset":505876,"byteLength":249888,"target":34962},{"buffer":0,"byteOffset":755764,"byteLength":166592,"target":34962},{"buffer":0,"byteOffset":922356,"byteLength":215526,"target":34963},{"buffer":0,"byteOffset":1137884,"byteLength":17640,"target":34962},{"buffer":0,"byteOffset":1155524,"byteLength":17640,"target":34962},{"buffer":0,"byteOffset":1173164,"byteLength":11760,"target":34962},{"buffer":0,"byteOffset":1184924,"byteLength":13728,"target":34963},{"buffer":0,"byteOffset":1198652,"byteLength":768,"target":34962},{"buffer":0,"byteOffset":1199420,"byteLength":768,"target":34962},{"buffer":0,"byteOffset":1200188,"byteLength":512,"target":34962},{"buffer":0,"byteOffset":1200700,"byteLength":372,"target":34963},{"buffer":0,"byteOffset":1201072,"byteLength":1920,"target":34962},{"buffer":0,"byteOffset":1202992,"byteLength":1920,"target":34962},{"buffer":0,"byteOffset":1204912,"byteLength":1280,"target":34962},{"buffer":0,"byteOffset":1206192,"byteLength":924,"target":34963},{"buffer":0,"byteOffset":1207116,"byteLength":24216,"target":34962},{"buffer":0,"byteOffset":1231332,"byteLength":24216,"target":34962},{"buffer":0,"byteOffset":1255548,"byteLength":16144,"target":34962},{"buffer":0,"byteOffset":1271692,"byteLength":21822,"target":34963},{"buffer":0,"byteOffset":1293516,"byteLength":13152,"target":34962},{"buffer":0,"byteOffset":1306668,"byteLength":13152,"target":34962},{"buffer":0,"byteOffset":1319820,"byteLength":8768,"target":34962},{"buffer":0,"byteOffset":1328588,"byteLength":10848,"target":34963},{"buffer":0,"byteOffset":1339436,"byteLength":5556,"target":34962},{"buffer":0,"byteOffset":1344992,"byteLength":5556,"target":34962},{"buffer":0,"byteOffset":1350548,"byteLength":3704,"target":34962},{"buffer":0,"byteOffset":1354252,"byteLength":4848,"target":34963},{"buffer":0,"byteOffset":1359100,"byteLength":6912,"target":34962},{"buffer":0,"byteOffset":1366012,"byteLength":6912,"target":34962},{"buffer":0,"byteOffset":1372924,"byteLength":4608,"target":34962},{"buffer":0,"byteOffset":1377532,"byteLength":3456,"target":34963},{"buffer":0,"byteOffset":1380988,"byteLength":33540,"target":34962},{"buffer":0,"byteOffset":1414528,"byteLength":33540,"target":34962},{"buffer":0,"byteOffset":1448068,"byteLength":22360,"target":34962},{"buffer":0,"byteOffset":1470428,"byteLength":28800,"target":34963},{"buffer":0,"byteOffset":1499228,"byteLength":101520,"target":34962},{"buffer":0,"byteOffset":1600748,"byteLength":101520,"target":34962},{"buffer":0,"byteOffset":1702268,"byteLength":67680,"target":34962},{"buffer":0,"byteOffset":1769948,"byteLength":25380,"target":34963},{"buffer":0,"byteOffset":1795328,"byteLength":768,"target":34962},{"buffer":0,"byteOffset":1796096,"byteLength":768,"target":34962},{"buffer":0,"byteOffset":1796864,"byteLength":512,"target":34962},{"buffer":0,"byteOffset":1797376,"byteLength":372,"target":34963},{"buffer":0,"byteOffset":1797748,"byteLength":18576,"target":34962},{"buffer":0,"byteOffset":1816324,"byteLength":18576,"target":34962},{"buffer":0,"byteOffset":1834900,"byteLength":12384,"target":34962},{"buffer":0,"byteOffset":1847284,"byteLength":17028,"target":34963},{"buffer":0,"byteOffset":1864312,"byteLength":5556,"target":34962},{"buffer":0,"byteOffset":1869868,"byteLength":5556,"target":34962},{"buffer":0,"byteOffset":1875424,"byteLength":3704,"target":34962},{"buffer":0,"byteOffset":1879128,"byteLength":4848,"target":34963},{"buffer":0,"byteOffset":1883976,"byteLength":7944,"target":34962},{"buffer":0,"byteOffset":1891920,"byteLength":7944,"target":34962},{"buffer":0,"byteOffset":1899864,"byteLength":5296,"target":34962},{"buffer":0,"byteOffset":1905160,"byteLength":6768,"target":34963},{"buffer":0,"byteOffset":1911928,"byteLength":792,"target":34962},{"buffer":0,"byteOffset":1912720,"byteLength":792,"target":34962},{"buffer":0,"byteOffset":1913512,"byteLength":528,"target":34962},{"buffer":0,"byteOffset":1914040,"byteLength":384,"target":34963},{"buffer":0,"byteOffset":1914424,"byteLength":48,"target":34962},{"buffer":0,"byteOffset":1914472,"byteLength":48,"target":34962},{"buffer":0,"byteOffset":1914520,"byteLength":32,"target":34962},{"buffer":0,"byteOffset":1914552,"byteLength":12,"target":34963},{"buffer":0,"byteOffset":1914564,"byteLength":48,"target":34962},{"buffer":0,"byteOffset":1914612,"byteLength":48,"target":34962},{"buffer":0,"byteOffset":1914660,"byteLength":32,"target":34962},{"buffer":0,"byteOffset":1914692,"byteLength":12,"target":34963},{"buffer":0,"byteOffset":1914704,"byteLength":48,"target":34962},{"buffer":0,"byteOffset":1914752,"byteLength":48,"target":34962},{"buffer":0,"byteOffset":1914800,"byteLength":32,"target":34962},{"buffer":0,"byteOffset":1914832,"byteLength":12,"target":34963},{"buffer":0,"byteOffset":1914844,"byteLength":48,"target":34962},{"buffer":0,"byteOffset":1914892,"byteLength":48,"target":34962},{"buffer":0,"byteOffset":1914940,"byteLength":32,"target":34962},{"buffer":0,"byteOffset":1914972,"byteLength":12,"target":34963},{"buffer":0,"byteOffset":1914984,"byteLength":384,"target":34962},{"buffer":0,"byteOffset":1915368,"byteLength":384,"target":34962},{"buffer":0,"byteOffset":1915752,"byteLength":256,"target":34962},{"buffer":0,"byteOffset":1916008,"byteLength":180,"target":34963}],"buffers":[{"byteLength":1916188,"uri":"data:application/octet-stream;base64,"}]}