{"asset": {"version": "2.0", "generator": "rotato_extract.py"}, "scene": 0, "scenes": [{"nodes": [0, 1]}], "nodes": [{"mesh": 0, "name": "Geometry_171"}, {"mesh": 1, "name": "Screen"}], "meshes": [{"name": "Geometry_171", "primitives": [{"attributes": {"POSITION": 0, "NORMAL": 1, "TEXCOORD_0": 2}, "indices": 3, "mode": 4}, {"attributes": {"POSITION": 0, "NORMAL": 1, "TEXCOORD_0": 2}, "indices": 4, "mode": 4}, {"attributes": {"POSITION": 0, "NORMAL": 1, "TEXCOORD_0": 2}, "indices": 5, "mode": 4}, {"attributes": {"POSITION": 0, "NORMAL": 1, "TEXCOORD_0": 2}, "indices": 6, "mode": 4}, {"attributes": {"POSITION": 0, "NORMAL": 1, "TEXCOORD_0": 2}, "indices": 7, "mode": 4}, {"attributes": {"POSITION": 0, "NORMAL": 1, "TEXCOORD_0": 2}, "indices": 8, "mode": 4}, {"attributes": {"POSITION": 0, "NORMAL": 1, "TEXCOORD_0": 2}, "indices": 9, "mode": 4}, {"attributes": {"POSITION": 0, "NORMAL": 1, "TEXCOORD_0": 2}, "indices": 10, "mode": 4}, {"attributes": {"POSITION": 0, "NORMAL": 1, "TEXCOORD_0": 2}, "indices": 11, "mode": 4}, {"attributes": {"POSITION": 0, "NORMAL": 1, "TEXCOORD_0": 2}, "indices": 12, "mode": 4}]}, {"name": "Screen", "primitives": [{"attributes": {"POSITION": 13, "NORMAL": 14, "TEXCOORD_0": 15}, "indices": 16, "mode": 4}]}], "accessors": [{"bufferView": 0, "byteOffset": 0, "componentType": 5126, "count": 70962, "type": "VEC3", "min": [-6.054854230003959, -12.132887213481824, -22.631898059618383], "max": [6.550067068628329, 12.291223580691213, 0.12201479112925462]}, {"bufferView": 1, "byteOffset": 0, "componentType": 5126, "count": 70962, "type": "VEC3"}, {"bufferView": 2, "byteOffset": 0, "componentType": 5126, "count": 70962, "type": "VEC2"}, {"bufferView": 3, "byteOffset": 0, "componentType": 5123, "count": 18576, "type": "SCALAR"}, {"bufferView": 4, "byteOffset": 0, "componentType": 5123, "count": 47868, "type": "SCALAR"}, {"bufferView": 5, "byteOffset": 0, "componentType": 5123, "count": 12672, "type": "SCALAR"}, {"bufferView": 6, "byteOffset": 0, "componentType": 5125, "count": 12912, "type": "SCALAR"}, {"bufferView": 7, "byteOffset": 0, "componentType": 5123, "count": 16272, "type": "SCALAR"}, {"bufferView": 8, "byteOffset": 0, "componentType": 5125, "count": 9432, "type": "SCALAR"}, {"bufferView": 9, "byteOffset": 0, "componentType": 5123, "count": 8064, "type": "SCALAR"}, {"bufferView": 10, "byteOffset": 0, "componentType": 5125, "count": 42948, "type": "SCALAR"}, {"bufferView": 11, "byteOffset": 0, "componentType": 5123, "count": 456, "type": "SCALAR"}, {"bufferView": 12, "byteOffset": 0, "componentType": 5123, "count": 300, "type": "SCALAR"}, {"bufferView": 13, "byteOffset": 0, "componentType": 5126, "count": 861, "type": "VEC3", "min": [-4.771980568501219, -5.689619433537096, -0.04796698805663685], "max": [4.7766817575842335, 5.713093250077808, 0.07148317674888077]}, {"bufferView": 14, "byteOffset": 0, "componentType": 5126, "count": 861, "type": "VEC3"}, {"bufferView": 15, "byteOffset": 0, "componentType": 5126, "count": 861, "type": "VEC2"}, {"bufferView": 16, "byteOffset": 0, "componentType": 5123, "count": 4512, "type": "SCALAR"}], "bufferViews": [{"buffer": 0, "byteOffset": 0, "byteLength": 851544, "target": 34962}, {"buffer": 0, "byteOffset": 851544, "byteLength": 851544, "target": 34962}, {"buffer": 0, "byteOffset": 1703088, "byteLength": 567696, "target": 34962}, {"buffer": 0, "byteOffset": 2270784, "byteLength": 37152, "target": 34963}, {"buffer": 0, "byteOffset": 2307936, "byteLength": 95736, "target": 34963}, {"buffer": 0, "byteOffset": 2403672, "byteLength": 25344, "target": 34963}, {"buffer": 0, "byteOffset": 2429016, "byteLength": 51648, "target": 34963}, {"buffer": 0, "byteOffset": 2480664, "byteLength": 32544, "target": 34963}, {"buffer": 0, "byteOffset": 2513208, "byteLength": 37728, "target": 34963}, {"buffer": 0, "byteOffset": 2550936, "byteLength": 16128, "target": 34963}, {"buffer": 0, "byteOffset": 2567064, "byteLength": 171792, "target": 34963}, {"buffer": 0, "byteOffset": 2738856, "byteLength": 912, "target": 34963}, {"buffer": 0, "byteOffset": 2739768, "byteLength": 600, "target": 34963}, {"buffer": 0, "byteOffset": 2740368, "byteLength": 10332, "target": 34962}, {"buffer": 0, "byteOffset": 2750700, "byteLength": 10332, "target": 34962}, {"buffer": 0, "byteOffset": 2761032, "byteLength": 6888, "target": 34962}, {"buffer": 0, "byteOffset": 2767920, "byteLength": 9024, "target": 34963}], "buffers": [{"byteLength": 2776944, "uri": "data:application/octet-stream;base64,"}]}