{"asset": {"version": "2.0", "generator": "rotato_extract.py"}, "scene": 0, "scenes": [{"nodes": [0, 1, 2, 3]}], "nodes": [{"mesh": 0, "name": "Geometry_240"}, {"mesh": 1, "name": "Screen"}, {"mesh": 2, "name": "Geometry_391"}, {"mesh": 3, "name": "Geometry_441"}], "meshes": [{"name": "Geometry_240", "primitives": [{"attributes": {"POSITION": 0, "NORMAL": 1, "TEXCOORD_0": 2}, "indices": 3, "mode": 4}, {"attributes": {"POSITION": 0, "NORMAL": 1, "TEXCOORD_0": 2}, "indices": 4, "mode": 4}]}, {"name": "Screen", "primitives": [{"attributes": {"POSITION": 5, "NORMAL": 6, "TEXCOORD_0": 7}, "indices": 8, "mode": 4}]}, {"name": "Geometry_391", "primitives": [{"attributes": {"POSITION": 9, "NORMAL": 10, "TEXCOORD_0": 11}, "indices": 12, "mode": 4}]}, {"name": "Geometry_441", "primitives": [{"attributes": {"POSITION": 13, "NORMAL": 14, "TEXCOORD_0": 15}, "indices": 16, "mode": 4}]}], "accessors": [{"bufferView": 0, "byteOffset": 0, "componentType": 5126, "count": 1268, "type": "VEC3", "min": [-3.9576098918914795, -8.015839576721191, -0.46954700350761414], "max": [3.9576098918914795, 8.015839576721191, 0.4024690091609955]}, {"bufferView": 1, "byteOffset": 0, "componentType": 5126, "count": 1268, "type": "VEC3"}, {"bufferView": 2, "byteOffset": 0, "componentType": 5126, "count": 1268, "type": "VEC2"}, {"bufferView": 3, "byteOffset": 0, "componentType": 5123, "count": 1296, "type": "SCALAR"}, {"bufferView": 4, "byteOffset": 0, "componentType": 5123, "count": 4530, "type": "SCALAR"}, {"bufferView": 5, "byteOffset": 0, "componentType": 5126, "count": 72, "type": "VEC3", "min": [-3.515890822591018, -7.614703006369496, 0.3864936958613967], "max": [3.515890822591018, 7.614703006369496, 0.3864936958613967]}, {"bufferView": 6, "byteOffset": 0, "componentType": 5126, "count": 72, "type": "VEC3"}, {"bufferView": 7, "byteOffset": 0, "componentType": 5126, "count": 72, "type": "VEC2"}, {"bufferView": 8, "byteOffset": 0, "componentType": 5123, "count": 210, "type": "SCALAR"}, {"bufferView": 9, "byteOffset": 0, "componentType": 5126, "count": 72, "type": "VEC3", "min": [-3.4810798477482763, -7.539309529107214, 0.4024684130138194], "max": [3.4810798477482763, 7.539309529107214, 0.4024684130138194]}, {"bufferView": 10, "byteOffset": 0, "componentType": 5126, "count": 72, "type": "VEC3"}, {"bufferView": 11, "byteOffset": 0, "componentType": 5126, "count": 72, "type": "VEC2"}, {"bufferView": 12, "byteOffset": 0, "componentType": 5123, "count": 210, "type": "SCALAR"}, {"bufferView": 13, "byteOffset": 0, "componentType": 5126, "count": 72, "type": "VEC3", "min": [-3.4810796402597486, -7.539309079729348, 0.4124684125591886], "max": [3.4810796402597486, 7.539309079729348, 0.4124684125591886]}, {"bufferView": 14, "byteOffset": 0, "componentType": 5126, "count": 72, "type": "VEC3"}, {"bufferView": 15, "byteOffset": 0, "componentType": 5126, "count": 72, "type": "VEC2"}, {"bufferView": 16, "byteOffset": 0, "componentType": 5123, "count": 210, "type": "SCALAR"}], "bufferViews": [{"buffer": 0, "byteOffset": 0, "byteLength": 15216, "target": 34962}, {"buffer": 0, "byteOffset": 15216, "byteLength": 15216, "target": 34962}, {"buffer": 0, "byteOffset": 30432, "byteLength": 10144, "target": 34962}, {"buffer": 0, "byteOffset": 40576, "byteLength": 2592, "target": 34963}, {"buffer": 0, "byteOffset": 43168, "byteLength": 9060, "target": 34963}, {"buffer": 0, "byteOffset": 52228, "byteLength": 864, "target": 34962}, {"buffer": 0, "byteOffset": 53092, "byteLength": 864, "target": 34962}, {"buffer": 0, "byteOffset": 53956, "byteLength": 576, "target": 34962}, {"buffer": 0, "byteOffset": 54532, "byteLength": 420, "target": 34963}, {"buffer": 0, "byteOffset": 54952, "byteLength": 864, "target": 34962}, {"buffer": 0, "byteOffset": 55816, "byteLength": 864, "target": 34962}, {"buffer": 0, "byteOffset": 56680, "byteLength": 576, "target": 34962}, {"buffer": 0, "byteOffset": 57256, "byteLength": 420, "target": 34963}, {"buffer": 0, "byteOffset": 57676, "byteLength": 864, "target": 34962}, {"buffer": 0, "byteOffset": 58540, "byteLength": 864, "target": 34962}, {"buffer": 0, "byteOffset": 59404, "byteLength": 576, "target": 34962}, {"buffer": 0, "byteOffset": 59980, "byteLength": 420, "target": 34963}], "buffers": [{"byteLength": 60400, "uri": "data:application/octet-stream;base64,"}]}