{"asset": {"version": "2.0", "generator": "rotato_extract.py"}, "scene": 0, "scenes": [{"nodes": [0, 1, 2]}], "nodes": [{"mesh": 0, "name": "Screen"}, {"mesh": 1, "name": "Geometry_185"}, {"mesh": 2, "name": "Geometry_314"}], "meshes": [{"name": "Screen", "primitives": [{"attributes": {"POSITION": 0, "NORMAL": 1, "TEXCOORD_0": 2}, "indices": 3, "mode": 4}]}, {"name": "Geometry_185", "primitives": [{"attributes": {"POSITION": 4, "NORMAL": 5, "TEXCOORD_0": 6}, "indices": 7, "mode": 4}]}, {"name": "Geometry_314", "primitives": [{"attributes": {"POSITION": 8, "NORMAL": 9, "TEXCOORD_0": 10}, "indices": 11, "mode": 4}, {"attributes": {"POSITION": 8, "NORMAL": 9, "TEXCOORD_0": 10}, "indices": 12, "mode": 4}, {"attributes": {"POSITION": 8, "NORMAL": 9, "TEXCOORD_0": 10}, "indices": 13, "mode": 4}, {"attributes": {"POSITION": 8, "NORMAL": 9, "TEXCOORD_0": 10}, "indices": 14, "mode": 4}, {"attributes": {"POSITION": 8, "NORMAL": 9, "TEXCOORD_0": 10}, "indices": 15, "mode": 4}]}], "accessors": [{"bufferView": 0, "byteOffset": 0, "componentType": 5126, "count": 49, "type": "VEC3", "min": [-7.735903999884613, -3.9798998832702637, -0.0427770996466279], "max": [7.596469879150391, 4.711526744213188, -0.04277489986270666]}, {"bufferView": 1, "byteOffset": 0, "componentType": 5126, "count": 49, "type": "VEC3"}, {"bufferView": 2, "byteOffset": 0, "componentType": 5126, "count": 49, "type": "VEC2"}, {"bufferView": 3, "byteOffset": 0, "componentType": 5123, "count": 216, "type": "SCALAR"}, {"bufferView": 4, "byteOffset": 0, "componentType": 5126, "count": 49, "type": "VEC3", "min": [-7.735903999884613, -3.9798998832702637, 0.05134330224245787], "max": [7.596469879150391, 4.711526744213188, 0.05134550202637911]}, {"bufferView": 5, "byteOffset": 0, "componentType": 5126, "count": 49, "type": "VEC3"}, {"bufferView": 6, "byteOffset": 0, "componentType": 5126, "count": 49, "type": "VEC2"}, {"bufferView": 7, "byteOffset": 0, "componentType": 5123, "count": 216, "type": "SCALAR"}, {"bufferView": 8, "byteOffset": 0, "componentType": 5126, "count": 17879, "type": "VEC3", "min": [-7.846101604402065, -4.711011187231634, -0.5860786810517311], "max": [7.7074185982346535, 4.819699764251709, 0.4601503238081932]}, {"bufferView": 9, "byteOffset": 0, "componentType": 5126, "count": 17879, "type": "VEC3"}, {"bufferView": 10, "byteOffset": 0, "componentType": 5126, "count": 17879, "type": "VEC2"}, {"bufferView": 11, "byteOffset": 0, "componentType": 5123, "count": 28842, "type": "SCALAR"}, {"bufferView": 12, "byteOffset": 0, "componentType": 5123, "count": 10560, "type": "SCALAR"}, {"bufferView": 13, "byteOffset": 0, "componentType": 5123, "count": 792, "type": "SCALAR"}, {"bufferView": 14, "byteOffset": 0, "componentType": 5123, "count": 20874, "type": "SCALAR"}, {"bufferView": 15, "byteOffset": 0, "componentType": 5123, "count": 1878, "type": "SCALAR"}], "bufferViews": [{"buffer": 0, "byteOffset": 0, "byteLength": 588, "target": 34962}, {"buffer": 0, "byteOffset": 588, "byteLength": 588, "target": 34962}, {"buffer": 0, "byteOffset": 1176, "byteLength": 392, "target": 34962}, {"buffer": 0, "byteOffset": 1568, "byteLength": 432, "target": 34963}, {"buffer": 0, "byteOffset": 2000, "byteLength": 588, "target": 34962}, {"buffer": 0, "byteOffset": 2588, "byteLength": 588, "target": 34962}, {"buffer": 0, "byteOffset": 3176, "byteLength": 392, "target": 34962}, {"buffer": 0, "byteOffset": 3568, "byteLength": 432, "target": 34963}, {"buffer": 0, "byteOffset": 4000, "byteLength": 214548, "target": 34962}, {"buffer": 0, "byteOffset": 218548, "byteLength": 214548, "target": 34962}, {"buffer": 0, "byteOffset": 433096, "byteLength": 143032, "target": 34962}, {"buffer": 0, "byteOffset": 576128, "byteLength": 57684, "target": 34963}, {"buffer": 0, "byteOffset": 633812, "byteLength": 21120, "target": 34963}, {"buffer": 0, "byteOffset": 654932, "byteLength": 1584, "target": 34963}, {"buffer": 0, "byteOffset": 656516, "byteLength": 41748, "target": 34963}, {"buffer": 0, "byteOffset": 698264, "byteLength": 3756, "target": 34963}], "buffers": [{"byteLength": 702020, "uri": "data:application/octet-stream;base64,"}]}