{"asset":{"version":"2.0","generator":"rotato_extract.py"},"scene":0,"scenes":[{"nodes":[0,1,2,3,4,5,6,7,8,9,10,11,12,13,14,15,16,17,18,19]}],"nodes":[{"mesh":0,"name":"Back"},{"mesh":1,"name":"Black"},{"mesh":2,"name":"BlackRing"},{"mesh":3,"name":"Edge"},{"mesh":4,"name":"Edge_Antenna"},{"mesh":5,"name":"Flash"},{"mesh":6,"name":"Front_Gray"},{"mesh":7,"name":"Front_Lens"},{"mesh":8,"name":"Glass"},{"mesh":9,"name":"Glass_Screen"},{"mesh":10,"name":"Gray"},{"mesh":11,"name":"Lens"},{"mesh":12,"name":"Matte"},{"mesh":13,"name":"Screen"},{"mesh":14,"name":"Screen_Edge"},{"mesh":15,"name":"Flat_shadow"},{"mesh":16,"name":"Long_and_Smooth_shadow"},{"mesh":17,"name":"Long_shadow"},{"mesh":18,"name":"Standing_shadow"},{"mesh":19,"name":"rotatoTag"}],"meshes":[{"name":"Back","primitives":[{"attributes":{"POSITION":0,"NORMAL":1,"TEXCOORD_0":2},"indices":3,"mode":4}]},{"name":"Black","primitives":[{"attributes":{"POSITION":4,"NORMAL":5,"TEXCOORD_0":6},"indices":7,"mode":4}]},{"name":"BlackRing","primitives":[{"attributes":{"POSITION":8,"NORMAL":9,"TEXCOORD_0":10},"indices":11,"mode":4}]},{"name":"Edge","primitives":[{"attributes":{"POSITION":12,"NORMAL":13,"TEXCOORD_0":14},"indices":15,"mode":4}]},{"name":"Edge_Antenna","primitives":[{"attributes":{"POSITION":16,"NORMAL":17,"TEXCOORD_0":18},"indices":19,"mode":4}]},{"name":"Flash","primitives":[{"attributes":{"POSITION":20,"NORMAL":21,"TEXCOORD_0":22},"indices":23,"mode":4}]},{"name":"Front_Gray","primitives":[{"attributes":{"POSITION":24,"NORMAL":25,"TEXCOORD_0":26},"indices":27,"mode":4}]},{"name":"Front_Lens","primitives":[{"attributes":{"POSITION":28,"NORMAL":29,"TEXCOORD_0":30},"indices":31,"mode":4}]},{"name":"Glass","primitives":[{"attributes":{"POSITION":32,"NORMAL":33,"TEXCOORD_0":34},"indices":35,"mode":4}]},{"name":"Glass_Screen","primitives":[{"attributes":{"POSITION":36,"NORMAL":37,"TEXCOORD_0":38},"indices":39,"mode":4}]},{"name":"Gray","primitives":[{"attributes":{"POSITION":40,"NORMAL":41,"TEXCOORD_0":42},"indices":43,"mode":4}]},{"name":"Lens","primitives":[{"attributes":{"POSITION":44,"NORMAL":45,"TEXCOORD_0":46},"indices":47,"mode":4}]},{"name":"Matte","primitives":[{"attributes":{"POSITION":48,"NORMAL":49,"TEXCOORD_0":50},"indices":51,"mode":4}]},{"name":"Screen","primitives":[{"attributes":{"POSITION":52,"NORMAL":53,"TEXCOORD_0":54},"indices":55,"mode":4}]},{"name":"Screen_Edge","primitives":[{"attributes":{"POSITION":56,"NORMAL":57,"TEXCOORD_0":58},"indices":59,"mode":4}]},{"name":"Flat_shadow","primitives":[{"attributes":{"POSITION":60,"NORMAL":61,"TEXCOORD_0":62},"indices":63,"mode":4}]},{"name":"Long_and_Smooth_shadow","primitives":[{"attributes":{"POSITION":64,"NORMAL":65,"TEXCOORD_0":66},"indices":67,"mode":4}]},{"name":"Long_shadow","primitives":[{"attributes":{"POSITION":68,"NORMAL":69,"TEXCOORD_0":70},"indices":71,"mode":4}]},{"name":"Standing_shadow","primitives":[{"attributes":{"POSITION":72,"NORMAL":73,"TEXCOORD_0":74},"indices":75,"mode":4}]},{"name":"rotatoTag","primitives":[{"attributes":{"POSITION":76,"NORMAL":77,"TEXCOORD_0":78},"indices":79,"mode":4}]}],"accessors":[{"bufferView":0,"byteOffset":0,"componentType":5126,"count":3793,"type":"VEC3","min":[-0.034100037068128586,-0.0724102109670639,-0.0040015364065766335],"max":[0.034100037068128586,0.0724102109670639,-0.0034596207551658154]},{"bufferView":1,"byteOffset":0,"componentType":5126,"count":3793,"type":"VEC3"},{"bufferView":2,"byteOffset":0,"componentType":5126,"count":3793,"type":"VEC2"},{"bufferView":3,"byteOffset":0,"componentType":5123,"count":21534,"type":"SCALAR"},{"bufferView":4,"byteOffset":0,"componentType":5126,"count":384,"type":"VEC3","min":[0.017465567216277122,0.023631028831005096,-0.0048187850043177605],"max":[0.02775316685438156,0.06599301844835281,-0.004818784538656473]},{"bufferView":5,"byteOffset":0,"componentType":5126,"count":384,"type":"VEC3"},{"bufferView":6,"byteOffset":0,"componentType":5126,"count":384,"type":"VEC2"},{"bufferView":7,"byteOffset":0,"componentType":5123,"count":1152,"type":"SCALAR"},{"bufferView":8,"byteOffset":0,"componentType":5126,"count":3072,"type":"VEC3","min":[0.01585357077419758,0.022019047290086746,-0.005180116277188063],"max":[0.02936514839529991,0.06760501861572266,-0.004979271907359362]},{"bufferView":9,"byteOffset":0,"componentType":5126,"count":3072,"type":"VEC3"},{"bufferView":10,"byteOffset":0,"componentType":5126,"count":3072,"type":"VEC2"},{"bufferView":11,"byteOffset":0,"componentType":5123,"count":18432,"type":"SCALAR"},{"bufferView":12,"byteOffset":0,"componentType":5126,"count":16805,"type":"VEC3","min":[-0.03520269691944122,-0.07351292669773102,-0.004979276563972235],"max":[0.03562011569738388,0.07351288944482803,0.0037989644333720207]},{"bufferView":13,"byteOffset":0,"componentType":5126,"count":16805,"type":"VEC3"},{"bufferView":14,"byteOffset":0,"componentType":5126,"count":16805,"type":"VEC2"},{"bufferView":15,"byteOffset":0,"componentType":5123,"count":79908,"type":"SCALAR"},{"bufferView":16,"byteOffset":0,"componentType":5126,"count":377,"type":"VEC3","min":[-0.03520269691944122,-0.07351287454366684,-0.0037975595332682133],"max":[0.03520269691944122,0.07351287454366684,0.0037989644333720207]},{"bufferView":17,"byteOffset":0,"componentType":5126,"count":377,"type":"VEC3"},{"bufferView":18,"byteOffset":0,"componentType":5126,"count":377,"type":"VEC2"},{"bufferView":19,"byteOffset":0,"componentType":5123,"count":1176,"type":"SCALAR"},{"bufferView":20,"byteOffset":0,"componentType":5126,"count":48,"type":"VEC3","min":[0.0067899189889431,0.05066455900669098,-0.0039027987513691187],"max":[0.011019105091691017,0.054893750697374344,-0.0039027987513691187]},{"bufferView":21,"byteOffset":0,"componentType":5126,"count":48,"type":"VEC3"},{"bufferView":22,"byteOffset":0,"componentType":5126,"count":48,"type":"VEC2"},{"bufferView":23,"byteOffset":0,"componentType":5123,"count":138,"type":"SCALAR"},{"bufferView":24,"byteOffset":0,"componentType":5126,"count":128,"type":"VEC3","min":[-0.0016997957136482,0.06598391383886337,0.002492844592779875],"max":[0.0016997957136482,0.06938351690769196,0.0037603729870170355]},{"bufferView":25,"byteOffset":0,"componentType":5126,"count":128,"type":"VEC3"},{"bufferView":26,"byteOffset":0,"componentType":5126,"count":128,"type":"VEC2"},{"bufferView":27,"byteOffset":0,"componentType":5123,"count":384,"type":"SCALAR"},{"bufferView":28,"byteOffset":0,"componentType":5126,"count":205,"type":"VEC3","min":[-0.0009276071796193719,0.06675611436367035,0.0016342296730726957],"max":[0.0009276071796193719,0.06861133128404617,0.0033514583483338356]},{"bufferView":29,"byteOffset":0,"componentType":5126,"count":205,"type":"VEC3"},{"bufferView":30,"byteOffset":0,"componentType":5126,"count":205,"type":"VEC2"},{"bufferView":31,"byteOffset":0,"componentType":5123,"count":960,"type":"SCALAR"},{"bufferView":32,"byteOffset":0,"componentType":5126,"count":256,"type":"VEC3","min":[-0.001616398454643786,0.023631028831005096,-0.0049804686568677425],"max":[0.02775316685438156,0.06930011510848999,0.003798432881012559]},{"bufferView":33,"byteOffset":0,"componentType":5126,"count":256,"type":"VEC3"},{"bufferView":34,"byteOffset":0,"componentType":5126,"count":256,"type":"VEC2"},{"bufferView":35,"byteOffset":0,"componentType":5123,"count":744,"type":"SCALAR"},{"bufferView":36,"byteOffset":0,"componentType":5126,"count":1027,"type":"VEC3","min":[-0.03281090781092644,-0.07112107425928116,0.003798432881012559],"max":[0.03281090781092644,0.07112107425928116,0.003798464313149452]},{"bufferView":37,"byteOffset":0,"componentType":5126,"count":1027,"type":"VEC3"},{"bufferView":38,"byteOffset":0,"componentType":5126,"count":1027,"type":"VEC2"},{"bufferView":39,"byteOffset":0,"componentType":5123,"count":5580,"type":"SCALAR"},{"bufferView":40,"byteOffset":0,"componentType":5126,"count":384,"type":"VEC3","min":[0.01963687501847744,0.02619432657957077,-0.004762941040098667],"max":[0.025581855326890945,0.06377484649419785,-0.003465709276497364]},{"bufferView":41,"byteOffset":0,"componentType":5126,"count":384,"type":"VEC3"},{"bufferView":42,"byteOffset":0,"componentType":5126,"count":384,"type":"VEC2"},{"bufferView":43,"byteOffset":0,"componentType":5123,"count":1152,"type":"SCALAR"},{"bufferView":44,"byteOffset":0,"componentType":5126,"count":615,"type":"VEC3","min":[0.02076488919556141,0.027349740266799927,-0.0047852350398898125],"max":[0.02445382997393608,0.06269371509552002,-0.0021461891010403633]},{"bufferView":45,"byteOffset":0,"componentType":5126,"count":615,"type":"VEC3"},{"bufferView":46,"byteOffset":0,"componentType":5126,"count":615,"type":"VEC2"},{"bufferView":47,"byteOffset":0,"componentType":5123,"count":2880,"type":"SCALAR"},{"bufferView":48,"byteOffset":0,"componentType":5126,"count":156,"type":"VEC3","min":[-0.02687383070588112,-0.07331623882055283,-0.0031209331937134266],"max":[0.03497042506933212,0.07316826283931732,0.003120953682810068]},{"bufferView":49,"byteOffset":0,"componentType":5126,"count":156,"type":"VEC3"},{"bufferView":50,"byteOffset":0,"componentType":5126,"count":156,"type":"VEC2"},{"bufferView":51,"byteOffset":0,"componentType":5123,"count":594,"type":"SCALAR"},{"bufferView":52,"byteOffset":0,"componentType":5126,"count":1027,"type":"VEC3","min":[-0.03281090781092644,-0.07112107425928116,0.003798432881012559],"max":[0.03281090781092644,0.07112107425928116,0.003798464313149452]},{"bufferView":53,"byteOffset":0,"componentType":5126,"count":1027,"type":"VEC3"},{"bufferView":54,"byteOffset":0,"componentType":5126,"count":1027,"type":"VEC2"},{"bufferView":55,"byteOffset":0,"componentType":5123,"count":5580,"type":"SCALAR"},{"bufferView":56,"byteOffset":0,"componentType":5126,"count":1556,"type":"VEC3","min":[-0.03429917246103287,-0.07260934263467789,0.0031611875165253878],"max":[0.03429917246103287,0.07260934263467789,0.003798464313149452]},{"bufferView":57,"byteOffset":0,"componentType":5126,"count":1556,"type":"VEC3"},{"bufferView":58,"byteOffset":0,"componentType":5126,"count":1556,"type":"VEC2"},{"bufferView":59,"byteOffset":0,"componentType":5123,"count":6624,"type":"SCALAR"},{"bufferView":60,"byteOffset":0,"componentType":5126,"count":4,"type":"VEC3","min":[-15.291497230529785,0.0,-15.291497230529785],"max":[15.291497230529785,0.0,15.291497230529785]},{"bufferView":61,"byteOffset":0,"componentType":5126,"count":4,"type":"VEC3"},{"bufferView":62,"byteOffset":0,"componentType":5126,"count":4,"type":"VEC2"},{"bufferView":63,"byteOffset":0,"componentType":5123,"count":6,"type":"SCALAR"},{"bufferView":64,"byteOffset":0,"componentType":5126,"count":4,"type":"VEC3","min":[-15.291497230529785,0.0,-15.291497230529785],"max":[15.291497230529785,0.0,15.291497230529785]},{"bufferView":65,"byteOffset":0,"componentType":5126,"count":4,"type":"VEC3"},{"bufferView":66,"byteOffset":0,"componentType":5126,"count":4,"type":"VEC2"},{"bufferView":67,"byteOffset":0,"componentType":5123,"count":6,"type":"SCALAR"},{"bufferView":68,"byteOffset":0,"componentType":5126,"count":4,"type":"VEC3","min":[-15.291497230529785,0.0,-15.291497230529785],"max":[15.291497230529785,0.0,15.291497230529785]},{"bufferView":69,"byteOffset":0,"componentType":5126,"count":4,"type":"VEC3"},{"bufferView":70,"byteOffset":0,"componentType":5126,"count":4,"type":"VEC2"},{"bufferView":71,"byteOffset":0,"componentType":5123,"count":6,"type":"SCALAR"},{"bufferView":72,"byteOffset":0,"componentType":5126,"count":4,"type":"VEC3","min":[-15.291497230529785,0.0,-15.291497230529785],"max":[15.291497230529785,0.0,15.291497230529785]},{"bufferView":73,"byteOffset":0,"componentType":5126,"count":4,"type":"VEC3"},{"bufferView":74,"byteOffset":0,"componentType":5126,"count":4,"type":"VEC2"},{"bufferView":75,"byteOffset":0,"componentType":5123,"count":6,"type":"SCALAR"},{"bufferView":76,"byteOffset":0,"componentType":5126,"count":32,"type":"VEC3","min":[-0.9999985098838806,-1.9999964237213135,-7.549775915549617e-08],"max":[0.9999985098838806,1.9999964237213135,7.549775915549617e-08]},{"bufferView":77,"byteOffset":0,"componentType":5126,"count":32,"type":"VEC3"},{"bufferView":78,"byteOffset":0,"componentType":5126,"count":32,"type":"VEC2"},{"bufferView":79,"byteOffset":0,"componentType":5123,"count":90,"type":"SCALAR"}],"bufferViews":[{"buffer":0,"byteOffset":0,"byteLength":45516,"target":34962},{"buffer":0,"byteOffset":45516,"byteLength":45516,"target":34962},{"buffer":0,"byteOffset":91032,"byteLength":30344,"target":34962},{"buffer":0,"byteOffset":121376,"byteLength":43068,"target":34963},{"buffer":0,"byteOffset":164444,"byteLength":4608,"target":34962},{"buffer":0,"byteOffset":169052,"byteLength":4608,"target":34962},{"buffer":0,"byteOffset":173660,"byteLength":3072,"target":34962},{"buffer":0,"byteOffset":176732,"byteLength":2304,"target":34963},{"buffer":0,"byteOffset":179036,"byteLength":36864,"target":34962},{"buffer":0,"byteOffset":215900,"byteLength":36864,"target":34962},{"buffer":0,"byteOffset":252764,"byteLength":24576,"target":34962},{"buffer":0,"byteOffset":277340,"byteLength":36864,"target":34963},{"buffer":0,"byteOffset":314204,"byteLength":201660,"target":34962},{"buffer":0,"byteOffset":515864,"byteLength":201660,"target":34962},{"buffer":0,"byteOffset":717524,"byteLength":134440,"target":34962},{"buffer":0,"byteOffset":851964,"byteLength":159816,"target":34963},{"buffer":0,"byteOffset":1011780,"byteLength":4524,"target":34962},{"buffer":0,"byteOffset":1016304,"byteLength":4524,"target":34962},{"buffer":0,"byteOffset":1020828,"byteLength":3016,"target":34962},{"buffer":0,"byteOffset":1023844,"byteLength":2352,"target":34963},{"buffer":0,"byteOffset":1026196,"byteLength":576,"target":34962},{"buffer":0,"byteOffset":1026772,"byteLength":576,"target":34962},{"buffer":0,"byteOffset":1027348,"byteLength":384,"target":34962},{"buffer":0,"byteOffset":1027732,"byteLength":276,"target":34963},{"buffer":0,"byteOffset":1028008,"byteLength":1536,"target":34962},{"buffer":0,"byteOffset":1029544,"byteLength":1536,"target":34962},{"buffer":0,"byteOffset":1031080,"byteLength":1024,"target":34962},{"buffer":0,"byteOffset":1032104,"byteLength":768,"target":34963},{"buffer":0,"byteOffset":1032872,"byteLength":2460,"target":34962},{"buffer":0,"byteOffset":1035332,"byteLength":2460,"target":34962},{"buffer":0,"byteOffset":1037792,"byteLength":1640,"target":34962},{"buffer":0,"byteOffset":1039432,"byteLength":1920,"target":34963},{"buffer":0,"byteOffset":1041352,"byteLength":3072,"target":34962},{"buffer":0,"byteOffset":1044424,"byteLength":3072,"target":34962},{"buffer":0,"byteOffset":1047496,"byteLength":2048,"target":34962},{"buffer":0,"byteOffset":1049544,"byteLength":1488,"target":34963},{"buffer":0,"byteOffset":1051032,"byteLength":12324,"target":34962},{"buffer":0,"byteOffset":1063356,"byteLength":12324,"target":34962},{"buffer":0,"byteOffset":1075680,"byteLength":8216,"target":34962},{"buffer":0,"byteOffset":1083896,"byteLength":11160,"target":34963},{"buffer":0,"byteOffset":1095056,"byteLength":4608,"target":34962},{"buffer":0,"byteOffset":1099664,"byteLength":4608,"target":34962},{"buffer":0,"byteOffset":1104272,"byteLength":3072,"target":34962},{"buffer":0,"byteOffset":1107344,"byteLength":2304,"target":34963},{"buffer":0,"byteOffset":1109648,"byteLength":7380,"target":34962},{"buffer":0,"byteOffset":1117028,"byteLength":7380,"target":34962},{"buffer":0,"byteOffset":1124408,"byteLength":4920,"target":34962},{"buffer":0,"byteOffset":1129328,"byteLength":5760,"target":34963},{"buffer":0,"byteOffset":1135088,"byteLength":1872,"target":34962},{"buffer":0,"byteOffset":1136960,"byteLength":1872,"target":34962},{"buffer":0,"byteOffset":1138832,"byteLength":1248,"target":34962},{"buffer":0,"byteOffset":1140080,"byteLength":1188,"target":34963},{"buffer":0,"byteOffset":1141268,"byteLength":12324,"target":34962},{"buffer":0,"byteOffset":1153592,"byteLength":12324,"target":34962},{"buffer":0,"byteOffset":1165916,"byteLength":8216,"target":34962},{"buffer":0,"byteOffset":1174132,"byteLength":11160,"target":34963},{"buffer":0,"byteOffset":1185292,"byteLength":18672,"target":34962},{"buffer":0,"byteOffset":1203964,"byteLength":18672,"target":34962},{"buffer":0,"byteOffset":1222636,"byteLength":12448,"target":34962},{"buffer":0,"byteOffset":1235084,"byteLength":13248,"target":34963},{"buffer":0,"byteOffset":1248332,"byteLength":48,"target":34962},{"buffer":0,"byteOffset":1248380,"byteLength":48,"target":34962},{"buffer":0,"byteOffset":1248428,"byteLength":32,"target":34962},{"buffer":0,"byteOffset":1248460,"byteLength":12,"target":34963},{"buffer":0,"byteOffset":1248472,"byteLength":48,"target":34962},{"buffer":0,"byteOffset":1248520,"byteLength":48,"target":34962},{"buffer":0,"byteOffset":1248568,"byteLength":32,"target":34962},{"buffer":0,"byteOffset":1248600,"byteLength":12,"target":34963},{"buffer":0,"byteOffset":1248612,"byteLength":48,"target":34962},{"buffer":0,"byteOffset":1248660,"byteLength":48,"target":34962},{"buffer":0,"byteOffset":1248708,"byteLength":32,"target":34962},{"buffer":0,"byteOffset":1248740,"byteLength":12,"target":34963},{"buffer":0,"byteOffset":1248752,"byteLength":48,"target":34962},{"buffer":0,"byteOffset":1248800,"byteLength":48,"target":34962},{"buffer":0,"byteOffset":1248848,"byteLength":32,"target":34962},{"buffer":0,"byteOffset":1248880,"byteLength":12,"target":34963},{"buffer":0,"byteOffset":1248892,"byteLength":384,"target":34962},{"buffer":0,"byteOffset":1249276,"byteLength":384,"target":34962},{"buffer":0,"byteOffset":1249660,"byteLength":256,"target":34962},{"buffer":0,"byteOffset":1249916,"byteLength":180,"target":34963}],"buffers":[{"byteLength":1250096,"uri":"data:application/octet-stream;base64,"}]}