{"asset":{"version":"2.0","generator":"rotato_extract.py"},"scene":0,"scenes":[{"nodes":[0,1,2,3,4,5,6,7,8,9,10,11,12,13,14,15,16,17,18,19]}],"nodes":[{"mesh":0,"name":"Back"},{"mesh":1,"name":"Black"},{"mesh":2,"name":"BlackRing"},{"mesh":3,"name":"Edge"},{"mesh":4,"name":"Edge_Antenna"},{"mesh":5,"name":"Flash"},{"mesh":6,"name":"Front_Gray"},{"mesh":7,"name":"Front_Lens"},{"mesh":8,"name":"Glass"},{"mesh":9,"name":"Glass_Screen"},{"mesh":10,"name":"Gray"},{"mesh":11,"name":"Lens"},{"mesh":12,"name":"Matte"},{"mesh":13,"name":"Screen"},{"mesh":14,"name":"Screen_Edge"},{"mesh":15,"name":"Flat_shadow"},{"mesh":16,"name":"Long_and_Smooth_shadow"},{"mesh":17,"name":"Long_shadow"},{"mesh":18,"name":"Standing_shadow"},{"mesh":19,"name":"rotatoTag"}],"meshes":[{"name":"Back","primitives":[{"attributes":{"POSITION":0,"NORMAL":1,"TEXCOORD_0":2},"indices":3,"mode":4}]},{"name":"Black","primitives":[{"attributes":{"POSITION":4,"NORMAL":5,"TEXCOORD_0":6},"indices":7,"mode":4}]},{"name":"BlackRing","primitives":[{"attributes":{"POSITION":8,"NORMAL":9,"TEXCOORD_0":10},"indices":11,"mode":4}]},{"name":"Edge","primitives":[{"attributes":{"POSITION":12,"NORMAL":13,"TEXCOORD_0":14},"indices":15,"mode":4}]},{"name":"Edge_Antenna","primitives":[{"attributes":{"POSITION":16,"NORMAL":17,"TEXCOORD_0":18},"indices":19,"mode":4}]},{"name":"Flash","primitives":[{"attributes":{"POSITION":20,"NORMAL":21,"TEXCOORD_0":22},"indices":23,"mode":4}]},{"name":"Front_Gray","primitives":[{"attributes":{"POSITION":24,"NORMAL":25,"TEXCOORD_0":26},"indices":27,"mode":4}]},{"name":"Front_Lens","primitives":[{"attributes":{"POSITION":28,"NORMAL":29,"TEXCOORD_0":30},"indices":31,"mode":4}]},{"name":"Glass","primitives":[{"attributes":{"POSITION":32,"NORMAL":33,"TEXCOORD_0":34},"indices":35,"mode":4}]},{"name":"Glass_Screen","primitives":[{"attributes":{"POSITION":36,"NORMAL":37,"TEXCOORD_0":38},"indices":39,"mode":4}]},{"name":"Gray","primitives":[{"attributes":{"POSITION":40,"NORMAL":41,"TEXCOORD_0":42},"indices":43,"mode":4}]},{"name":"Lens","primitives":[{"attributes":{"POSITION":44,"NORMAL":45,"TEXCOORD_0":46},"indices":47,"mode":4}]},{"name":"Matte","primitives":[{"attributes":{"POSITION":48,"NORMAL":49,"TEXCOORD_0":50},"indices":51,"mode":4}]},{"name":"Screen","primitives":[{"attributes":{"POSITION":52,"NORMAL":53,"TEXCOORD_0":54},"indices":55,"mode":4}]},{"name":"Screen_Edge","primitives":[{"attributes":{"POSITION":56,"NORMAL":57,"TEXCOORD_0":58},"indices":59,"mode":4}]},{"name":"Flat_shadow","primitives":[{"attributes":{"POSITION":60,"NORMAL":61,"TEXCOORD_0":62},"indices":63,"mode":4}]},{"name":"Long_and_Smooth_shadow","primitives":[{"attributes":{"POSITION":64,"NORMAL":65,"TEXCOORD_0":66},"indices":67,"mode":4}]},{"name":"Long_shadow","primitives":[{"attributes":{"POSITION":68,"NORMAL":69,"TEXCOORD_0":70},"indices":71,"mode":4}]},{"name":"Standing_shadow","primitives":[{"attributes":{"POSITION":72,"NORMAL":73,"TEXCOORD_0":74},"indices":75,"mode":4}]},{"name":"rotatoTag","primitives":[{"attributes":{"POSITION":76,"NORMAL":77,"TEXCOORD_0":78},"indices":79,"mode":4}]}],"accessors":[{"bufferView":0,"byteOffset":0,"componentType":5126,"count":3793,"type":"VEC3","min":[-0.036761291325092316,-0.0780612900853157,-0.0040015364065766335],"max":[0.036761291325092316,0.0780612900853157,-0.0034596207551658154]},{"bufferView":1,"byteOffset":0,"componentType":5126,"count":3793,"type":"VEC3"},{"bufferView":2,"byteOffset":0,"componentType":5126,"count":3793,"type":"VEC2"},{"bufferView":3,"byteOffset":0,"componentType":5123,"count":21534,"type":"SCALAR"},{"bufferView":4,"byteOffset":0,"componentType":5126,"count":384,"type":"VEC3","min":[0.019460072740912437,0.026432761922478676,-0.0048187850043177605],"max":[0.03055054135620594,0.07186638563871384,-0.004818784538656473]},{"bufferView":5,"byteOffset":0,"componentType":5126,"count":384,"type":"VEC3"},{"bufferView":6,"byteOffset":0,"componentType":5126,"count":384,"type":"VEC2"},{"bufferView":7,"byteOffset":0,"componentType":5123,"count":1152,"type":"SCALAR"},{"bufferView":8,"byteOffset":0,"componentType":5126,"count":3072,"type":"VEC3","min":[0.01772257499396801,0.024695277214050293,-0.00518030347302556],"max":[0.03228804096579552,0.07360388338565826,-0.004975759889930487]},{"bufferView":9,"byteOffset":0,"componentType":5126,"count":3072,"type":"VEC3"},{"bufferView":10,"byteOffset":0,"componentType":5126,"count":3072,"type":"VEC2"},{"bufferView":11,"byteOffset":0,"componentType":5123,"count":18432,"type":"SCALAR"},{"bufferView":12,"byteOffset":0,"componentType":5126,"count":16779,"type":"VEC3","min":[-0.037950001657009125,-0.07925006002187729,-0.004979276563972235],"max":[0.03839999809861183,0.07925001531839371,0.0037989644333720207]},{"bufferView":13,"byteOffset":0,"componentType":5126,"count":16779,"type":"VEC3"},{"bufferView":14,"byteOffset":0,"componentType":5126,"count":16779,"type":"VEC2"},{"bufferView":15,"byteOffset":0,"componentType":5123,"count":79908,"type":"SCALAR"},{"bufferView":16,"byteOffset":0,"componentType":5126,"count":290,"type":"VEC3","min":[-0.037950001657009125,-0.07925000041723251,-0.0037975595332682133],"max":[0.037950001657009125,0.07925000041723251,0.0037989644333720207]},{"bufferView":17,"byteOffset":0,"componentType":5126,"count":290,"type":"VEC3"},{"bufferView":18,"byteOffset":0,"componentType":5126,"count":290,"type":"VEC2"},{"bufferView":19,"byteOffset":0,"componentType":5123,"count":840,"type":"SCALAR"},{"bufferView":20,"byteOffset":0,"componentType":5126,"count":48,"type":"VEC3","min":[0.008965151384472847,0.05561903491616249,-0.0039027987513691187],"max":[0.013238303363323212,0.0598921924829483,-0.0039027987513691187]},{"bufferView":21,"byteOffset":0,"componentType":5126,"count":48,"type":"VEC3"},{"bufferView":22,"byteOffset":0,"componentType":5126,"count":48,"type":"VEC2"},{"bufferView":23,"byteOffset":0,"componentType":5123,"count":138,"type":"SCALAR"},{"bufferView":24,"byteOffset":0,"componentType":5126,"count":128,"type":"VEC3","min":[-0.0018324521370232105,0.07164063304662704,0.002492844592779875],"max":[0.0018324521370232105,0.07530554383993149,0.0037603729870170355]},{"bufferView":25,"byteOffset":0,"componentType":5126,"count":128,"type":"VEC3"},{"bufferView":26,"byteOffset":0,"componentType":5126,"count":128,"type":"VEC2"},{"bufferView":27,"byteOffset":0,"componentType":5123,"count":384,"type":"SCALAR"},{"bufferView":28,"byteOffset":0,"componentType":5126,"count":205,"type":"VEC3","min":[-0.0010000000474974513,0.07247309386730194,0.0016342296730726957],"max":[0.0010000000474974513,0.07447309792041779,0.0033514583483338356]},{"bufferView":29,"byteOffset":0,"componentType":5126,"count":205,"type":"VEC3"},{"bufferView":30,"byteOffset":0,"componentType":5126,"count":205,"type":"VEC2"},{"bufferView":31,"byteOffset":0,"componentType":5123,"count":960,"type":"SCALAR"},{"bufferView":32,"byteOffset":0,"componentType":5126,"count":256,"type":"VEC3","min":[-0.0017425463302060962,0.026432761922478676,-0.0049804686568677425],"max":[0.03055054135620594,0.07521563768386841,0.003798432881012559]},{"bufferView":33,"byteOffset":0,"componentType":5126,"count":256,"type":"VEC3"},{"bufferView":34,"byteOffset":0,"componentType":5126,"count":256,"type":"VEC2"},{"bufferView":35,"byteOffset":0,"componentType":5123,"count":744,"type":"SCALAR"},{"bufferView":36,"byteOffset":0,"componentType":5126,"count":1027,"type":"VEC3","min":[-0.035371556878089905,-0.0766715481877327,0.003798432881012559],"max":[0.035371556878089905,0.0766715481877327,0.003798464313149452]},{"bufferView":37,"byteOffset":0,"componentType":5126,"count":1027,"type":"VEC3"},{"bufferView":38,"byteOffset":0,"componentType":5126,"count":1027,"type":"VEC2"},{"bufferView":39,"byteOffset":0,"componentType":5123,"count":5580,"type":"SCALAR"},{"bufferView":40,"byteOffset":0,"componentType":5126,"count":384,"type":"VEC3","min":[0.02180083468556404,0.029196105897426605,-0.004762941040098667],"max":[0.028209775686264038,0.06947509944438934,-0.003465709276497364]},{"bufferView":41,"byteOffset":0,"componentType":5126,"count":384,"type":"VEC3"},{"bufferView":42,"byteOffset":0,"componentType":5126,"count":384,"type":"VEC2"},{"bufferView":43,"byteOffset":0,"componentType":5123,"count":1152,"type":"SCALAR"},{"bufferView":44,"byteOffset":0,"componentType":5126,"count":615,"type":"VEC3","min":[0.023016883060336113,0.03044169209897518,-0.0047852350398898125],"max":[0.02699371613562107,0.06830959767103195,-0.0021461891010403633]},{"bufferView":45,"byteOffset":0,"componentType":5126,"count":615,"type":"VEC3"},{"bufferView":46,"byteOffset":0,"componentType":5126,"count":615,"type":"VEC2"},{"bufferView":47,"byteOffset":0,"componentType":5123,"count":2880,"type":"SCALAR"},{"bufferView":48,"byteOffset":0,"componentType":5126,"count":156,"type":"VEC3","min":[-0.028971131891012192,-0.07903802394866943,-0.0031209331937134266],"max":[0.03769960626959801,0.0788784995675087,0.003120953682810068]},{"bufferView":49,"byteOffset":0,"componentType":5126,"count":156,"type":"VEC3"},{"bufferView":50,"byteOffset":0,"componentType":5126,"count":156,"type":"VEC2"},{"bufferView":51,"byteOffset":0,"componentType":5123,"count":594,"type":"SCALAR"},{"bufferView":52,"byteOffset":0,"componentType":5126,"count":1027,"type":"VEC3","min":[-0.035371556878089905,-0.0766715481877327,0.003798432881012559],"max":[0.035371556878089905,0.0766715481877327,0.003798464313149452]},{"bufferView":53,"byteOffset":0,"componentType":5126,"count":1027,"type":"VEC3"},{"bufferView":54,"byteOffset":0,"componentType":5126,"count":1027,"type":"VEC2"},{"bufferView":55,"byteOffset":0,"componentType":5123,"count":5580,"type":"SCALAR"},{"bufferView":56,"byteOffset":0,"componentType":5126,"count":1556,"type":"VEC3","min":[-0.03697596862912178,-0.07827596366405487,0.0032576676458120346],"max":[0.03697596862912178,0.07827596366405487,0.0037995183374732733]},{"bufferView":57,"byteOffset":0,"componentType":5126,"count":1556,"type":"VEC3"},{"bufferView":58,"byteOffset":0,"componentType":5126,"count":1556,"type":"VEC2"},{"bufferView":59,"byteOffset":0,"componentType":5123,"count":6624,"type":"SCALAR"},{"bufferView":60,"byteOffset":0,"componentType":5126,"count":4,"type":"VEC3","min":[-15.291497230529785,0.0,-15.291497230529785],"max":[15.291497230529785,0.0,15.291497230529785]},{"bufferView":61,"byteOffset":0,"componentType":5126,"count":4,"type":"VEC3"},{"bufferView":62,"byteOffset":0,"componentType":5126,"count":4,"type":"VEC2"},{"bufferView":63,"byteOffset":0,"componentType":5123,"count":6,"type":"SCALAR"},{"bufferView":64,"byteOffset":0,"componentType":5126,"count":4,"type":"VEC3","min":[-15.291497230529785,0.0,-15.291497230529785],"max":[15.291497230529785,0.0,15.291497230529785]},{"bufferView":65,"byteOffset":0,"componentType":5126,"count":4,"type":"VEC3"},{"bufferView":66,"byteOffset":0,"componentType":5126,"count":4,"type":"VEC2"},{"bufferView":67,"byteOffset":0,"componentType":5123,"count":6,"type":"SCALAR"},{"bufferView":68,"byteOffset":0,"componentType":5126,"count":4,"type":"VEC3","min":[-15.291497230529785,0.0,-15.291497230529785],"max":[15.291497230529785,0.0,15.291497230529785]},{"bufferView":69,"byteOffset":0,"componentType":5126,"count":4,"type":"VEC3"},{"bufferView":70,"byteOffset":0,"componentType":5126,"count":4,"type":"VEC2"},{"bufferView":71,"byteOffset":0,"componentType":5123,"count":6,"type":"SCALAR"},{"bufferView":72,"byteOffset":0,"componentType":5126,"count":4,"type":"VEC3","min":[-15.291497230529785,0.0,-15.291497230529785],"max":[15.291497230529785,0.0,15.291497230529785]},{"bufferView":73,"byteOffset":0,"componentType":5126,"count":4,"type":"VEC3"},{"bufferView":74,"byteOffset":0,"componentType":5126,"count":4,"type":"VEC2"},{"bufferView":75,"byteOffset":0,"componentType":5123,"count":6,"type":"SCALAR"},{"bufferView":76,"byteOffset":0,"componentType":5126,"count":32,"type":"VEC3","min":[-0.9999985098838806,-1.9999964237213135,-7.549775915549617e-08],"max":[0.9999985098838806,1.9999964237213135,7.549775915549617e-08]},{"bufferView":77,"byteOffset":0,"componentType":5126,"count":32,"type":"VEC3"},{"bufferView":78,"byteOffset":0,"componentType":5126,"count":32,"type":"VEC2"},{"bufferView":79,"byteOffset":0,"componentType":5123,"count":90,"type":"SCALAR"}],"bufferViews":[{"buffer":0,"byteOffset":0,"byteLength":45516,"target":34962},{"buffer":0,"byteOffset":45516,"byteLength":45516,"target":34962},{"buffer":0,"byteOffset":91032,"byteLength":30344,"target":34962},{"buffer":0,"byteOffset":121376,"byteLength":43068,"target":34963},{"buffer":0,"byteOffset":164444,"byteLength":4608,"target":34962},{"buffer":0,"byteOffset":169052,"byteLength":4608,"target":34962},{"buffer":0,"byteOffset":173660,"byteLength":3072,"target":34962},{"buffer":0,"byteOffset":176732,"byteLength":2304,"target":34963},{"buffer":0,"byteOffset":179036,"byteLength":36864,"target":34962},{"buffer":0,"byteOffset":215900,"byteLength":36864,"target":34962},{"buffer":0,"byteOffset":252764,"byteLength":24576,"target":34962},{"buffer":0,"byteOffset":277340,"byteLength":36864,"target":34963},{"buffer":0,"byteOffset":314204,"byteLength":201348,"target":34962},{"buffer":0,"byteOffset":515552,"byteLength":201348,"target":34962},{"buffer":0,"byteOffset":716900,"byteLength":134232,"target":34962},{"buffer":0,"byteOffset":851132,"byteLength":159816,"target":34963},{"buffer":0,"byteOffset":1010948,"byteLength":3480,"target":34962},{"buffer":0,"byteOffset":1014428,"byteLength":3480,"target":34962},{"buffer":0,"byteOffset":1017908,"byteLength":2320,"target":34962},{"buffer":0,"byteOffset":1020228,"byteLength":1680,"target":34963},{"buffer":0,"byteOffset":1021908,"byteLength":576,"target":34962},{"buffer":0,"byteOffset":1022484,"byteLength":576,"target":34962},{"buffer":0,"byteOffset":1023060,"byteLength":384,"target":34962},{"buffer":0,"byteOffset":1023444,"byteLength":276,"target":34963},{"buffer":0,"byteOffset":1023720,"byteLength":1536,"target":34962},{"buffer":0,"byteOffset":1025256,"byteLength":1536,"target":34962},{"buffer":0,"byteOffset":1026792,"byteLength":1024,"target":34962},{"buffer":0,"byteOffset":1027816,"byteLength":768,"target":34963},{"buffer":0,"byteOffset":1028584,"byteLength":2460,"target":34962},{"buffer":0,"byteOffset":1031044,"byteLength":2460,"target":34962},{"buffer":0,"byteOffset":1033504,"byteLength":1640,"target":34962},{"buffer":0,"byteOffset":1035144,"byteLength":1920,"target":34963},{"buffer":0,"byteOffset":1037064,"byteLength":3072,"target":34962},{"buffer":0,"byteOffset":1040136,"byteLength":3072,"target":34962},{"buffer":0,"byteOffset":1043208,"byteLength":2048,"target":34962},{"buffer":0,"byteOffset":1045256,"byteLength":1488,"target":34963},{"buffer":0,"byteOffset":1046744,"byteLength":12324,"target":34962},{"buffer":0,"byteOffset":1059068,"byteLength":12324,"target":34962},{"buffer":0,"byteOffset":1071392,"byteLength":8216,"target":34962},{"buffer":0,"byteOffset":1079608,"byteLength":11160,"target":34963},{"buffer":0,"byteOffset":1090768,"byteLength":4608,"target":34962},{"buffer":0,"byteOffset":1095376,"byteLength":4608,"target":34962},{"buffer":0,"byteOffset":1099984,"byteLength":3072,"target":34962},{"buffer":0,"byteOffset":1103056,"byteLength":2304,"target":34963},{"buffer":0,"byteOffset":1105360,"byteLength":7380,"target":34962},{"buffer":0,"byteOffset":1112740,"byteLength":7380,"target":34962},{"buffer":0,"byteOffset":1120120,"byteLength":4920,"target":34962},{"buffer":0,"byteOffset":1125040,"byteLength":5760,"target":34963},{"buffer":0,"byteOffset":1130800,"byteLength":1872,"target":34962},{"buffer":0,"byteOffset":1132672,"byteLength":1872,"target":34962},{"buffer":0,"byteOffset":1134544,"byteLength":1248,"target":34962},{"buffer":0,"byteOffset":1135792,"byteLength":1188,"target":34963},{"buffer":0,"byteOffset":1136980,"byteLength":12324,"target":34962},{"buffer":0,"byteOffset":1149304,"byteLength":12324,"target":34962},{"buffer":0,"byteOffset":1161628,"byteLength":8216,"target":34962},{"buffer":0,"byteOffset":1169844,"byteLength":11160,"target":34963},{"buffer":0,"byteOffset":1181004,"byteLength":18672,"target":34962},{"buffer":0,"byteOffset":1199676,"byteLength":18672,"target":34962},{"buffer":0,"byteOffset":1218348,"byteLength":12448,"target":34962},{"buffer":0,"byteOffset":1230796,"byteLength":13248,"target":34963},{"buffer":0,"byteOffset":1244044,"byteLength":48,"target":34962},{"buffer":0,"byteOffset":1244092,"byteLength":48,"target":34962},{"buffer":0,"byteOffset":1244140,"byteLength":32,"target":34962},{"buffer":0,"byteOffset":1244172,"byteLength":12,"target":34963},{"buffer":0,"byteOffset":1244184,"byteLength":48,"target":34962},{"buffer":0,"byteOffset":1244232,"byteLength":48,"target":34962},{"buffer":0,"byteOffset":1244280,"byteLength":32,"target":34962},{"buffer":0,"byteOffset":1244312,"byteLength":12,"target":34963},{"buffer":0,"byteOffset":1244324,"byteLength":48,"target":34962},{"buffer":0,"byteOffset":1244372,"byteLength":48,"target":34962},{"buffer":0,"byteOffset":1244420,"byteLength":32,"target":34962},{"buffer":0,"byteOffset":1244452,"byteLength":12,"target":34963},{"buffer":0,"byteOffset":1244464,"byteLength":48,"target":34962},{"buffer":0,"byteOffset":1244512,"byteLength":48,"target":34962},{"buffer":0,"byteOffset":1244560,"byteLength":32,"target":34962},{"buffer":0,"byteOffset":1244592,"byteLength":12,"target":34963},{"buffer":0,"byteOffset":1244604,"byteLength":384,"target":34962},{"buffer":0,"byteOffset":1244988,"byteLength":384,"target":34962},{"buffer":0,"byteOffset":1245372,"byteLength":256,"target":34962},{"buffer":0,"byteOffset":1245628,"byteLength":180,"target":34963}],"buffers":[{"byteLength":1245808,"uri":"data:application/octet-stream;base64,"}]}