{"asset":{"version":"2.0","generator":"rotato_extract.py"},"scene":0,"scenes":[{"nodes":[0,1,2,3,4,5,6,7,8,9,10,11,12,13,14,15,16,17,18,19]}],"nodes":[{"mesh":0,"name":"Back"},{"mesh":1,"name":"Black"},{"mesh":2,"name":"Edge"},{"mesh":3,"name":"Flash"},{"mesh":4,"name":"Glass"},{"mesh":5,"name":"Glass_Rough"},{"mesh":6,"name":"Glass_screen"},{"mesh":7,"name":"Gray"},{"mesh":8,"name":"Lens"},{"mesh":9,"name":"LiDAR"},{"mesh":10,"name":"Matte"},{"mesh":11,"name":"Mic"},{"mesh":12,"name":"Plastic"},{"mesh":13,"name":"Screen"},{"mesh":14,"name":"Screen_Edge"},{"mesh":15,"name":"Flat_shadow"},{"mesh":16,"name":"Long_and_smooth_shadow"},{"mesh":17,"name":"Long_shadow"},{"mesh":18,"name":"Standing_shadow"},{"mesh":19,"name":"rotatoTag"}],"meshes":[{"name":"Back","primitives":[{"attributes":{"POSITION":0,"NORMAL":1,"TEXCOORD_0":2},"indices":3,"mode":4}]},{"name":"Black","primitives":[{"attributes":{"POSITION":4,"NORMAL":5,"TEXCOORD_0":6},"indices":7,"mode":4}]},{"name":"Edge","primitives":[{"attributes":{"POSITION":8,"NORMAL":9,"TEXCOORD_0":10},"indices":11,"mode":4}]},{"name":"Flash","primitives":[{"attributes":{"POSITION":12,"NORMAL":13,"TEXCOORD_0":14},"indices":15,"mode":4}]},{"name":"Glass","primitives":[{"attributes":{"POSITION":16,"NORMAL":17,"TEXCOORD_0":18},"indices":19,"mode":4}]},{"name":"Glass_Rough","primitives":[{"attributes":{"POSITION":20,"NORMAL":21,"TEXCOORD_0":22},"indices":23,"mode":4}]},{"name":"Glass_screen","primitives":[{"attributes":{"POSITION":24,"NORMAL":25,"TEXCOORD_0":26},"indices":27,"mode":4}]},{"name":"Gray","primitives":[{"attributes":{"POSITION":28,"NORMAL":29,"TEXCOORD_0":30},"indices":31,"mode":4}]},{"name":"Lens","primitives":[{"attributes":{"POSITION":32,"NORMAL":33,"TEXCOORD_0":34},"indices":35,"mode":4}]},{"name":"LiDAR","primitives":[{"attributes":{"POSITION":36,"NORMAL":37,"TEXCOORD_0":38},"indices":39,"mode":4}]},{"name":"Matte","primitives":[{"attributes":{"POSITION":40,"NORMAL":41,"TEXCOORD_0":42},"indices":43,"mode":4}]},{"name":"Mic","primitives":[{"attributes":{"POSITION":44,"NORMAL":45,"TEXCOORD_0":46},"indices":47,"mode":4}]},{"name":"Plastic","primitives":[{"attributes":{"POSITION":48,"NORMAL":49,"TEXCOORD_0":50},"indices":51,"mode":4}]},{"name":"Screen","primitives":[{"attributes":{"POSITION":52,"NORMAL":53,"TEXCOORD_0":54},"indices":55,"mode":4}]},{"name":"Screen_Edge","primitives":[{"attributes":{"POSITION":56,"NORMAL":57,"TEXCOORD_0":58},"indices":59,"mode":4}]},{"name":"Flat_shadow","primitives":[{"attributes":{"POSITION":60,"NORMAL":61,"TEXCOORD_0":62},"indices":63,"mode":4}]},{"name":"Long_and_smooth_shadow","primitives":[{"attributes":{"POSITION":64,"NORMAL":65,"TEXCOORD_0":66},"indices":67,"mode":4}]},{"name":"Long_shadow","primitives":[{"attributes":{"POSITION":68,"NORMAL":69,"TEXCOORD_0":70},"indices":71,"mode":4}]},{"name":"Standing_shadow","primitives":[{"attributes":{"POSITION":72,"NORMAL":73,"TEXCOORD_0":74},"indices":75,"mode":4}]},{"name":"rotatoTag","primitives":[{"attributes":{"POSITION":76,"NORMAL":77,"TEXCOORD_0":78},"indices":79,"mode":4}]}],"accessors":[{"bufferView":0,"byteOffset":0,"componentType":5126,"count":6118,"type":"VEC3","min":[-0.03481000289320946,-0.07240505516529083,-0.004642078652977943],"max":[0.034810006618499756,0.07240504771471024,-0.003468342823907733]},{"bufferView":1,"byteOffset":0,"componentType":5126,"count":6118,"type":"VEC3"},{"bufferView":2,"byteOffset":0,"componentType":5126,"count":6118,"type":"VEC2"},{"bufferView":3,"byteOffset":0,"componentType":5123,"count":34956,"type":"SCALAR"},{"bufferView":4,"byteOffset":0,"componentType":5126,"count":384,"type":"VEC3","min":[0.005354993045330048,0.0408799983561039,-0.0052104671485722065],"max":[0.028495006263256073,0.06609001010656357,-0.005210466682910919]},{"bufferView":5,"byteOffset":0,"componentType":5126,"count":384,"type":"VEC3"},{"bufferView":6,"byteOffset":0,"componentType":5126,"count":384,"type":"VEC2"},{"bufferView":7,"byteOffset":0,"componentType":5123,"count":1152,"type":"SCALAR"},{"bufferView":8,"byteOffset":0,"componentType":5126,"count":12170,"type":"VEC3","min":[-0.03575999662280083,-0.07335500419139862,-0.005415335763245821],"max":[0.035760000348091125,0.07335500419139862,0.0036184086930006742]},{"bufferView":9,"byteOffset":0,"componentType":5126,"count":12170,"type":"VEC3"},{"bufferView":10,"byteOffset":0,"componentType":5126,"count":12170,"type":"VEC2"},{"bufferView":11,"byteOffset":0,"componentType":5123,"count":64884,"type":"SCALAR"},{"bufferView":12,"byteOffset":0,"componentType":5126,"count":64,"type":"VEC3","min":[0.007283078506588936,0.061218082904815674,-0.004313347395509481],"max":[0.013216918334364891,0.06715191900730133,-0.004313347395509481]},{"bufferView":13,"byteOffset":0,"componentType":5126,"count":64,"type":"VEC3"},{"bufferView":14,"byteOffset":0,"componentType":5126,"count":64,"type":"VEC2"},{"bufferView":15,"byteOffset":0,"componentType":5123,"count":186,"type":"SCALAR"},{"bufferView":16,"byteOffset":0,"componentType":5126,"count":794,"type":"VEC3","min":[0.0027652624994516373,0.038235265761613846,-0.0053124506957829],"max":[0.031084736809134483,0.06873473525047302,-0.004635324701666832]},{"bufferView":17,"byteOffset":0,"componentType":5126,"count":794,"type":"VEC3"},{"bufferView":18,"byteOffset":0,"componentType":5126,"count":794,"type":"VEC2"},{"bufferView":19,"byteOffset":0,"componentType":5123,"count":2388,"type":"SCALAR"},{"bufferView":20,"byteOffset":0,"componentType":5126,"count":3873,"type":"VEC3","min":[-0.03481000289320946,-0.07240505516529083,-0.004635324236005545],"max":[0.034810006618499756,0.07240504771471024,-0.003508352441713214]},{"bufferView":21,"byteOffset":0,"componentType":5126,"count":3873,"type":"VEC3"},{"bufferView":22,"byteOffset":0,"componentType":5126,"count":3873,"type":"VEC2"},{"bufferView":23,"byteOffset":0,"componentType":5123,"count":22326,"type":"SCALAR"},{"bufferView":24,"byteOffset":0,"componentType":5126,"count":1531,"type":"VEC3","min":[-0.03375467658042908,-0.07134976238012314,0.0036950905341655016],"max":[0.03375467285513878,0.07134975492954254,0.0036951054353266954]},{"bufferView":25,"byteOffset":0,"componentType":5126,"count":1531,"type":"VEC3"},{"bufferView":26,"byteOffset":0,"componentType":5126,"count":1531,"type":"VEC2"},{"bufferView":27,"byteOffset":0,"componentType":5123,"count":8718,"type":"SCALAR"},{"bufferView":28,"byteOffset":0,"componentType":5126,"count":384,"type":"VEC3","min":[0.006375886499881744,0.04274602234363556,-0.005185178946703672],"max":[0.02662898227572441,0.06422398239374161,-0.0028786666225641966]},{"bufferView":29,"byteOffset":0,"componentType":5126,"count":384,"type":"VEC3"},{"bufferView":30,"byteOffset":0,"componentType":5126,"count":384,"type":"VEC2"},{"bufferView":31,"byteOffset":0,"componentType":5123,"count":1152,"type":"SCALAR"},{"bufferView":32,"byteOffset":0,"componentType":5126,"count":1677,"type":"VEC3","min":[0.008280766196548939,0.044098176062107086,-0.0048477500677108765],"max":[0.025277279317378998,0.06277568638324738,-0.0009090243838727474]},{"bufferView":33,"byteOffset":0,"componentType":5126,"count":1677,"type":"VEC3"},{"bufferView":34,"byteOffset":0,"componentType":5126,"count":1677,"type":"VEC2"},{"bufferView":35,"byteOffset":0,"componentType":5123,"count":8640,"type":"SCALAR"},{"bufferView":36,"byteOffset":0,"componentType":5126,"count":64,"type":"VEC3","min":[0.007233563810586929,0.03976856917142868,-0.003655108157545328],"max":[0.013266434893012047,0.04580143839120865,-0.003655108157545328]},{"bufferView":37,"byteOffset":0,"componentType":5126,"count":64,"type":"VEC3"},{"bufferView":38,"byteOffset":0,"componentType":5126,"count":64,"type":"VEC2"},{"bufferView":39,"byteOffset":0,"componentType":5123,"count":186,"type":"SCALAR"},{"bufferView":40,"byteOffset":0,"componentType":5126,"count":1932,"type":"VEC3","min":[-0.035433389246463776,-0.07306474447250366,-0.0021630539558827877],"max":[0.035538624972105026,0.06057877838611603,0.00216305791400373]},{"bufferView":41,"byteOffset":0,"componentType":5126,"count":1932,"type":"VEC3"},{"bufferView":42,"byteOffset":0,"componentType":5126,"count":1932,"type":"VEC2"},{"bufferView":43,"byteOffset":0,"componentType":5123,"count":2898,"type":"SCALAR"},{"bufferView":44,"byteOffset":0,"componentType":5126,"count":64,"type":"VEC3","min":[0.005073467269539833,0.04551847279071808,-0.004347644280642271],"max":[0.00598653219640255,0.0464315339922905,-0.004347644280642271]},{"bufferView":45,"byteOffset":0,"componentType":5126,"count":64,"type":"VEC3"},{"bufferView":46,"byteOffset":0,"componentType":5126,"count":64,"type":"VEC2"},{"bufferView":47,"byteOffset":0,"componentType":5123,"count":186,"type":"SCALAR"},{"bufferView":48,"byteOffset":0,"componentType":5126,"count":2304,"type":"VEC3","min":[0.005078364163637161,0.04060336947441101,-0.0055147139355540276],"max":[0.02877163514494896,0.06636663526296616,-0.001146587310358882]},{"bufferView":49,"byteOffset":0,"componentType":5126,"count":2304,"type":"VEC3"},{"bufferView":50,"byteOffset":0,"componentType":5126,"count":2304,"type":"VEC2"},{"bufferView":51,"byteOffset":0,"componentType":5123,"count":12672,"type":"SCALAR"},{"bufferView":52,"byteOffset":0,"componentType":5126,"count":1531,"type":"VEC3","min":[-0.03375467658042908,-0.07134976238012314,0.003693987848237157],"max":[0.03375467285513878,0.07134975492954254,0.0036940027493983507]},{"bufferView":53,"byteOffset":0,"componentType":5126,"count":1531,"type":"VEC3"},{"bufferView":54,"byteOffset":0,"componentType":5126,"count":1531,"type":"VEC2"},{"bufferView":55,"byteOffset":0,"componentType":5123,"count":8718,"type":"SCALAR"},{"bufferView":56,"byteOffset":0,"componentType":5126,"count":1386,"type":"VEC3","min":[-0.03481000289320946,-0.07240505516529083,0.003508352441713214],"max":[0.034810006618499756,0.07240504771471024,0.0036950905341655016]},{"bufferView":57,"byteOffset":0,"componentType":5126,"count":1386,"type":"VEC3"},{"bufferView":58,"byteOffset":0,"componentType":5126,"count":1386,"type":"VEC2"},{"bufferView":59,"byteOffset":0,"componentType":5123,"count":6468,"type":"SCALAR"},{"bufferView":60,"byteOffset":0,"componentType":5126,"count":4,"type":"VEC3","min":[-0.1467972993850708,0.0,-0.1467972993850708],"max":[0.1467972993850708,0.0,0.1467972993850708]},{"bufferView":61,"byteOffset":0,"componentType":5126,"count":4,"type":"VEC3"},{"bufferView":62,"byteOffset":0,"componentType":5126,"count":4,"type":"VEC2"},{"bufferView":63,"byteOffset":0,"componentType":5123,"count":6,"type":"SCALAR"},{"bufferView":64,"byteOffset":0,"componentType":5126,"count":4,"type":"VEC3","min":[-0.1467972993850708,0.0,-0.1467972993850708],"max":[0.1467972993850708,0.0,0.1467972993850708]},{"bufferView":65,"byteOffset":0,"componentType":5126,"count":4,"type":"VEC3"},{"bufferView":66,"byteOffset":0,"componentType":5126,"count":4,"type":"VEC2"},{"bufferView":67,"byteOffset":0,"componentType":5123,"count":6,"type":"SCALAR"},{"bufferView":68,"byteOffset":0,"componentType":5126,"count":4,"type":"VEC3","min":[-0.1467972993850708,0.0,-0.1467972993850708],"max":[0.1467972993850708,0.0,0.1467972993850708]},{"bufferView":69,"byteOffset":0,"componentType":5126,"count":4,"type":"VEC3"},{"bufferView":70,"byteOffset":0,"componentType":5126,"count":4,"type":"VEC2"},{"bufferView":71,"byteOffset":0,"componentType":5123,"count":6,"type":"SCALAR"},{"bufferView":72,"byteOffset":0,"componentType":5126,"count":4,"type":"VEC3","min":[-0.1467972993850708,0.0,-0.1467972993850708],"max":[0.1467972993850708,0.0,0.1467972993850708]},{"bufferView":73,"byteOffset":0,"componentType":5126,"count":4,"type":"VEC3"},{"bufferView":74,"byteOffset":0,"componentType":5126,"count":4,"type":"VEC2"},{"bufferView":75,"byteOffset":0,"componentType":5123,"count":6,"type":"SCALAR"},{"bufferView":76,"byteOffset":0,"componentType":5126,"count":32,"type":"VEC3","min":[-1.0000003576278687,-2.000000238418579,-7.549790126404332e-08],"max":[1.0000003576278687,2.000000238418579,7.549790126404332e-08]},{"bufferView":77,"byteOffset":0,"componentType":5126,"count":32,"type":"VEC3"},{"bufferView":78,"byteOffset":0,"componentType":5126,"count":32,"type":"VEC2"},{"bufferView":79,"byteOffset":0,"componentType":5123,"count":90,"type":"SCALAR"}],"bufferViews":[{"buffer":0,"byteOffset":0,"byteLength":73416,"target":34962},{"buffer":0,"byteOffset":73416,"byteLength":73416,"target":34962},{"buffer":0,"byteOffset":146832,"byteLength":48944,"target":34962},{"buffer":0,"byteOffset":195776,"byteLength":69912,"target":34963},{"buffer":0,"byteOffset":265688,"byteLength":4608,"target":34962},{"buffer":0,"byteOffset":270296,"byteLength":4608,"target":34962},{"buffer":0,"byteOffset":274904,"byteLength":3072,"target":34962},{"buffer":0,"byteOffset":277976,"byteLength":2304,"target":34963},{"buffer":0,"byteOffset":280280,"byteLength":146040,"target":34962},{"buffer":0,"byteOffset":426320,"byteLength":146040,"target":34962},{"buffer":0,"byteOffset":572360,"byteLength":97360,"target":34962},{"buffer":0,"byteOffset":669720,"byteLength":129768,"target":34963},{"buffer":0,"byteOffset":799488,"byteLength":768,"target":34962},{"buffer":0,"byteOffset":800256,"byteLength":768,"target":34962},{"buffer":0,"byteOffset":801024,"byteLength":512,"target":34962},{"buffer":0,"byteOffset":801536,"byteLength":372,"target":34963},{"buffer":0,"byteOffset":801908,"byteLength":9528,"target":34962},{"buffer":0,"byteOffset":811436,"byteLength":9528,"target":34962},{"buffer":0,"byteOffset":820964,"byteLength":6352,"target":34962},{"buffer":0,"byteOffset":827316,"byteLength":4776,"target":34963},{"buffer":0,"byteOffset":832092,"byteLength":46476,"target":34962},{"buffer":0,"byteOffset":878568,"byteLength":46476,"target":34962},{"buffer":0,"byteOffset":925044,"byteLength":30984,"target":34962},{"buffer":0,"byteOffset":956028,"byteLength":44652,"target":34963},{"buffer":0,"byteOffset":1000680,"byteLength":18372,"target":34962},{"buffer":0,"byteOffset":1019052,"byteLength":18372,"target":34962},{"buffer":0,"byteOffset":1037424,"byteLength":12248,"target":34962},{"buffer":0,"byteOffset":1049672,"byteLength":17436,"target":34963},{"buffer":0,"byteOffset":1067108,"byteLength":4608,"target":34962},{"buffer":0,"byteOffset":1071716,"byteLength":4608,"target":34962},{"buffer":0,"byteOffset":1076324,"byteLength":3072,"target":34962},{"buffer":0,"byteOffset":1079396,"byteLength":2304,"target":34963},{"buffer":0,"byteOffset":1081700,"byteLength":20124,"target":34962},{"buffer":0,"byteOffset":1101824,"byteLength":20124,"target":34962},{"buffer":0,"byteOffset":1121948,"byteLength":13416,"target":34962},{"buffer":0,"byteOffset":1135364,"byteLength":17280,"target":34963},{"buffer":0,"byteOffset":1152644,"byteLength":768,"target":34962},{"buffer":0,"byteOffset":1153412,"byteLength":768,"target":34962},{"buffer":0,"byteOffset":1154180,"byteLength":512,"target":34962},{"buffer":0,"byteOffset":1154692,"byteLength":372,"target":34963},{"buffer":0,"byteOffset":1155064,"byteLength":23184,"target":34962},{"buffer":0,"byteOffset":1178248,"byteLength":23184,"target":34962},{"buffer":0,"byteOffset":1201432,"byteLength":15456,"target":34962},{"buffer":0,"byteOffset":1216888,"byteLength":5796,"target":34963},{"buffer":0,"byteOffset":1222684,"byteLength":768,"target":34962},{"buffer":0,"byteOffset":1223452,"byteLength":768,"target":34962},{"buffer":0,"byteOffset":1224220,"byteLength":512,"target":34962},{"buffer":0,"byteOffset":1224732,"byteLength":372,"target":34963},{"buffer":0,"byteOffset":1225104,"byteLength":27648,"target":34962},{"buffer":0,"byteOffset":1252752,"byteLength":27648,"target":34962},{"buffer":0,"byteOffset":1280400,"byteLength":18432,"target":34962},{"buffer":0,"byteOffset":1298832,"byteLength":25344,"target":34963},{"buffer":0,"byteOffset":1324176,"byteLength":18372,"target":34962},{"buffer":0,"byteOffset":1342548,"byteLength":18372,"target":34962},{"buffer":0,"byteOffset":1360920,"byteLength":12248,"target":34962},{"buffer":0,"byteOffset":1373168,"byteLength":17436,"target":34963},{"buffer":0,"byteOffset":1390604,"byteLength":16632,"target":34962},{"buffer":0,"byteOffset":1407236,"byteLength":16632,"target":34962},{"buffer":0,"byteOffset":1423868,"byteLength":11088,"target":34962},{"buffer":0,"byteOffset":1434956,"byteLength":12936,"target":34963},{"buffer":0,"byteOffset":1447892,"byteLength":48,"target":34962},{"buffer":0,"byteOffset":1447940,"byteLength":48,"target":34962},{"buffer":0,"byteOffset":1447988,"byteLength":32,"target":34962},{"buffer":0,"byteOffset":1448020,"byteLength":12,"target":34963},{"buffer":0,"byteOffset":1448032,"byteLength":48,"target":34962},{"buffer":0,"byteOffset":1448080,"byteLength":48,"target":34962},{"buffer":0,"byteOffset":1448128,"byteLength":32,"target":34962},{"buffer":0,"byteOffset":1448160,"byteLength":12,"target":34963},{"buffer":0,"byteOffset":1448172,"byteLength":48,"target":34962},{"buffer":0,"byteOffset":1448220,"byteLength":48,"target":34962},{"buffer":0,"byteOffset":1448268,"byteLength":32,"target":34962},{"buffer":0,"byteOffset":1448300,"byteLength":12,"target":34963},{"buffer":0,"byteOffset":1448312,"byteLength":48,"target":34962},{"buffer":0,"byteOffset":1448360,"byteLength":48,"target":34962},{"buffer":0,"byteOffset":1448408,"byteLength":32,"target":34962},{"buffer":0,"byteOffset":1448440,"byteLength":12,"target":34963},{"buffer":0,"byteOffset":1448452,"byteLength":384,"target":34962},{"buffer":0,"byteOffset":1448836,"byteLength":384,"target":34962},{"buffer":0,"byteOffset":1449220,"byteLength":256,"target":34962},{"buffer":0,"byteOffset":1449476,"byteLength":180,"target":34963}],"buffers":[{"byteLength":1449656,"uri":"data:application/octet-stream;base64,"}]}