{"asset":{"version":"2.0","generator":"rotato_extract.py"},"scene":0,"scenes":[{"nodes":[0,1,2,3,4,5,6,7,8,9,10,11,12,13,14,15,16,17,18,19]}],"nodes":[{"mesh":0,"name":"Body"},{"mesh":1,"name":"Body_Light_002"},{"mesh":2,"name":"Body_Light_003"},{"mesh":3,"name":"Glass"},{"mesh":4,"name":"Glass_Screen"},{"mesh":5,"name":"Gray"},{"mesh":6,"name":"Lens"},{"mesh":7,"name":"Matte"},{"mesh":8,"name":"Metal"},{"mesh":9,"name":"Power"},{"mesh":10,"name":"Screen"},{"mesh":11,"name":"Screen_Edge"},{"mesh":12,"name":"Screen_Edge_Black"},{"mesh":13,"name":"Screw"},{"mesh":14,"name":"rotatoTag"},{"mesh":15,"name":"Body_Light_001"},{"mesh":16,"name":"Hovering_shadow_plane"},{"mesh":17,"name":"Plane_001"},{"mesh":18,"name":"Plane"},{"mesh":19,"name":"Simple_shadow_plane"}],"meshes":[{"name":"Body","primitives":[{"attributes":{"POSITION":0,"NORMAL":1,"TEXCOORD_0":2},"indices":3,"mode":4}]},{"name":"Body_Light_002","primitives":[{"attributes":{"POSITION":4,"NORMAL":5,"TEXCOORD_0":6},"indices":7,"mode":4}]},{"name":"Body_Light_003","primitives":[{"attributes":{"POSITION":8,"NORMAL":9,"TEXCOORD_0":10},"indices":11,"mode":4}]},{"name":"Glass","primitives":[{"attributes":{"POSITION":12,"NORMAL":13,"TEXCOORD_0":14},"indices":15,"mode":4}]},{"name":"Glass_Screen","primitives":[{"attributes":{"POSITION":16,"NORMAL":17,"TEXCOORD_0":18},"indices":19,"mode":4}]},{"name":"Gray","primitives":[{"attributes":{"POSITION":20,"NORMAL":21,"TEXCOORD_0":22},"indices":23,"mode":4}]},{"name":"Lens","primitives":[{"attributes":{"POSITION":24,"NORMAL":25,"TEXCOORD_0":26},"indices":27,"mode":4}]},{"name":"Matte","primitives":[{"attributes":{"POSITION":28,"NORMAL":29,"TEXCOORD_0":30},"indices":31,"mode":4}]},{"name":"Metal","primitives":[{"attributes":{"POSITION":32,"NORMAL":33,"TEXCOORD_0":34},"indices":35,"mode":4}]},{"name":"Power","primitives":[{"attributes":{"POSITION":36,"NORMAL":37,"TEXCOORD_0":38},"indices":39,"mode":4}]},{"name":"Screen","primitives":[{"attributes":{"POSITION":40,"NORMAL":41,"TEXCOORD_0":42},"indices":43,"mode":4}]},{"name":"Screen_Edge","primitives":[{"attributes":{"POSITION":44,"NORMAL":45,"TEXCOORD_0":46},"indices":47,"mode":4}]},{"name":"Screen_Edge_Black","primitives":[{"attributes":{"POSITION":48,"NORMAL":49,"TEXCOORD_0":50},"indices":51,"mode":4}]},{"name":"Screw","primitives":[{"attributes":{"POSITION":52,"NORMAL":53,"TEXCOORD_0":54},"indices":55,"mode":4}]},{"name":"rotatoTag","primitives":[{"attributes":{"POSITION":56,"NORMAL":57,"TEXCOORD_0":58},"indices":59,"mode":4}]},{"name":"Body_Light_001","primitives":[{"attributes":{"POSITION":60,"NORMAL":61,"TEXCOORD_0":62},"indices":63,"mode":4}]},{"name":"Hovering_shadow_plane","primitives":[{"attributes":{"POSITION":64,"NORMAL":65,"TEXCOORD_0":66},"indices":67,"mode":4}]},{"name":"Plane_001","primitives":[{"attributes":{"POSITION":68,"NORMAL":69,"TEXCOORD_0":70},"indices":71,"mode":4}]},{"name":"Plane","primitives":[{"attributes":{"POSITION":72,"NORMAL":73,"TEXCOORD_0":74},"indices":75,"mode":4}]},{"name":"Simple_shadow_plane","primitives":[{"attributes":{"POSITION":76,"NORMAL":77,"TEXCOORD_0":78},"indices":79,"mode":4}]}],"accessors":[{"bufferView":0,"byteOffset":0,"componentType":5126,"count":13776,"type":"VEC3","min":[-0.2735004425048828,-0.09126909077167511,-0.030279500409960747],"max":[0.2735000252723694,0.27942556142807007,0.031143007799983025]},{"bufferView":1,"byteOffset":0,"componentType":5126,"count":13776,"type":"VEC3"},{"bufferView":2,"byteOffset":0,"componentType":5126,"count":13776,"type":"VEC2"},{"bufferView":3,"byteOffset":0,"componentType":5123,"count":79458,"type":"SCALAR"},{"bufferView":4,"byteOffset":0,"componentType":5126,"count":1399,"type":"VEC3","min":[-0.2735000252723694,-0.13979856669902802,0.014129851013422012],"max":[0.2735000550746918,-0.08865074813365936,0.02983866259455681]},{"bufferView":5,"byteOffset":0,"componentType":5126,"count":1399,"type":"VEC3"},{"bufferView":6,"byteOffset":0,"componentType":5126,"count":1399,"type":"VEC2"},{"bufferView":7,"byteOffset":0,"componentType":5123,"count":3102,"type":"SCALAR"},{"bufferView":8,"byteOffset":0,"componentType":5126,"count":1399,"type":"VEC3","min":[-0.2735000252723694,-0.13979856669902802,0.014129851013422012],"max":[0.2735000550746918,-0.08865074813365936,0.02983866259455681]},{"bufferView":9,"byteOffset":0,"componentType":5126,"count":1399,"type":"VEC3"},{"bufferView":10,"byteOffset":0,"componentType":5126,"count":1399,"type":"VEC2"},{"bufferView":11,"byteOffset":0,"componentType":5123,"count":3102,"type":"SCALAR"},{"bufferView":12,"byteOffset":0,"componentType":5126,"count":92,"type":"VEC3","min":[-0.001831750269047916,0.22215713560581207,-0.021505068987607956],"max":[0.0018309447914361954,0.22578416764736176,-0.02099532261490822]},{"bufferView":13,"byteOffset":0,"componentType":5126,"count":92,"type":"VEC3"},{"bufferView":14,"byteOffset":0,"componentType":5126,"count":92,"type":"VEC2"},{"bufferView":15,"byteOffset":0,"componentType":5123,"count":138,"type":"SCALAR"},{"bufferView":16,"byteOffset":0,"componentType":5126,"count":1394,"type":"VEC3","min":[-0.2614293396472931,-0.07401233911514282,-0.02028261497616768],"max":[0.2615254521369934,0.21708782017230988,0.020628858357667923]},{"bufferView":17,"byteOffset":0,"componentType":5126,"count":1394,"type":"VEC3"},{"bufferView":18,"byteOffset":0,"componentType":5126,"count":1394,"type":"VEC2"},{"bufferView":19,"byteOffset":0,"componentType":5123,"count":2112,"type":"SCALAR"},{"bufferView":20,"byteOffset":0,"componentType":5126,"count":192,"type":"VEC3","min":[-0.0021308984141796827,0.22185185551643372,-0.022441385313868523],"max":[0.0021300932858139277,0.22607135772705078,-0.02101811021566391]},{"bufferView":21,"byteOffset":0,"componentType":5126,"count":192,"type":"VEC3"},{"bufferView":22,"byteOffset":0,"componentType":5126,"count":192,"type":"VEC2"},{"bufferView":23,"byteOffset":0,"componentType":5123,"count":288,"type":"SCALAR"},{"bufferView":24,"byteOffset":0,"componentType":5126,"count":1984,"type":"VEC3","min":[-0.0009823418222367764,0.2228478491306305,-0.02276965044438839],"max":[0.0009818046819418669,0.22479288280010223,-0.021869223564863205]},{"bufferView":25,"byteOffset":0,"componentType":5126,"count":1984,"type":"VEC3"},{"bufferView":26,"byteOffset":0,"componentType":5126,"count":1984,"type":"VEC2"},{"bufferView":27,"byteOffset":0,"componentType":5123,"count":2880,"type":"SCALAR"},{"bufferView":28,"byteOffset":0,"componentType":5126,"count":2240,"type":"VEC3","min":[-0.27328482270240784,-0.12608037889003754,0.015620982274413109],"max":[0.19397953152656555,-0.11008606851100922,0.024533117190003395]},{"bufferView":29,"byteOffset":0,"componentType":5126,"count":2240,"type":"VEC3"},{"bufferView":30,"byteOffset":0,"componentType":5126,"count":2240,"type":"VEC2"},{"bufferView":31,"byteOffset":0,"componentType":5123,"count":12042,"type":"SCALAR"},{"bufferView":32,"byteOffset":0,"componentType":5126,"count":2400,"type":"VEC3","min":[-0.007996100932359695,-0.12290893495082855,0.01533251628279686],"max":[0.007995312102138996,-0.10707314312458038,0.024937527254223824]},{"bufferView":33,"byteOffset":0,"componentType":5126,"count":2400,"type":"VEC3"},{"bufferView":34,"byteOffset":0,"componentType":5126,"count":2400,"type":"VEC2"},{"bufferView":35,"byteOffset":0,"componentType":5123,"count":14250,"type":"SCALAR"},{"bufferView":36,"byteOffset":0,"componentType":5126,"count":192,"type":"VEC3","min":[-0.2526486814022064,-0.1228431910276413,0.01508745364844799],"max":[-0.23894071578979492,-0.10926862061023712,0.017285427078604698]},{"bufferView":37,"byteOffset":0,"componentType":5126,"count":192,"type":"VEC3"},{"bufferView":38,"byteOffset":0,"componentType":5126,"count":192,"type":"VEC2"},{"bufferView":39,"byteOffset":0,"componentType":5123,"count":1002,"type":"SCALAR"},{"bufferView":40,"byteOffset":0,"componentType":5126,"count":1396,"type":"VEC3","min":[-0.2614293396472931,-0.07401233911514282,-0.020349156111478806],"max":[0.2615254521369934,0.21708782017230988,0.020562317222356796]},{"bufferView":41,"byteOffset":0,"componentType":5126,"count":1396,"type":"VEC3"},{"bufferView":42,"byteOffset":0,"componentType":5126,"count":1396,"type":"VEC2"},{"bufferView":43,"byteOffset":0,"componentType":5123,"count":2112,"type":"SCALAR"},{"bufferView":44,"byteOffset":0,"componentType":5126,"count":4286,"type":"VEC3","min":[-0.2735000252723694,-0.08881932497024536,-0.022801049053668976],"max":[0.2735000252723694,0.22966180741786957,0.02268756739795208]},{"bufferView":45,"byteOffset":0,"componentType":5126,"count":4286,"type":"VEC3"},{"bufferView":46,"byteOffset":0,"componentType":5126,"count":4286,"type":"VEC2"},{"bufferView":47,"byteOffset":0,"componentType":5123,"count":6780,"type":"SCALAR"},{"bufferView":48,"byteOffset":0,"componentType":5126,"count":304,"type":"VEC3","min":[-0.26204341650009155,-0.07462044060230255,-0.020368065685033798],"max":[0.26213955879211426,0.2176959216594696,0.02071433700621128]},{"bufferView":49,"byteOffset":0,"componentType":5126,"count":304,"type":"VEC3"},{"bufferView":50,"byteOffset":0,"componentType":5126,"count":304,"type":"VEC2"},{"bufferView":51,"byteOffset":0,"componentType":5123,"count":456,"type":"SCALAR"},{"bufferView":52,"byteOffset":0,"componentType":5126,"count":958,"type":"VEC3","min":[-0.06530166417360306,-0.0557338111102581,-0.007912227883934975],"max":[0.06530166417360306,-0.043974313884973526,0.003847265150398016]},{"bufferView":53,"byteOffset":0,"componentType":5126,"count":958,"type":"VEC3"},{"bufferView":54,"byteOffset":0,"componentType":5126,"count":958,"type":"VEC2"},{"bufferView":55,"byteOffset":0,"componentType":5123,"count":4884,"type":"SCALAR"},{"bufferView":56,"byteOffset":0,"componentType":5126,"count":32,"type":"VEC3","min":[-1.0000003576278687,-2.000000238418579,-7.549790126404332e-08],"max":[1.0000003576278687,2.000000238418579,7.549790126404332e-08]},{"bufferView":57,"byteOffset":0,"componentType":5126,"count":32,"type":"VEC3"},{"bufferView":58,"byteOffset":0,"componentType":5126,"count":32,"type":"VEC2"},{"bufferView":59,"byteOffset":0,"componentType":5123,"count":90,"type":"SCALAR"},{"bufferView":60,"byteOffset":0,"componentType":5126,"count":5382,"type":"VEC3","min":[-0.06569920480251312,-0.2279747724533081,-0.07302374392747879],"max":[0.06569920480251312,-0.042326781898736954,0.07222018390893936]},{"bufferView":61,"byteOffset":0,"componentType":5126,"count":5382,"type":"VEC3"},{"bufferView":62,"byteOffset":0,"componentType":5126,"count":5382,"type":"VEC2"},{"bufferView":63,"byteOffset":0,"componentType":5123,"count":30798,"type":"SCALAR"},{"bufferView":64,"byteOffset":0,"componentType":5126,"count":4,"type":"VEC3","min":[-1.0,0.0,-1.0],"max":[1.0,0.0,1.0]},{"bufferView":65,"byteOffset":0,"componentType":5126,"count":4,"type":"VEC3"},{"bufferView":66,"byteOffset":0,"componentType":5126,"count":4,"type":"VEC2"},{"bufferView":67,"byteOffset":0,"componentType":5123,"count":6,"type":"SCALAR"},{"bufferView":68,"byteOffset":0,"componentType":5126,"count":4,"type":"VEC3","min":[-1.0,0.0,-0.5585007667541504],"max":[1.0,0.0,1.0]},{"bufferView":69,"byteOffset":0,"componentType":5126,"count":4,"type":"VEC3"},{"bufferView":70,"byteOffset":0,"componentType":5126,"count":4,"type":"VEC2"},{"bufferView":71,"byteOffset":0,"componentType":5123,"count":6,"type":"SCALAR"},{"bufferView":72,"byteOffset":0,"componentType":5126,"count":4,"type":"VEC3","min":[-1.0,0.0,-1.0],"max":[1.0,0.0,1.0]},{"bufferView":73,"byteOffset":0,"componentType":5126,"count":4,"type":"VEC3"},{"bufferView":74,"byteOffset":0,"componentType":5126,"count":4,"type":"VEC2"},{"bufferView":75,"byteOffset":0,"componentType":5123,"count":6,"type":"SCALAR"},{"bufferView":76,"byteOffset":0,"componentType":5126,"count":4,"type":"VEC3","min":[-1.0,0.0,-1.0],"max":[1.0,0.0,1.0]},{"bufferView":77,"byteOffset":0,"componentType":5126,"count":4,"type":"VEC3"},{"bufferView":78,"byteOffset":0,"componentType":5126,"count":4,"type":"VEC2"},{"bufferView":79,"byteOffset":0,"componentType":5123,"count":6,"type":"SCALAR"}],"bufferViews":[{"buffer":0,"byteOffset":0,"byteLength":165312,"target":34962},{"buffer":0,"byteOffset":165312,"byteLength":165312,"target":34962},{"buffer":0,"byteOffset":330624,"byteLength":110208,"target":34962},{"buffer":0,"byteOffset":440832,"byteLength":158916,"target":34963},{"buffer":0,"byteOffset":599748,"byteLength":16788,"target":34962},{"buffer":0,"byteOffset":616536,"byteLength":16788,"target":34962},{"buffer":0,"byteOffset":633324,"byteLength":11192,"target":34962},{"buffer":0,"byteOffset":644516,"byteLength":6204,"target":34963},{"buffer":0,"byteOffset":650720,"byteLength":16788,"target":34962},{"buffer":0,"byteOffset":667508,"byteLength":16788,"target":34962},{"buffer":0,"byteOffset":684296,"byteLength":11192,"target":34962},{"buffer":0,"byteOffset":695488,"byteLength":6204,"target":34963},{"buffer":0,"byteOffset":701692,"byteLength":1104,"target":34962},{"buffer":0,"byteOffset":702796,"byteLength":1104,"target":34962},{"buffer":0,"byteOffset":703900,"byteLength":736,"target":34962},{"buffer":0,"byteOffset":704636,"byteLength":276,"target":34963},{"buffer":0,"byteOffset":704912,"byteLength":16728,"target":34962},{"buffer":0,"byteOffset":721640,"byteLength":16728,"target":34962},{"buffer":0,"byteOffset":738368,"byteLength":11152,"target":34962},{"buffer":0,"byteOffset":749520,"byteLength":4224,"target":34963},{"buffer":0,"byteOffset":753744,"byteLength":2304,"target":34962},{"buffer":0,"byteOffset":756048,"byteLength":2304,"target":34962},{"buffer":0,"byteOffset":758352,"byteLength":1536,"target":34962},{"buffer":0,"byteOffset":759888,"byteLength":576,"target":34963},{"buffer":0,"byteOffset":760464,"byteLength":23808,"target":34962},{"buffer":0,"byteOffset":784272,"byteLength":23808,"target":34962},{"buffer":0,"byteOffset":808080,"byteLength":15872,"target":34962},{"buffer":0,"byteOffset":823952,"byteLength":5760,"target":34963},{"buffer":0,"byteOffset":829712,"byteLength":26880,"target":34962},{"buffer":0,"byteOffset":856592,"byteLength":26880,"target":34962},{"buffer":0,"byteOffset":883472,"byteLength":17920,"target":34962},{"buffer":0,"byteOffset":901392,"byteLength":24084,"target":34963},{"buffer":0,"byteOffset":925476,"byteLength":28800,"target":34962},{"buffer":0,"byteOffset":954276,"byteLength":28800,"target":34962},{"buffer":0,"byteOffset":983076,"byteLength":19200,"target":34962},{"buffer":0,"byteOffset":1002276,"byteLength":28500,"target":34963},{"buffer":0,"byteOffset":1030776,"byteLength":2304,"target":34962},{"buffer":0,"byteOffset":1033080,"byteLength":2304,"target":34962},{"buffer":0,"byteOffset":1035384,"byteLength":1536,"target":34962},{"buffer":0,"byteOffset":1036920,"byteLength":2004,"target":34963},{"buffer":0,"byteOffset":1038924,"byteLength":16752,"target":34962},{"buffer":0,"byteOffset":1055676,"byteLength":16752,"target":34962},{"buffer":0,"byteOffset":1072428,"byteLength":11168,"target":34962},{"buffer":0,"byteOffset":1083596,"byteLength":4224,"target":34963},{"buffer":0,"byteOffset":1087820,"byteLength":51432,"target":34962},{"buffer":0,"byteOffset":1139252,"byteLength":51432,"target":34962},{"buffer":0,"byteOffset":1190684,"byteLength":34288,"target":34962},{"buffer":0,"byteOffset":1224972,"byteLength":13560,"target":34963},{"buffer":0,"byteOffset":1238532,"byteLength":3648,"target":34962},{"buffer":0,"byteOffset":1242180,"byteLength":3648,"target":34962},{"buffer":0,"byteOffset":1245828,"byteLength":2432,"target":34962},{"buffer":0,"byteOffset":1248260,"byteLength":912,"target":34963},{"buffer":0,"byteOffset":1249172,"byteLength":11496,"target":34962},{"buffer":0,"byteOffset":1260668,"byteLength":11496,"target":34962},{"buffer":0,"byteOffset":1272164,"byteLength":7664,"target":34962},{"buffer":0,"byteOffset":1279828,"byteLength":9768,"target":34963},{"buffer":0,"byteOffset":1289596,"byteLength":384,"target":34962},{"buffer":0,"byteOffset":1289980,"byteLength":384,"target":34962},{"buffer":0,"byteOffset":1290364,"byteLength":256,"target":34962},{"buffer":0,"byteOffset":1290620,"byteLength":180,"target":34963},{"buffer":0,"byteOffset":1290800,"byteLength":64584,"target":34962},{"buffer":0,"byteOffset":1355384,"byteLength":64584,"target":34962},{"buffer":0,"byteOffset":1419968,"byteLength":43056,"target":34962},{"buffer":0,"byteOffset":1463024,"byteLength":61596,"target":34963},{"buffer":0,"byteOffset":1524620,"byteLength":48,"target":34962},{"buffer":0,"byteOffset":1524668,"byteLength":48,"target":34962},{"buffer":0,"byteOffset":1524716,"byteLength":32,"target":34962},{"buffer":0,"byteOffset":1524748,"byteLength":12,"target":34963},{"buffer":0,"byteOffset":1524760,"byteLength":48,"target":34962},{"buffer":0,"byteOffset":1524808,"byteLength":48,"target":34962},{"buffer":0,"byteOffset":1524856,"byteLength":32,"target":34962},{"buffer":0,"byteOffset":1524888,"byteLength":12,"target":34963},{"buffer":0,"byteOffset":1524900,"byteLength":48,"target":34962},{"buffer":0,"byteOffset":1524948,"byteLength":48,"target":34962},{"buffer":0,"byteOffset":1524996,"byteLength":32,"target":34962},{"buffer":0,"byteOffset":1525028,"byteLength":12,"target":34963},{"buffer":0,"byteOffset":1525040,"byteLength":48,"target":34962},{"buffer":0,"byteOffset":1525088,"byteLength":48,"target":34962},{"buffer":0,"byteOffset":1525136,"byteLength":32,"target":34962},{"buffer":0,"byteOffset":1525168,"byteLength":12,"target":34963}],"buffers":[{"byteLength":1525180,"uri":"data:application/octet-stream;base64,"}]}