{"asset":{"version":"2.0","generator":"rotato_extract.py"},"scene":0,"scenes":[{"nodes":[0,1,2,3,4,5,6,7,8,9,10,11,12,13,14,15,16,17,18,19,20]}],"nodes":[{"mesh":0,"name":"Black"},{"mesh":1,"name":"Camera_Edge"},{"mesh":2,"name":"Charge_Icon"},{"mesh":3,"name":"Edge"},{"mesh":4,"name":"Edge_Antenna"},{"mesh":5,"name":"Flash"},{"mesh":6,"name":"Glass"},{"mesh":7,"name":"Glass_Screen"},{"mesh":8,"name":"Gray"},{"mesh":9,"name":"Lens"},{"mesh":10,"name":"LiDAR"},{"mesh":11,"name":"Matte"},{"mesh":12,"name":"Mic"},{"mesh":13,"name":"Screen"},{"mesh":14,"name":"Screen_Edge"},{"mesh":15,"name":"Flat_shadow"},{"mesh":16,"name":"Long_and_smooth_shadow"},{"mesh":17,"name":"Long_shadow"},{"mesh":18,"name":"Standing_shadow"},{"mesh":19,"name":"Small_Circles"},{"mesh":20,"name":"rotatoTag"}],"meshes":[{"name":"Black","primitives":[{"attributes":{"POSITION":0,"NORMAL":1,"TEXCOORD_0":2},"indices":3,"mode":4}]},{"name":"Camera_Edge","primitives":[{"attributes":{"POSITION":4,"NORMAL":5,"TEXCOORD_0":6},"indices":7,"mode":4}]},{"name":"Charge_Icon","primitives":[{"attributes":{"POSITION":8,"NORMAL":9,"TEXCOORD_0":10},"indices":11,"mode":4}]},{"name":"Edge","primitives":[{"attributes":{"POSITION":12,"NORMAL":13,"TEXCOORD_0":14},"indices":15,"mode":4}]},{"name":"Edge_Antenna","primitives":[{"attributes":{"POSITION":16,"NORMAL":17,"TEXCOORD_0":18},"indices":19,"mode":4}]},{"name":"Flash","primitives":[{"attributes":{"POSITION":20,"NORMAL":21,"TEXCOORD_0":22},"indices":23,"mode":4}]},{"name":"Glass","primitives":[{"attributes":{"POSITION":24,"NORMAL":25,"TEXCOORD_0":26},"indices":27,"mode":4}]},{"name":"Glass_Screen","primitives":[{"attributes":{"POSITION":28,"NORMAL":29,"TEXCOORD_0":30},"indices":31,"mode":4}]},{"name":"Gray","primitives":[{"attributes":{"POSITION":32,"NORMAL":33,"TEXCOORD_0":34},"indices":35,"mode":4}]},{"name":"Lens","primitives":[{"attributes":{"POSITION":36,"NORMAL":37,"TEXCOORD_0":38},"indices":39,"mode":4}]},{"name":"LiDAR","primitives":[{"attributes":{"POSITION":40,"NORMAL":41,"TEXCOORD_0":42},"indices":43,"mode":4}]},{"name":"Matte","primitives":[{"attributes":{"POSITION":44,"NORMAL":45,"TEXCOORD_0":46},"indices":47,"mode":4}]},{"name":"Mic","primitives":[{"attributes":{"POSITION":48,"NORMAL":49,"TEXCOORD_0":50},"indices":51,"mode":4}]},{"name":"Screen","primitives":[{"attributes":{"POSITION":52,"NORMAL":53,"TEXCOORD_0":54},"indices":55,"mode":4}]},{"name":"Screen_Edge","primitives":[{"attributes":{"POSITION":56,"NORMAL":57,"TEXCOORD_0":58},"indices":59,"mode":4}]},{"name":"Flat_shadow","primitives":[{"attributes":{"POSITION":60,"NORMAL":61,"TEXCOORD_0":62},"indices":63,"mode":4}]},{"name":"Long_and_smooth_shadow","primitives":[{"attributes":{"POSITION":64,"NORMAL":65,"TEXCOORD_0":66},"indices":67,"mode":4}]},{"name":"Long_shadow","primitives":[{"attributes":{"POSITION":68,"NORMAL":69,"TEXCOORD_0":70},"indices":71,"mode":4}]},{"name":"Standing_shadow","primitives":[{"attributes":{"POSITION":72,"NORMAL":73,"TEXCOORD_0":74},"indices":75,"mode":4}]},{"name":"Small_Circles","primitives":[{"attributes":{"POSITION":76,"NORMAL":77,"TEXCOORD_0":78},"indices":79,"mode":4}]},{"name":"rotatoTag","primitives":[{"attributes":{"POSITION":80,"NORMAL":81,"TEXCOORD_0":82},"indices":83,"mode":4}]}],"accessors":[{"bufferView":0,"byteOffset":0,"componentType":5126,"count":980,"type":"VEC3","min":[0.05726088583469391,0.09182361513376236,-0.004854124039411545],"max":[0.08285333216190338,0.11741942167282104,-0.0046339621767401695]},{"bufferView":1,"byteOffset":0,"componentType":5126,"count":980,"type":"VEC3"},{"bufferView":2,"byteOffset":0,"componentType":5126,"count":980,"type":"VEC2"},{"bufferView":3,"byteOffset":0,"componentType":5123,"count":2958,"type":"SCALAR"},{"bufferView":4,"byteOffset":0,"componentType":5126,"count":2912,"type":"VEC3","min":[0.07093197107315063,0.09341222792863846,-0.005137961823493242],"max":[0.08121620118618011,0.11579655110836029,-0.003098580986261368]},{"bufferView":5,"byteOffset":0,"componentType":5126,"count":2912,"type":"VEC3"},{"bufferView":6,"byteOffset":0,"componentType":5126,"count":2912,"type":"VEC2"},{"bufferView":7,"byteOffset":0,"componentType":5123,"count":16224,"type":"SCALAR"},{"bufferView":8,"byteOffset":0,"componentType":5126,"count":64,"type":"VEC3","min":[0.08925881236791611,-0.012775649316608906,-0.0017067218432202935],"max":[0.08925881236791611,0.012737677432596684,0.0017067334847524762]},{"bufferView":9,"byteOffset":0,"componentType":5126,"count":64,"type":"VEC3"},{"bufferView":10,"byteOffset":0,"componentType":5126,"count":64,"type":"VEC2"},{"bufferView":11,"byteOffset":0,"componentType":5123,"count":186,"type":"SCALAR"},{"bufferView":12,"byteOffset":0,"componentType":5126,"count":47797,"type":"VEC3","min":[-0.08925779908895493,-0.12381915003061295,-0.004786343313753605],"max":[0.08971699327230453,0.12432333827018738,0.0029539638198912144]},{"bufferView":13,"byteOffset":0,"componentType":5126,"count":47797,"type":"VEC3"},{"bufferView":14,"byteOffset":0,"componentType":5126,"count":47797,"type":"VEC2"},{"bufferView":15,"byteOffset":0,"componentType":5123,"count":267576,"type":"SCALAR"},{"bufferView":16,"byteOffset":0,"componentType":5126,"count":272,"type":"VEC3","min":[-0.08740155398845673,0.10909566283226013,-0.0029669497162103653],"max":[0.08740256726741791,0.122033029794693,-0.0029669497162103653]},{"bufferView":17,"byteOffset":0,"componentType":5126,"count":272,"type":"VEC3"},{"bufferView":18,"byteOffset":0,"componentType":5126,"count":272,"type":"VEC2"},{"bufferView":19,"byteOffset":0,"componentType":5123,"count":552,"type":"SCALAR"},{"bufferView":20,"byteOffset":0,"componentType":5126,"count":200,"type":"VEC3","min":[0.06127920001745224,0.11078985035419464,-0.004559237509965897],"max":[0.06519805639982224,0.11470869183540344,-0.004559237509965897]},{"bufferView":21,"byteOffset":0,"componentType":5126,"count":200,"type":"VEC3"},{"bufferView":22,"byteOffset":0,"componentType":5126,"count":200,"type":"VEC2"},{"bufferView":23,"byteOffset":0,"componentType":5123,"count":306,"type":"SCALAR"},{"bufferView":24,"byteOffset":0,"componentType":5126,"count":772,"type":"VEC3","min":[0.05726088583469391,0.09182361513376236,-0.005081158131361008],"max":[0.08285333216190338,0.11741942167282104,-0.004729106090962887]},{"bufferView":25,"byteOffset":0,"componentType":5126,"count":772,"type":"VEC3"},{"bufferView":26,"byteOffset":0,"componentType":5126,"count":772,"type":"VEC2"},{"bufferView":27,"byteOffset":0,"componentType":5123,"count":2322,"type":"SCALAR"},{"bufferView":28,"byteOffset":0,"componentType":5126,"count":4550,"type":"VEC3","min":[-0.08771351724863052,-0.12227467447519302,0.002953954041004181],"max":[0.0877145305275917,0.12227468192577362,0.002953954041004181]},{"bufferView":29,"byteOffset":0,"componentType":5126,"count":4550,"type":"VEC3"},{"bufferView":30,"byteOffset":0,"componentType":5126,"count":4550,"type":"VEC2"},{"bufferView":31,"byteOffset":0,"componentType":5123,"count":15606,"type":"SCALAR"},{"bufferView":32,"byteOffset":0,"componentType":5126,"count":1664,"type":"VEC3","min":[0.07292338460683823,0.09633774310350418,-0.004816482774913311],"max":[0.07922478765249252,0.1138051301240921,-0.0030558486469089985]},{"bufferView":33,"byteOffset":0,"componentType":5126,"count":1664,"type":"VEC3"},{"bufferView":34,"byteOffset":0,"componentType":5126,"count":1664,"type":"VEC2"},{"bufferView":35,"byteOffset":0,"componentType":5123,"count":8736,"type":"SCALAR"},{"bufferView":36,"byteOffset":0,"componentType":5126,"count":1118,"type":"VEC3","min":[0.07476360350847244,0.0977240577340126,-0.004725976847112179],"max":[0.0773845836520195,0.11196489632129669,-0.0021049990318715572]},{"bufferView":37,"byteOffset":0,"componentType":5126,"count":1118,"type":"VEC3"},{"bufferView":38,"byteOffset":0,"componentType":5126,"count":1118,"type":"VEC2"},{"bufferView":39,"byteOffset":0,"componentType":5123,"count":5760,"type":"SCALAR"},{"bufferView":40,"byteOffset":0,"componentType":5126,"count":204,"type":"VEC3","min":[0.05955055356025696,0.10090988129377365,-0.004679132718592882],"max":[0.06692669540643692,0.10828602313995361,-0.004679132718592882]},{"bufferView":41,"byteOffset":0,"componentType":5126,"count":204,"type":"VEC3"},{"bufferView":42,"byteOffset":0,"componentType":5126,"count":204,"type":"VEC2"},{"bufferView":43,"byteOffset":0,"componentType":5123,"count":306,"type":"SCALAR"},{"bufferView":44,"byteOffset":0,"componentType":5126,"count":465,"type":"VEC3","min":[-80.04704284667969,-119.05561828613281,-1.0000160932540894],"max":[6.509552001953125,1.0,1.0]},{"bufferView":45,"byteOffset":0,"componentType":5126,"count":465,"type":"VEC3"},{"bufferView":46,"byteOffset":0,"componentType":5126,"count":465,"type":"VEC2"},{"bufferView":47,"byteOffset":0,"componentType":5123,"count":2040,"type":"SCALAR"},{"bufferView":48,"byteOffset":0,"componentType":5126,"count":174,"type":"VEC3","min":[0.062182337045669556,0.09555676579475403,-0.004684505984187126],"max":[0.06429491937160492,0.09766935557126999,-0.004684505984187126]},{"bufferView":49,"byteOffset":0,"componentType":5126,"count":174,"type":"VEC3"},{"bufferView":50,"byteOffset":0,"componentType":5126,"count":174,"type":"VEC2"},{"bufferView":51,"byteOffset":0,"componentType":5123,"count":306,"type":"SCALAR"},{"bufferView":52,"byteOffset":0,"componentType":5126,"count":4473,"type":"VEC3","min":[-0.08771351724863052,-0.12227467447519302,0.002925194799900055],"max":[0.0877145305275917,0.12227468192577362,0.002925194799900055]},{"bufferView":53,"byteOffset":0,"componentType":5126,"count":4473,"type":"VEC3"},{"bufferView":54,"byteOffset":0,"componentType":5126,"count":4473,"type":"VEC2"},{"bufferView":55,"byteOffset":0,"componentType":5123,"count":16218,"type":"SCALAR"},{"bufferView":56,"byteOffset":0,"componentType":5126,"count":1304,"type":"VEC3","min":[-0.08828394114971161,-0.12287117540836334,0.002048201858997345],"max":[0.08828495442867279,0.12287119776010513,0.002953954041004181]},{"bufferView":57,"byteOffset":0,"componentType":5126,"count":1304,"type":"VEC3"},{"bufferView":58,"byteOffset":0,"componentType":5126,"count":1304,"type":"VEC2"},{"bufferView":59,"byteOffset":0,"componentType":5123,"count":6846,"type":"SCALAR"},{"bufferView":60,"byteOffset":0,"componentType":5126,"count":4,"type":"VEC3","min":[-0.276719331741333,0.0,-0.276719331741333],"max":[0.276719331741333,0.0,0.276719331741333]},{"bufferView":61,"byteOffset":0,"componentType":5126,"count":4,"type":"VEC3"},{"bufferView":62,"byteOffset":0,"componentType":5126,"count":4,"type":"VEC2"},{"bufferView":63,"byteOffset":0,"componentType":5123,"count":6,"type":"SCALAR"},{"bufferView":64,"byteOffset":0,"componentType":5126,"count":4,"type":"VEC3","min":[-0.276719331741333,0.0,-0.276719331741333],"max":[0.276719331741333,0.0,0.276719331741333]},{"bufferView":65,"byteOffset":0,"componentType":5126,"count":4,"type":"VEC3"},{"bufferView":66,"byteOffset":0,"componentType":5126,"count":4,"type":"VEC2"},{"bufferView":67,"byteOffset":0,"componentType":5123,"count":6,"type":"SCALAR"},{"bufferView":68,"byteOffset":0,"componentType":5126,"count":4,"type":"VEC3","min":[-0.276719331741333,0.0,-0.276719331741333],"max":[0.276719331741333,0.0,0.276719331741333]},{"bufferView":69,"byteOffset":0,"componentType":5126,"count":4,"type":"VEC3"},{"bufferView":70,"byteOffset":0,"componentType":5126,"count":4,"type":"VEC2"},{"bufferView":71,"byteOffset":0,"componentType":5123,"count":6,"type":"SCALAR"},{"bufferView":72,"byteOffset":0,"componentType":5126,"count":4,"type":"VEC3","min":[-0.276719331741333,0.0,-0.276719331741333],"max":[0.276719331741333,0.0,0.276719331741333]},{"bufferView":73,"byteOffset":0,"componentType":5126,"count":4,"type":"VEC3"},{"bufferView":74,"byteOffset":0,"componentType":5126,"count":4,"type":"VEC2"},{"bufferView":75,"byteOffset":0,"componentType":5123,"count":6,"type":"SCALAR"},{"bufferView":76,"byteOffset":0,"componentType":5126,"count":180,"type":"VEC3","min":[-0.006809286307543516,-0.11368440836668015,-0.002958486555144191],"max":[0.006707706023007631,-0.11006849259138107,-0.002958486322313547]},{"bufferView":77,"byteOffset":0,"componentType":5126,"count":180,"type":"VEC3"},{"bufferView":78,"byteOffset":0,"componentType":5126,"count":180,"type":"VEC2"},{"bufferView":79,"byteOffset":0,"componentType":5123,"count":270,"type":"SCALAR"},{"bufferView":80,"byteOffset":0,"componentType":5126,"count":32,"type":"VEC3","min":[-1.0000003576278687,-2.000000238418579,-7.549790126404332e-08],"max":[1.0000003576278687,2.000000238418579,7.549790126404332e-08]},{"bufferView":81,"byteOffset":0,"componentType":5126,"count":32,"type":"VEC3"},{"bufferView":82,"byteOffset":0,"componentType":5126,"count":32,"type":"VEC2"},{"bufferView":83,"byteOffset":0,"componentType":5123,"count":90,"type":"SCALAR"}],"bufferViews":[{"buffer":0,"byteOffset":0,"byteLength":11760,"target":34962},{"buffer":0,"byteOffset":11760,"byteLength":11760,"target":34962},{"buffer":0,"byteOffset":23520,"byteLength":7840,"target":34962},{"buffer":0,"byteOffset":31360,"byteLength":5916,"target":34963},{"buffer":0,"byteOffset":37276,"byteLength":34944,"target":34962},{"buffer":0,"byteOffset":72220,"byteLength":34944,"target":34962},{"buffer":0,"byteOffset":107164,"byteLength":23296,"target":34962},{"buffer":0,"byteOffset":130460,"byteLength":32448,"target":34963},{"buffer":0,"byteOffset":162908,"byteLength":768,"target":34962},{"buffer":0,"byteOffset":163676,"byteLength":768,"target":34962},{"buffer":0,"byteOffset":164444,"byteLength":512,"target":34962},{"buffer":0,"byteOffset":164956,"byteLength":372,"target":34963},{"buffer":0,"byteOffset":165328,"byteLength":573564,"target":34962},{"buffer":0,"byteOffset":738892,"byteLength":573564,"target":34962},{"buffer":0,"byteOffset":1312456,"byteLength":382376,"target":34962},{"buffer":0,"byteOffset":1694832,"byteLength":535152,"target":34963},{"buffer":0,"byteOffset":2229984,"byteLength":3264,"target":34962},{"buffer":0,"byteOffset":2233248,"byteLength":3264,"target":34962},{"buffer":0,"byteOffset":2236512,"byteLength":2176,"target":34962},{"buffer":0,"byteOffset":2238688,"byteLength":1104,"target":34963},{"buffer":0,"byteOffset":2239792,"byteLength":2400,"target":34962},{"buffer":0,"byteOffset":2242192,"byteLength":2400,"target":34962},{"buffer":0,"byteOffset":2244592,"byteLength":1600,"target":34962},{"buffer":0,"byteOffset":2246192,"byteLength":612,"target":34963},{"buffer":0,"byteOffset":2246804,"byteLength":9264,"target":34962},{"buffer":0,"byteOffset":2256068,"byteLength":9264,"target":34962},{"buffer":0,"byteOffset":2265332,"byteLength":6176,"target":34962},{"buffer":0,"byteOffset":2271508,"byteLength":4644,"target":34963},{"buffer":0,"byteOffset":2276152,"byteLength":54600,"target":34962},{"buffer":0,"byteOffset":2330752,"byteLength":54600,"target":34962},{"buffer":0,"byteOffset":2385352,"byteLength":36400,"target":34962},{"buffer":0,"byteOffset":2421752,"byteLength":31212,"target":34963},{"buffer":0,"byteOffset":2452964,"byteLength":19968,"target":34962},{"buffer":0,"byteOffset":2472932,"byteLength":19968,"target":34962},{"buffer":0,"byteOffset":2492900,"byteLength":13312,"target":34962},{"buffer":0,"byteOffset":2506212,"byteLength":17472,"target":34963},{"buffer":0,"byteOffset":2523684,"byteLength":13416,"target":34962},{"buffer":0,"byteOffset":2537100,"byteLength":13416,"target":34962},{"buffer":0,"byteOffset":2550516,"byteLength":8944,"target":34962},{"buffer":0,"byteOffset":2559460,"byteLength":11520,"target":34963},{"buffer":0,"byteOffset":2570980,"byteLength":2448,"target":34962},{"buffer":0,"byteOffset":2573428,"byteLength":2448,"target":34962},{"buffer":0,"byteOffset":2575876,"byteLength":1632,"target":34962},{"buffer":0,"byteOffset":2577508,"byteLength":612,"target":34963},{"buffer":0,"byteOffset":2578120,"byteLength":5580,"target":34962},{"buffer":0,"byteOffset":2583700,"byteLength":5580,"target":34962},{"buffer":0,"byteOffset":2589280,"byteLength":3720,"target":34962},{"buffer":0,"byteOffset":2593000,"byteLength":4080,"target":34963},{"buffer":0,"byteOffset":2597080,"byteLength":2088,"target":34962},{"buffer":0,"byteOffset":2599168,"byteLength":2088,"target":34962},{"buffer":0,"byteOffset":2601256,"byteLength":1392,"target":34962},{"buffer":0,"byteOffset":2602648,"byteLength":612,"target":34963},{"buffer":0,"byteOffset":2603260,"byteLength":53676,"target":34962},{"buffer":0,"byteOffset":2656936,"byteLength":53676,"target":34962},{"buffer":0,"byteOffset":2710612,"byteLength":35784,"target":34962},{"buffer":0,"byteOffset":2746396,"byteLength":32436,"target":34963},{"buffer":0,"byteOffset":2778832,"byteLength":15648,"target":34962},{"buffer":0,"byteOffset":2794480,"byteLength":15648,"target":34962},{"buffer":0,"byteOffset":2810128,"byteLength":10432,"target":34962},{"buffer":0,"byteOffset":2820560,"byteLength":13692,"target":34963},{"buffer":0,"byteOffset":2834252,"byteLength":48,"target":34962},{"buffer":0,"byteOffset":2834300,"byteLength":48,"target":34962},{"buffer":0,"byteOffset":2834348,"byteLength":32,"target":34962},{"buffer":0,"byteOffset":2834380,"byteLength":12,"target":34963},{"buffer":0,"byteOffset":2834392,"byteLength":48,"target":34962},{"buffer":0,"byteOffset":2834440,"byteLength":48,"target":34962},{"buffer":0,"byteOffset":2834488,"byteLength":32,"target":34962},{"buffer":0,"byteOffset":2834520,"byteLength":12,"target":34963},{"buffer":0,"byteOffset":2834532,"byteLength":48,"target":34962},{"buffer":0,"byteOffset":2834580,"byteLength":48,"target":34962},{"buffer":0,"byteOffset":2834628,"byteLength":32,"target":34962},{"buffer":0,"byteOffset":2834660,"byteLength":12,"target":34963},{"buffer":0,"byteOffset":2834672,"byteLength":48,"target":34962},{"buffer":0,"byteOffset":2834720,"byteLength":48,"target":34962},{"buffer":0,"byteOffset":2834768,"byteLength":32,"target":34962},{"buffer":0,"byteOffset":2834800,"byteLength":12,"target":34963},{"buffer":0,"byteOffset":2834812,"byteLength":2160,"target":34962},{"buffer":0,"byteOffset":2836972,"byteLength":2160,"target":34962},{"buffer":0,"byteOffset":2839132,"byteLength":1440,"target":34962},{"buffer":0,"byteOffset":2840572,"byteLength":540,"target":34963},{"buffer":0,"byteOffset":2841112,"byteLength":384,"target":34962},{"buffer":0,"byteOffset":2841496,"byteLength":384,"target":34962},{"buffer":0,"byteOffset":2841880,"byteLength":256,"target":34962},{"buffer":0,"byteOffset":2842136,"byteLength":180,"target":34963}],"buffers":[{"byteLength":2842316,"uri":"data:application/octet-stream;base64,"}]}