{"asset":{"version":"2.0","generator":"rotato_extract.py"},"scene":0,"scenes":[{"nodes":[0,1,2,3,4,5,6,7,8,9,10,11,12,13,14,15,16,17,18]}],"nodes":[{"mesh":0,"name":"Black"},{"mesh":1,"name":"Body"},{"mesh":2,"name":"Charge_Window"},{"mesh":3,"name":"Flash"},{"mesh":4,"name":"Glass_Lens"},{"mesh":5,"name":"Glass_Screen"},{"mesh":6,"name":"Gray"},{"mesh":7,"name":"Lens"},{"mesh":8,"name":"Matte"},{"mesh":9,"name":"Mic"},{"mesh":10,"name":"Plastic"},{"mesh":11,"name":"Screen"},{"mesh":12,"name":"Screen_Edge"},{"mesh":13,"name":"Flat_shadow"},{"mesh":14,"name":"Long_and_smooth_shadow"},{"mesh":15,"name":"Long_shadow"},{"mesh":16,"name":"Standing_shadow"},{"mesh":17,"name":"Touch_ID"},{"mesh":18,"name":"rotatoTag"}],"meshes":[{"name":"Black","primitives":[{"attributes":{"POSITION":0,"NORMAL":1,"TEXCOORD_0":2},"indices":3,"mode":4}]},{"name":"Body","primitives":[{"attributes":{"POSITION":4,"NORMAL":5,"TEXCOORD_0":6},"indices":7,"mode":4}]},{"name":"Charge_Window","primitives":[{"attributes":{"POSITION":8,"NORMAL":9,"TEXCOORD_0":10},"indices":11,"mode":4}]},{"name":"Flash","primitives":[{"attributes":{"POSITION":12,"NORMAL":13,"TEXCOORD_0":14},"indices":15,"mode":4}]},{"name":"Glass_Lens","primitives":[{"attributes":{"POSITION":16,"NORMAL":17,"TEXCOORD_0":18},"indices":19,"mode":4}]},{"name":"Glass_Screen","primitives":[{"attributes":{"POSITION":20,"NORMAL":21,"TEXCOORD_0":22},"indices":23,"mode":4}]},{"name":"Gray","primitives":[{"attributes":{"POSITION":24,"NORMAL":25,"TEXCOORD_0":26},"indices":27,"mode":4}]},{"name":"Lens","primitives":[{"attributes":{"POSITION":28,"NORMAL":29,"TEXCOORD_0":30},"indices":31,"mode":4}]},{"name":"Matte","primitives":[{"attributes":{"POSITION":32,"NORMAL":33,"TEXCOORD_0":34},"indices":35,"mode":4}]},{"name":"Mic","primitives":[{"attributes":{"POSITION":36,"NORMAL":37,"TEXCOORD_0":38},"indices":39,"mode":4}]},{"name":"Plastic","primitives":[{"attributes":{"POSITION":40,"NORMAL":41,"TEXCOORD_0":42},"indices":43,"mode":4}]},{"name":"Screen","primitives":[{"attributes":{"POSITION":44,"NORMAL":45,"TEXCOORD_0":46},"indices":47,"mode":4}]},{"name":"Screen_Edge","primitives":[{"attributes":{"POSITION":48,"NORMAL":49,"TEXCOORD_0":50},"indices":51,"mode":4}]},{"name":"Flat_shadow","primitives":[{"attributes":{"POSITION":52,"NORMAL":53,"TEXCOORD_0":54},"indices":55,"mode":4}]},{"name":"Long_and_smooth_shadow","primitives":[{"attributes":{"POSITION":56,"NORMAL":57,"TEXCOORD_0":58},"indices":59,"mode":4}]},{"name":"Long_shadow","primitives":[{"attributes":{"POSITION":60,"NORMAL":61,"TEXCOORD_0":62},"indices":63,"mode":4}]},{"name":"Standing_shadow","primitives":[{"attributes":{"POSITION":64,"NORMAL":65,"TEXCOORD_0":66},"indices":67,"mode":4}]},{"name":"Touch_ID","primitives":[{"attributes":{"POSITION":68,"NORMAL":69,"TEXCOORD_0":70},"indices":71,"mode":4}]},{"name":"rotatoTag","primitives":[{"attributes":{"POSITION":72,"NORMAL":73,"TEXCOORD_0":74},"indices":75,"mode":4}]}],"accessors":[{"bufferView":0,"byteOffset":0,"componentType":5126,"count":128,"type":"VEC3","min":[0.04973500594496727,0.08007499575614929,-0.004621241241693497],"max":[0.05962500721216202,0.08996501564979553,-0.004621002823114395]},{"bufferView":1,"byteOffset":0,"componentType":5126,"count":128,"type":"VEC3"},{"bufferView":2,"byteOffset":0,"componentType":5126,"count":128,"type":"VEC2"},{"bufferView":3,"byteOffset":0,"componentType":5123,"count":384,"type":"SCALAR"},{"bufferView":4,"byteOffset":0,"componentType":5126,"count":43345,"type":"VEC3","min":[-0.06737500429153442,-0.09771564602851868,-0.0046922615729272366],"max":[0.06737508624792099,0.09813599288463593,0.003155575832352042]},{"bufferView":5,"byteOffset":0,"componentType":5126,"count":43345,"type":"VEC3"},{"bufferView":6,"byteOffset":0,"componentType":5126,"count":43345,"type":"VEC2"},{"bufferView":7,"byteOffset":0,"componentType":5123,"count":248517,"type":"SCALAR"},{"bufferView":8,"byteOffset":0,"componentType":5126,"count":136,"type":"VEC3","min":[0.06729412078857422,-0.012731555849313736,-0.0019512734143063426],"max":[0.06729412078857422,0.012723837979137897,0.0019512734143063426]},{"bufferView":9,"byteOffset":0,"componentType":5126,"count":136,"type":"VEC3"},{"bufferView":10,"byteOffset":0,"componentType":5126,"count":136,"type":"VEC2"},{"bufferView":11,"byteOffset":0,"componentType":5123,"count":606,"type":"SCALAR"},{"bufferView":12,"byteOffset":0,"componentType":5126,"count":64,"type":"VEC3","min":[0.05280500650405884,0.06822500377893448,-0.0030493736267089844],"max":[0.05655501037836075,0.07197500020265579,-0.0030492544174194336]},{"bufferView":13,"byteOffset":0,"componentType":5126,"count":64,"type":"VEC3"},{"bufferView":14,"byteOffset":0,"componentType":5126,"count":64,"type":"VEC2"},{"bufferView":15,"byteOffset":0,"componentType":5123,"count":186,"type":"SCALAR"},{"bufferView":16,"byteOffset":0,"componentType":5126,"count":128,"type":"VEC3","min":[-0.0017599991988390684,0.08007499575614929,-0.004752252250909805],"max":[0.05962500721216202,0.09509500861167908,0.0031861066818237305]},{"bufferView":17,"byteOffset":0,"componentType":5126,"count":128,"type":"VEC3"},{"bufferView":18,"byteOffset":0,"componentType":5126,"count":128,"type":"VEC2"},{"bufferView":19,"byteOffset":0,"componentType":5123,"count":372,"type":"SCALAR"},{"bufferView":20,"byteOffset":0,"componentType":5126,"count":1749,"type":"VEC3","min":[-0.05851779133081436,-0.08885779976844788,0.0031864517368376255],"max":[0.058517780154943466,0.08885779976844788,0.0031864517368376255]},{"bufferView":21,"byteOffset":0,"componentType":5126,"count":1749,"type":"VEC3"},{"bufferView":22,"byteOffset":0,"componentType":5126,"count":1749,"type":"VEC2"},{"bufferView":23,"byteOffset":0,"componentType":5123,"count":9984,"type":"SCALAR"},{"bufferView":24,"byteOffset":0,"componentType":5126,"count":256,"type":"VEC3","min":[-0.0018854766385629773,0.08281733840703964,-0.004465835634618998],"max":[0.05688266083598137,0.09522048383951187,0.00315703172236681]},{"bufferView":25,"byteOffset":0,"componentType":5126,"count":256,"type":"VEC3"},{"bufferView":26,"byteOffset":0,"componentType":5126,"count":256,"type":"VEC2"},{"bufferView":27,"byteOffset":0,"componentType":5123,"count":768,"type":"SCALAR"},{"bufferView":28,"byteOffset":0,"componentType":5126,"count":937,"type":"VEC3","min":[-0.0007028126856312156,0.08406180888414383,-0.004280955530703068],"max":[0.05563817545771599,0.09403782337903976,0.0030119544826447964]},{"bufferView":29,"byteOffset":0,"componentType":5126,"count":937,"type":"VEC3"},{"bufferView":30,"byteOffset":0,"componentType":5126,"count":937,"type":"VEC2"},{"bufferView":31,"byteOffset":0,"componentType":5123,"count":4602,"type":"SCALAR"},{"bufferView":32,"byteOffset":0,"componentType":5126,"count":261,"type":"VEC3","min":[-0.055442821234464645,-0.09734185039997101,-0.002447618404403329],"max":[0.06719809770584106,0.09734183549880981,0.0024476272519677877]},{"bufferView":33,"byteOffset":0,"componentType":5126,"count":261,"type":"VEC3"},{"bufferView":34,"byteOffset":0,"componentType":5126,"count":261,"type":"VEC2"},{"bufferView":35,"byteOffset":0,"componentType":5123,"count":990,"type":"SCALAR"},{"bufferView":36,"byteOffset":0,"componentType":5126,"count":64,"type":"VEC3","min":[0.0538800023496151,0.07453001290559769,-0.0026289522647857666],"max":[0.055480003356933594,0.07613001018762589,-0.002628713846206665]},{"bufferView":37,"byteOffset":0,"componentType":5126,"count":64,"type":"VEC3"},{"bufferView":38,"byteOffset":0,"componentType":5126,"count":64,"type":"VEC2"},{"bufferView":39,"byteOffset":0,"componentType":5123,"count":186,"type":"SCALAR"},{"bufferView":40,"byteOffset":0,"componentType":5126,"count":1448,"type":"VEC3","min":[-0.004277655389159918,-0.09761092066764832,-0.004840146750211716],"max":[0.059950005263090134,0.09029000252485275,0.0012994641438126564]},{"bufferView":41,"byteOffset":0,"componentType":5126,"count":1448,"type":"VEC3"},{"bufferView":42,"byteOffset":0,"componentType":5126,"count":1448,"type":"VEC2"},{"bufferView":43,"byteOffset":0,"componentType":5123,"count":7896,"type":"SCALAR"},{"bufferView":44,"byteOffset":0,"componentType":5126,"count":1749,"type":"VEC3","min":[-0.05851779133081436,-0.08885779976844788,0.003171058837324381],"max":[0.058517780154943466,0.08885779976844788,0.003171058837324381]},{"bufferView":45,"byteOffset":0,"componentType":5126,"count":1749,"type":"VEC3"},{"bufferView":46,"byteOffset":0,"componentType":5126,"count":1749,"type":"VEC2"},{"bufferView":47,"byteOffset":0,"componentType":5123,"count":9984,"type":"SCALAR"},{"bufferView":48,"byteOffset":0,"componentType":5126,"count":4039,"type":"VEC3","min":[-0.06625501066446304,-0.09659501910209656,0.003045454854145646],"max":[0.06625501066446304,0.09659501910209656,0.0031864517368376255]},{"bufferView":49,"byteOffset":0,"componentType":5126,"count":4039,"type":"VEC3"},{"bufferView":50,"byteOffset":0,"componentType":5126,"count":4039,"type":"VEC2"},{"bufferView":51,"byteOffset":0,"componentType":5123,"count":23040,"type":"SCALAR"},{"bufferView":52,"byteOffset":0,"componentType":5126,"count":4,"type":"VEC3","min":[-0.2695315480232239,0.0,-0.2695315480232239],"max":[0.2695315480232239,0.0,0.2695315480232239]},{"bufferView":53,"byteOffset":0,"componentType":5126,"count":4,"type":"VEC3"},{"bufferView":54,"byteOffset":0,"componentType":5126,"count":4,"type":"VEC2"},{"bufferView":55,"byteOffset":0,"componentType":5123,"count":6,"type":"SCALAR"},{"bufferView":56,"byteOffset":0,"componentType":5126,"count":4,"type":"VEC3","min":[-0.2695315480232239,0.0,-0.2695315480232239],"max":[0.2695315480232239,0.0,0.2695315480232239]},{"bufferView":57,"byteOffset":0,"componentType":5126,"count":4,"type":"VEC3"},{"bufferView":58,"byteOffset":0,"componentType":5126,"count":4,"type":"VEC2"},{"bufferView":59,"byteOffset":0,"componentType":5123,"count":6,"type":"SCALAR"},{"bufferView":60,"byteOffset":0,"componentType":5126,"count":4,"type":"VEC3","min":[-0.2695315480232239,0.0,-0.2695315480232239],"max":[0.2695315480232239,0.0,0.2695315480232239]},{"bufferView":61,"byteOffset":0,"componentType":5126,"count":4,"type":"VEC3"},{"bufferView":62,"byteOffset":0,"componentType":5126,"count":4,"type":"VEC2"},{"bufferView":63,"byteOffset":0,"componentType":5123,"count":6,"type":"SCALAR"},{"bufferView":64,"byteOffset":0,"componentType":5126,"count":4,"type":"VEC3","min":[-0.2695315480232239,0.0,-0.2695315480232239],"max":[0.2695315480232239,0.0,0.2695315480232239]},{"bufferView":65,"byteOffset":0,"componentType":5126,"count":4,"type":"VEC3"},{"bufferView":66,"byteOffset":0,"componentType":5126,"count":4,"type":"VEC2"},{"bufferView":67,"byteOffset":0,"componentType":5123,"count":6,"type":"SCALAR"},{"bufferView":68,"byteOffset":0,"componentType":5126,"count":71,"type":"VEC3","min":[0.03791876509785652,0.0981348380446434,-0.0016257631359621882],"max":[0.05439789220690727,0.09813599288463593,0.0016257651150226593]},{"bufferView":69,"byteOffset":0,"componentType":5126,"count":71,"type":"VEC3"},{"bufferView":70,"byteOffset":0,"componentType":5126,"count":71,"type":"VEC2"},{"bufferView":71,"byteOffset":0,"componentType":5123,"count":207,"type":"SCALAR"},{"bufferView":72,"byteOffset":0,"componentType":5126,"count":32,"type":"VEC3","min":[-1.0000003576278687,-2.000000238418579,-7.549790126404332e-08],"max":[1.0000003576278687,2.000000238418579,7.549790126404332e-08]},{"bufferView":73,"byteOffset":0,"componentType":5126,"count":32,"type":"VEC3"},{"bufferView":74,"byteOffset":0,"componentType":5126,"count":32,"type":"VEC2"},{"bufferView":75,"byteOffset":0,"componentType":5123,"count":90,"type":"SCALAR"}],"bufferViews":[{"buffer":0,"byteOffset":0,"byteLength":1536,"target":34962},{"buffer":0,"byteOffset":1536,"byteLength":1536,"target":34962},{"buffer":0,"byteOffset":3072,"byteLength":1024,"target":34962},{"buffer":0,"byteOffset":4096,"byteLength":768,"target":34963},{"buffer":0,"byteOffset":4864,"byteLength":520140,"target":34962},{"buffer":0,"byteOffset":525004,"byteLength":520140,"target":34962},{"buffer":0,"byteOffset":1045144,"byteLength":346760,"target":34962},{"buffer":0,"byteOffset":1391904,"byteLength":497034,"target":34963},{"buffer":0,"byteOffset":1888940,"byteLength":1632,"target":34962},{"buffer":0,"byteOffset":1890572,"byteLength":1632,"target":34962},{"buffer":0,"byteOffset":1892204,"byteLength":1088,"target":34962},{"buffer":0,"byteOffset":1893292,"byteLength":1212,"target":34963},{"buffer":0,"byteOffset":1894504,"byteLength":768,"target":34962},{"buffer":0,"byteOffset":1895272,"byteLength":768,"target":34962},{"buffer":0,"byteOffset":1896040,"byteLength":512,"target":34962},{"buffer":0,"byteOffset":1896552,"byteLength":372,"target":34963},{"buffer":0,"byteOffset":1896924,"byteLength":1536,"target":34962},{"buffer":0,"byteOffset":1898460,"byteLength":1536,"target":34962},{"buffer":0,"byteOffset":1899996,"byteLength":1024,"target":34962},{"buffer":0,"byteOffset":1901020,"byteLength":744,"target":34963},{"buffer":0,"byteOffset":1901764,"byteLength":20988,"target":34962},{"buffer":0,"byteOffset":1922752,"byteLength":20988,"target":34962},{"buffer":0,"byteOffset":1943740,"byteLength":13992,"target":34962},{"buffer":0,"byteOffset":1957732,"byteLength":19968,"target":34963},{"buffer":0,"byteOffset":1977700,"byteLength":3072,"target":34962},{"buffer":0,"byteOffset":1980772,"byteLength":3072,"target":34962},{"buffer":0,"byteOffset":1983844,"byteLength":2048,"target":34962},{"buffer":0,"byteOffset":1985892,"byteLength":1536,"target":34963},{"buffer":0,"byteOffset":1987428,"byteLength":11244,"target":34962},{"buffer":0,"byteOffset":1998672,"byteLength":11244,"target":34962},{"buffer":0,"byteOffset":2009916,"byteLength":7496,"target":34962},{"buffer":0,"byteOffset":2017412,"byteLength":9204,"target":34963},{"buffer":0,"byteOffset":2026616,"byteLength":3132,"target":34962},{"buffer":0,"byteOffset":2029748,"byteLength":3132,"target":34962},{"buffer":0,"byteOffset":2032880,"byteLength":2088,"target":34962},{"buffer":0,"byteOffset":2034968,"byteLength":1980,"target":34963},{"buffer":0,"byteOffset":2036948,"byteLength":768,"target":34962},{"buffer":0,"byteOffset":2037716,"byteLength":768,"target":34962},{"buffer":0,"byteOffset":2038484,"byteLength":512,"target":34962},{"buffer":0,"byteOffset":2038996,"byteLength":372,"target":34963},{"buffer":0,"byteOffset":2039368,"byteLength":17376,"target":34962},{"buffer":0,"byteOffset":2056744,"byteLength":17376,"target":34962},{"buffer":0,"byteOffset":2074120,"byteLength":11584,"target":34962},{"buffer":0,"byteOffset":2085704,"byteLength":15792,"target":34963},{"buffer":0,"byteOffset":2101496,"byteLength":20988,"target":34962},{"buffer":0,"byteOffset":2122484,"byteLength":20988,"target":34962},{"buffer":0,"byteOffset":2143472,"byteLength":13992,"target":34962},{"buffer":0,"byteOffset":2157464,"byteLength":19968,"target":34963},{"buffer":0,"byteOffset":2177432,"byteLength":48468,"target":34962},{"buffer":0,"byteOffset":2225900,"byteLength":48468,"target":34962},{"buffer":0,"byteOffset":2274368,"byteLength":32312,"target":34962},{"buffer":0,"byteOffset":2306680,"byteLength":46080,"target":34963},{"buffer":0,"byteOffset":2352760,"byteLength":48,"target":34962},{"buffer":0,"byteOffset":2352808,"byteLength":48,"target":34962},{"buffer":0,"byteOffset":2352856,"byteLength":32,"target":34962},{"buffer":0,"byteOffset":2352888,"byteLength":12,"target":34963},{"buffer":0,"byteOffset":2352900,"byteLength":48,"target":34962},{"buffer":0,"byteOffset":2352948,"byteLength":48,"target":34962},{"buffer":0,"byteOffset":2352996,"byteLength":32,"target":34962},{"buffer":0,"byteOffset":2353028,"byteLength":12,"target":34963},{"buffer":0,"byteOffset":2353040,"byteLength":48,"target":34962},{"buffer":0,"byteOffset":2353088,"byteLength":48,"target":34962},{"buffer":0,"byteOffset":2353136,"byteLength":32,"target":34962},{"buffer":0,"byteOffset":2353168,"byteLength":12,"target":34963},{"buffer":0,"byteOffset":2353180,"byteLength":48,"target":34962},{"buffer":0,"byteOffset":2353228,"byteLength":48,"target":34962},{"buffer":0,"byteOffset":2353276,"byteLength":32,"target":34962},{"buffer":0,"byteOffset":2353308,"byteLength":12,"target":34963},{"buffer":0,"byteOffset":2353320,"byteLength":852,"target":34962},{"buffer":0,"byteOffset":2354172,"byteLength":852,"target":34962},{"buffer":0,"byteOffset":2355024,"byteLength":568,"target":34962},{"buffer":0,"byteOffset":2355592,"byteLength":414,"target":34963},{"buffer":0,"byteOffset":2356008,"byteLength":384,"target":34962},{"buffer":0,"byteOffset":2356392,"byteLength":384,"target":34962},{"buffer":0,"byteOffset":2356776,"byteLength":256,"target":34962},{"buffer":0,"byteOffset":2357032,"byteLength":180,"target":34963}],"buffers":[{"byteLength":2357212,"uri":"data:application/octet-stream;base64,"}]}