{"asset": {"version": "2.0", "generator": "rotato_extract.py"}, "scene": 0, "scenes": [{"nodes": [0, 1, 2, 3]}], "nodes": [{"mesh": 0, "name": "Screen"}, {"mesh": 1, "name": "Geometry_315"}, {"mesh": 2, "name": "Geometry_333"}, {"mesh": 3, "name": "Geometry_874"}], "meshes": [{"name": "Screen", "primitives": [{"attributes": {"POSITION": 0, "NORMAL": 1, "TEXCOORD_0": 2}, "indices": 3, "mode": 4}]}, {"name": "Geometry_315", "primitives": [{"attributes": {"POSITION": 4, "NORMAL": 5, "TEXCOORD_0": 6}, "indices": 7, "mode": 4}]}, {"name": "Geometry_333", "primitives": [{"attributes": {"POSITION": 8, "NORMAL": 9, "TEXCOORD_0": 10}, "indices": 11, "mode": 4}, {"attributes": {"POSITION": 8, "NORMAL": 9, "TEXCOORD_0": 10}, "indices": 12, "mode": 4}, {"attributes": {"POSITION": 8, "NORMAL": 9, "TEXCOORD_0": 10}, "indices": 13, "mode": 4}, {"attributes": {"POSITION": 8, "NORMAL": 9, "TEXCOORD_0": 10}, "indices": 14, "mode": 4}, {"attributes": {"POSITION": 8, "NORMAL": 9, "TEXCOORD_0": 10}, "indices": 15, "mode": 4}, {"attributes": {"POSITION": 8, "NORMAL": 9, "TEXCOORD_0": 10}, "indices": 16, "mode": 4}, {"attributes": {"POSITION": 8, "NORMAL": 9, "TEXCOORD_0": 10}, "indices": 17, "mode": 4}, {"attributes": {"POSITION": 8, "NORMAL": 9, "TEXCOORD_0": 10}, "indices": 18, "mode": 4}, {"attributes": {"POSITION": 8, "NORMAL": 9, "TEXCOORD_0": 10}, "indices": 19, "mode": 4}, {"attributes": {"POSITION": 8, "NORMAL": 9, "TEXCOORD_0": 10}, "indices": 20, "mode": 4}, {"attributes": {"POSITION": 8, "NORMAL": 9, "TEXCOORD_0": 10}, "indices": 21, "mode": 4}, {"attributes": {"POSITION": 8, "NORMAL": 9, "TEXCOORD_0": 10}, "indices": 22, "mode": 4}, {"attributes": {"POSITION": 8, "NORMAL": 9, "TEXCOORD_0": 10}, "indices": 23, "mode": 4}, {"attributes": {"POSITION": 8, "NORMAL": 9, "TEXCOORD_0": 10}, "indices": 24, "mode": 4}, {"attributes": {"POSITION": 8, "NORMAL": 9, "TEXCOORD_0": 10}, "indices": 25, "mode": 4}]}, {"name": "Geometry_874", "primitives": [{"attributes": {"POSITION": 26, "NORMAL": 27, "TEXCOORD_0": 28}, "indices": 29, "mode": 4}]}], "accessors": [{"bufferView": 0, "byteOffset": 0, "componentType": 5126, "count": 161, "type": "VEC3", "min": [-11.347599983215332, -16.17289924621582, 0.005401310045272112], "max": [-0.00020916800713166595, -4.932919910061173e-05, 0.00540834991261363]}, {"bufferView": 1, "byteOffset": 0, "componentType": 5126, "count": 161, "type": "VEC3"}, {"bufferView": 2, "byteOffset": 0, "componentType": 5126, "count": 161, "type": "VEC2"}, {"bufferView": 3, "byteOffset": 0, "componentType": 5123, "count": 840, "type": "SCALAR"}, {"bufferView": 4, "byteOffset": 0, "componentType": 5126, "count": 1150, "type": "VEC3", "min": [-6.183060169219971, 0.08854719996452332, -0.2858029901981354], "max": [6.214710235595703, 17.352399826049805, -0.28298598527908325]}, {"bufferView": 5, "byteOffset": 0, "componentType": 5126, "count": 1150, "type": "VEC3"}, {"bufferView": 6, "byteOffset": 0, "componentType": 5126, "count": 1150, "type": "VEC2"}, {"bufferView": 7, "byteOffset": 0, "componentType": 5123, "count": 5664, "type": "SCALAR"}, {"bufferView": 8, "byteOffset": 0, "componentType": 5126, "count": 70151, "type": "VEC3", "min": [-6.302289962768555, 0.0023731798864901066, -0.2858029901981354], "max": [6.300879955291748, 17.4591007232666, 0.27505698800086975]}, {"bufferView": 9, "byteOffset": 0, "componentType": 5126, "count": 70151, "type": "VEC3"}, {"bufferView": 10, "byteOffset": 0, "componentType": 5126, "count": 70151, "type": "VEC2"}, {"bufferView": 11, "byteOffset": 0, "componentType": 5123, "count": 129147, "type": "SCALAR"}, {"bufferView": 12, "byteOffset": 0, "componentType": 5123, "count": 2412, "type": "SCALAR"}, {"bufferView": 13, "byteOffset": 0, "componentType": 5123, "count": 132, "type": "SCALAR"}, {"bufferView": 14, "byteOffset": 0, "componentType": 5123, "count": 132, "type": "SCALAR"}, {"bufferView": 15, "byteOffset": 0, "componentType": 5123, "count": 1836, "type": "SCALAR"}, {"bufferView": 16, "byteOffset": 0, "componentType": 5123, "count": 576, "type": "SCALAR"}, {"bufferView": 17, "byteOffset": 0, "componentType": 5123, "count": 1344, "type": "SCALAR"}, {"bufferView": 18, "byteOffset": 0, "componentType": 5123, "count": 2364, "type": "SCALAR"}, {"bufferView": 19, "byteOffset": 0, "componentType": 5123, "count": 31464, "type": "SCALAR"}, {"bufferView": 20, "byteOffset": 0, "componentType": 5123, "count": 864, "type": "SCALAR"}, {"bufferView": 21, "byteOffset": 0, "componentType": 5123, "count": 2256, "type": "SCALAR"}, {"bufferView": 22, "byteOffset": 0, "componentType": 5123, "count": 5202, "type": "SCALAR"}, {"bufferView": 23, "byteOffset": 0, "componentType": 5123, "count": 150, "type": "SCALAR"}, {"bufferView": 24, "byteOffset": 0, "componentType": 5125, "count": 54144, "type": "SCALAR"}, {"bufferView": 25, "byteOffset": 0, "componentType": 5125, "count": 900, "type": "SCALAR"}, {"bufferView": 26, "byteOffset": 0, "componentType": 5126, "count": 3957, "type": "VEC3", "min": [-0.26744401454925537, -0.9873489737510681, 0.8766340017318726], "max": [0.2674509882926941, 11.383700370788574, 1.3880300521850586]}, {"bufferView": 27, "byteOffset": 0, "componentType": 5126, "count": 3957, "type": "VEC3"}, {"bufferView": 28, "byteOffset": 0, "componentType": 5126, "count": 3957, "type": "VEC2"}, {"bufferView": 29, "byteOffset": 0, "componentType": 5123, "count": 11856, "type": "SCALAR"}], "bufferViews": [{"buffer": 0, "byteOffset": 0, "byteLength": 1932, "target": 34962}, {"buffer": 0, "byteOffset": 1932, "byteLength": 1932, "target": 34962}, {"buffer": 0, "byteOffset": 3864, "byteLength": 1288, "target": 34962}, {"buffer": 0, "byteOffset": 5152, "byteLength": 1680, "target": 34963}, {"buffer": 0, "byteOffset": 6832, "byteLength": 13800, "target": 34962}, {"buffer": 0, "byteOffset": 20632, "byteLength": 13800, "target": 34962}, {"buffer": 0, "byteOffset": 34432, "byteLength": 9200, "target": 34962}, {"buffer": 0, "byteOffset": 43632, "byteLength": 11328, "target": 34963}, {"buffer": 0, "byteOffset": 54960, "byteLength": 841812, "target": 34962}, {"buffer": 0, "byteOffset": 896772, "byteLength": 841812, "target": 34962}, {"buffer": 0, "byteOffset": 1738584, "byteLength": 561208, "target": 34962}, {"buffer": 0, "byteOffset": 2299792, "byteLength": 258294, "target": 34963}, {"buffer": 0, "byteOffset": 2558088, "byteLength": 4824, "target": 34963}, {"buffer": 0, "byteOffset": 2562912, "byteLength": 264, "target": 34963}, {"buffer": 0, "byteOffset": 2563176, "byteLength": 264, "target": 34963}, {"buffer": 0, "byteOffset": 2563440, "byteLength": 3672, "target": 34963}, {"buffer": 0, "byteOffset": 2567112, "byteLength": 1152, "target": 34963}, {"buffer": 0, "byteOffset": 2568264, "byteLength": 2688, "target": 34963}, {"buffer": 0, "byteOffset": 2570952, "byteLength": 4728, "target": 34963}, {"buffer": 0, "byteOffset": 2575680, "byteLength": 62928, "target": 34963}, {"buffer": 0, "byteOffset": 2638608, "byteLength": 1728, "target": 34963}, {"buffer": 0, "byteOffset": 2640336, "byteLength": 4512, "target": 34963}, {"buffer": 0, "byteOffset": 2644848, "byteLength": 10404, "target": 34963}, {"buffer": 0, "byteOffset": 2655252, "byteLength": 300, "target": 34963}, {"buffer": 0, "byteOffset": 2655552, "byteLength": 216576, "target": 34963}, {"buffer": 0, "byteOffset": 2872128, "byteLength": 3600, "target": 34963}, {"buffer": 0, "byteOffset": 2875728, "byteLength": 47484, "target": 34962}, {"buffer": 0, "byteOffset": 2923212, "byteLength": 47484, "target": 34962}, {"buffer": 0, "byteOffset": 2970696, "byteLength": 31656, "target": 34962}, {"buffer": 0, "byteOffset": 3002352, "byteLength": 23712, "target": 34963}], "buffers": [{"byteLength": 3026064, "uri": "data:application/octet-stream;base64,"}]}