{"asset": {"version": "2.0", "generator": "rotato_extract.py"}, "scene": 0, "scenes": [{"nodes": [0, 1, 2, 3, 4, 5, 6, 7]}], "nodes": [{"mesh": 0, "name": "Geometry_129"}, {"mesh": 1, "name": "Geometry_233"}, {"mesh": 2, "name": "Geometry_253"}, {"mesh": 3, "name": "Geometry_273"}, {"mesh": 4, "name": "Geometry_331"}, {"mesh": 5, "name": "Geometry_349"}, {"mesh": 6, "name": "Screen"}, {"mesh": 7, "name": "Geometry_1037"}], "meshes": [{"name": "Geometry_129", "primitives": [{"attributes": {"POSITION": 0, "NORMAL": 1, "TEXCOORD_0": 2}, "indices": 3, "mode": 4}, {"attributes": {"POSITION": 0, "NORMAL": 1, "TEXCOORD_0": 2}, "indices": 4, "mode": 4}]}, {"name": "Geometry_233", "primitives": [{"attributes": {"POSITION": 5, "NORMAL": 6, "TEXCOORD_0": 7}, "indices": 8, "mode": 4}, {"attributes": {"POSITION": 5, "NORMAL": 6, "TEXCOORD_0": 7}, "indices": 9, "mode": 4}]}, {"name": "Geometry_253", "primitives": [{"attributes": {"POSITION": 10, "NORMAL": 11, "TEXCOORD_0": 12}, "indices": 13, "mode": 4}, {"attributes": {"POSITION": 10, "NORMAL": 11, "TEXCOORD_0": 12}, "indices": 14, "mode": 4}]}, {"name": "Geometry_273", "primitives": [{"attributes": {"POSITION": 15, "NORMAL": 16, "TEXCOORD_0": 17}, "indices": 18, "mode": 4}, {"attributes": {"POSITION": 15, "NORMAL": 16, "TEXCOORD_0": 17}, "indices": 19, "mode": 4}, {"attributes": {"POSITION": 15, "NORMAL": 16, "TEXCOORD_0": 17}, "indices": 20, "mode": 4}]}, {"name": "Geometry_331", "primitives": [{"attributes": {"POSITION": 21, "NORMAL": 22, "TEXCOORD_0": 23}, "indices": 24, "mode": 4}]}, {"name": "Geometry_349", "primitives": [{"attributes": {"POSITION": 25, "NORMAL": 26, "TEXCOORD_0": 27}, "indices": 28, "mode": 4}, {"attributes": {"POSITION": 25, "NORMAL": 26, "TEXCOORD_0": 27}, "indices": 29, "mode": 4}, {"attributes": {"POSITION": 25, "NORMAL": 26, "TEXCOORD_0": 27}, "indices": 30, "mode": 4}, {"attributes": {"POSITION": 25, "NORMAL": 26, "TEXCOORD_0": 27}, "indices": 31, "mode": 4}, {"attributes": {"POSITION": 25, "NORMAL": 26, "TEXCOORD_0": 27}, "indices": 32, "mode": 4}, {"attributes": {"POSITION": 25, "NORMAL": 26, "TEXCOORD_0": 27}, "indices": 33, "mode": 4}, {"attributes": {"POSITION": 25, "NORMAL": 26, "TEXCOORD_0": 27}, "indices": 34, "mode": 4}, {"attributes": {"POSITION": 25, "NORMAL": 26, "TEXCOORD_0": 27}, "indices": 35, "mode": 4}, {"attributes": {"POSITION": 25, "NORMAL": 26, "TEXCOORD_0": 27}, "indices": 36, "mode": 4}, {"attributes": {"POSITION": 25, "NORMAL": 26, "TEXCOORD_0": 27}, "indices": 37, "mode": 4}, {"attributes": {"POSITION": 25, "NORMAL": 26, "TEXCOORD_0": 27}, "indices": 38, "mode": 4}, {"attributes": {"POSITION": 25, "NORMAL": 26, "TEXCOORD_0": 27}, "indices": 39, "mode": 4}, {"attributes": {"POSITION": 25, "NORMAL": 26, "TEXCOORD_0": 27}, "indices": 40, "mode": 4}, {"attributes": {"POSITION": 25, "NORMAL": 26, "TEXCOORD_0": 27}, "indices": 41, "mode": 4}, {"attributes": {"POSITION": 25, "NORMAL": 26, "TEXCOORD_0": 27}, "indices": 42, "mode": 4}, {"attributes": {"POSITION": 25, "NORMAL": 26, "TEXCOORD_0": 27}, "indices": 43, "mode": 4}, {"attributes": {"POSITION": 25, "NORMAL": 26, "TEXCOORD_0": 27}, "indices": 44, "mode": 4}, {"attributes": {"POSITION": 25, "NORMAL": 26, "TEXCOORD_0": 27}, "indices": 45, "mode": 4}, {"attributes": {"POSITION": 25, "NORMAL": 26, "TEXCOORD_0": 27}, "indices": 46, "mode": 4}]}, {"name": "Screen", "primitives": [{"attributes": {"POSITION": 47, "NORMAL": 48, "TEXCOORD_0": 49}, "indices": 50, "mode": 4}]}, {"name": "Geometry_1037", "primitives": [{"attributes": {"POSITION": 51, "NORMAL": 52, "TEXCOORD_0": 53}, "indices": 54, "mode": 4}]}], "accessors": [{"bufferView": 0, "byteOffset": 0, "componentType": 5126, "count": 868, "type": "VEC3", "min": [3.263849973678589, 2.894838333129883, -0.08384999632835388], "max": [3.3986599445343018, 4.002608299255371, 0.13981999456882477]}, {"bufferView": 1, "byteOffset": 0, "componentType": 5126, "count": 868, "type": "VEC3"}, {"bufferView": 2, "byteOffset": 0, "componentType": 5126, "count": 868, "type": "VEC2"}, {"bufferView": 3, "byteOffset": 0, "componentType": 5123, "count": 1308, "type": "SCALAR"}, {"bufferView": 4, "byteOffset": 0, "componentType": 5123, "count": 156, "type": "SCALAR"}, {"bufferView": 5, "byteOffset": 0, "componentType": 5126, "count": 868, "type": "VEC3", "min": [-3.3986599445343018, 1.57415771484375, -0.08384999632835388], "max": [-3.263849973678589, 2.6034679412841797, 0.13981999456882477]}, {"bufferView": 6, "byteOffset": 0, "componentType": 5126, "count": 868, "type": "VEC3"}, {"bufferView": 7, "byteOffset": 0, "componentType": 5126, "count": 868, "type": "VEC2"}, {"bufferView": 8, "byteOffset": 0, "componentType": 5123, "count": 996, "type": "SCALAR"}, {"bufferView": 9, "byteOffset": 0, "componentType": 5123, "count": 468, "type": "SCALAR"}, {"bufferView": 10, "byteOffset": 0, "componentType": 5126, "count": 870, "type": "VEC3", "min": [-3.3986599445343018, 2.83770751953125, -0.08384999632835388], "max": [-3.263849973678589, 3.8670082092285156, 0.13981999456882477]}, {"bufferView": 11, "byteOffset": 0, "componentType": 5126, "count": 870, "type": "VEC3"}, {"bufferView": 12, "byteOffset": 0, "componentType": 5126, "count": 870, "type": "VEC2"}, {"bufferView": 13, "byteOffset": 0, "componentType": 5123, "count": 996, "type": "SCALAR"}, {"bufferView": 14, "byteOffset": 0, "componentType": 5123, "count": 468, "type": "SCALAR"}, {"bufferView": 15, "byteOffset": 0, "componentType": 5126, "count": 1402, "type": "VEC3", "min": [-3.3962700366973877, 4.403807640075684, -0.1677599996328354], "max": [-3.2479701042175293, 5.13410758972168, 0.2702000141143799]}, {"bufferView": 16, "byteOffset": 0, "componentType": 5126, "count": 1402, "type": "VEC3"}, {"bufferView": 17, "byteOffset": 0, "componentType": 5126, "count": 1402, "type": "VEC2"}, {"bufferView": 18, "byteOffset": 0, "componentType": 5123, "count": 1734, "type": "SCALAR"}, {"bufferView": 19, "byteOffset": 0, "componentType": 5123, "count": 510, "type": "SCALAR"}, {"bufferView": 20, "byteOffset": 0, "componentType": 5123, "count": 396, "type": "SCALAR"}, {"bufferView": 21, "byteOffset": 0, "componentType": 5126, "count": 2708, "type": "VEC3", "min": [1.3487999439239502, -0.04345226287841797, -0.07430999726057053], "max": [3.3629701137542725, 1.571187973022461, 0.12981000542640686]}, {"bufferView": 22, "byteOffset": 0, "componentType": 5126, "count": 2708, "type": "VEC3"}, {"bufferView": 23, "byteOffset": 0, "componentType": 5126, "count": 2708, "type": "VEC2"}, {"bufferView": 24, "byteOffset": 0, "componentType": 5123, "count": 8196, "type": "SCALAR"}, {"bufferView": 25, "byteOffset": 0, "componentType": 5126, "count": 57910, "type": "VEC3", "min": [-3.3651492595672607, -7.039782060854122, -0.3929899334907532], "max": [3.3651492595672607, 6.804405212402344, 0.3929899334907532]}, {"bufferView": 26, "byteOffset": 0, "componentType": 5126, "count": 57910, "type": "VEC3"}, {"bufferView": 27, "byteOffset": 0, "componentType": 5126, "count": 57910, "type": "VEC2"}, {"bufferView": 28, "byteOffset": 0, "componentType": 5123, "count": 3600, "type": "SCALAR"}, {"bufferView": 29, "byteOffset": 0, "componentType": 5123, "count": 150, "type": "SCALAR"}, {"bufferView": 30, "byteOffset": 0, "componentType": 5123, "count": 11403, "type": "SCALAR"}, {"bufferView": 31, "byteOffset": 0, "componentType": 5123, "count": 1176, "type": "SCALAR"}, {"bufferView": 32, "byteOffset": 0, "componentType": 5123, "count": 7848, "type": "SCALAR"}, {"bufferView": 33, "byteOffset": 0, "componentType": 5123, "count": 39114, "type": "SCALAR"}, {"bufferView": 34, "byteOffset": 0, "componentType": 5123, "count": 2592, "type": "SCALAR"}, {"bufferView": 35, "byteOffset": 0, "componentType": 5123, "count": 10656, "type": "SCALAR"}, {"bufferView": 36, "byteOffset": 0, "componentType": 5123, "count": 1440, "type": "SCALAR"}, {"bufferView": 37, "byteOffset": 0, "componentType": 5123, "count": 132, "type": "SCALAR"}, {"bufferView": 38, "byteOffset": 0, "componentType": 5123, "count": 132, "type": "SCALAR"}, {"bufferView": 39, "byteOffset": 0, "componentType": 5123, "count": 11256, "type": "SCALAR"}, {"bufferView": 40, "byteOffset": 0, "componentType": 5123, "count": 10611, "type": "SCALAR"}, {"bufferView": 41, "byteOffset": 0, "componentType": 5123, "count": 2208, "type": "SCALAR"}, {"bufferView": 42, "byteOffset": 0, "componentType": 5123, "count": 600, "type": "SCALAR"}, {"bufferView": 43, "byteOffset": 0, "componentType": 5123, "count": 20544, "type": "SCALAR"}, {"bufferView": 44, "byteOffset": 0, "componentType": 5123, "count": 26640, "type": "SCALAR"}, {"bufferView": 45, "byteOffset": 0, "componentType": 5123, "count": 840, "type": "SCALAR"}, {"bufferView": 46, "byteOffset": 0, "componentType": 5123, "count": 150, "type": "SCALAR"}, {"bufferView": 47, "byteOffset": 0, "componentType": 5126, "count": 49, "type": "VEC3", "min": [-2.938119713180072, -5.376622179935573, 0.3699799853575225], "max": [2.938119713180072, 5.117407074141511, 0.3699799853575225]}, {"bufferView": 48, "byteOffset": 0, "componentType": 5126, "count": 49, "type": "VEC3"}, {"bufferView": 49, "byteOffset": 0, "componentType": 5126, "count": 49, "type": "VEC2"}, {"bufferView": 50, "byteOffset": 0, "componentType": 5123, "count": 216, "type": "SCALAR"}, {"bufferView": 51, "byteOffset": 0, "componentType": 5126, "count": 49, "type": "VEC3", "min": [-2.9381195380544796, -5.3829883050906915, 0.3748192831195234], "max": [2.9381195380544796, 5.110990374807102, 0.3748192831195234]}, {"bufferView": 52, "byteOffset": 0, "componentType": 5126, "count": 49, "type": "VEC3"}, {"bufferView": 53, "byteOffset": 0, "componentType": 5126, "count": 49, "type": "VEC2"}, {"bufferView": 54, "byteOffset": 0, "componentType": 5123, "count": 216, "type": "SCALAR"}], "bufferViews": [{"buffer": 0, "byteOffset": 0, "byteLength": 10416, "target": 34962}, {"buffer": 0, "byteOffset": 10416, "byteLength": 10416, "target": 34962}, {"buffer": 0, "byteOffset": 20832, "byteLength": 6944, "target": 34962}, {"buffer": 0, "byteOffset": 27776, "byteLength": 2616, "target": 34963}, {"buffer": 0, "byteOffset": 30392, "byteLength": 312, "target": 34963}, {"buffer": 0, "byteOffset": 30704, "byteLength": 10416, "target": 34962}, {"buffer": 0, "byteOffset": 41120, "byteLength": 10416, "target": 34962}, {"buffer": 0, "byteOffset": 51536, "byteLength": 6944, "target": 34962}, {"buffer": 0, "byteOffset": 58480, "byteLength": 1992, "target": 34963}, {"buffer": 0, "byteOffset": 60472, "byteLength": 936, "target": 34963}, {"buffer": 0, "byteOffset": 61408, "byteLength": 10440, "target": 34962}, {"buffer": 0, "byteOffset": 71848, "byteLength": 10440, "target": 34962}, {"buffer": 0, "byteOffset": 82288, "byteLength": 6960, "target": 34962}, {"buffer": 0, "byteOffset": 89248, "byteLength": 1992, "target": 34963}, {"buffer": 0, "byteOffset": 91240, "byteLength": 936, "target": 34963}, {"buffer": 0, "byteOffset": 92176, "byteLength": 16824, "target": 34962}, {"buffer": 0, "byteOffset": 109000, "byteLength": 16824, "target": 34962}, {"buffer": 0, "byteOffset": 125824, "byteLength": 11216, "target": 34962}, {"buffer": 0, "byteOffset": 137040, "byteLength": 3468, "target": 34963}, {"buffer": 0, "byteOffset": 140508, "byteLength": 1020, "target": 34963}, {"buffer": 0, "byteOffset": 141528, "byteLength": 792, "target": 34963}, {"buffer": 0, "byteOffset": 142320, "byteLength": 32496, "target": 34962}, {"buffer": 0, "byteOffset": 174816, "byteLength": 32496, "target": 34962}, {"buffer": 0, "byteOffset": 207312, "byteLength": 21664, "target": 34962}, {"buffer": 0, "byteOffset": 228976, "byteLength": 16392, "target": 34963}, {"buffer": 0, "byteOffset": 245368, "byteLength": 694920, "target": 34962}, {"buffer": 0, "byteOffset": 940288, "byteLength": 694920, "target": 34962}, {"buffer": 0, "byteOffset": 1635208, "byteLength": 463280, "target": 34962}, {"buffer": 0, "byteOffset": 2098488, "byteLength": 7200, "target": 34963}, {"buffer": 0, "byteOffset": 2105688, "byteLength": 300, "target": 34963}, {"buffer": 0, "byteOffset": 2105988, "byteLength": 22806, "target": 34963}, {"buffer": 0, "byteOffset": 2128796, "byteLength": 2352, "target": 34963}, {"buffer": 0, "byteOffset": 2131148, "byteLength": 15696, "target": 34963}, {"buffer": 0, "byteOffset": 2146844, "byteLength": 78228, "target": 34963}, {"buffer": 0, "byteOffset": 2225072, "byteLength": 5184, "target": 34963}, {"buffer": 0, "byteOffset": 2230256, "byteLength": 21312, "target": 34963}, {"buffer": 0, "byteOffset": 2251568, "byteLength": 2880, "target": 34963}, {"buffer": 0, "byteOffset": 2254448, "byteLength": 264, "target": 34963}, {"buffer": 0, "byteOffset": 2254712, "byteLength": 264, "target": 34963}, {"buffer": 0, "byteOffset": 2254976, "byteLength": 22512, "target": 34963}, {"buffer": 0, "byteOffset": 2277488, "byteLength": 21222, "target": 34963}, {"buffer": 0, "byteOffset": 2298712, "byteLength": 4416, "target": 34963}, {"buffer": 0, "byteOffset": 2303128, "byteLength": 1200, "target": 34963}, {"buffer": 0, "byteOffset": 2304328, "byteLength": 41088, "target": 34963}, {"buffer": 0, "byteOffset": 2345416, "byteLength": 53280, "target": 34963}, {"buffer": 0, "byteOffset": 2398696, "byteLength": 1680, "target": 34963}, {"buffer": 0, "byteOffset": 2400376, "byteLength": 300, "target": 34963}, {"buffer": 0, "byteOffset": 2400676, "byteLength": 588, "target": 34962}, {"buffer": 0, "byteOffset": 2401264, "byteLength": 588, "target": 34962}, {"buffer": 0, "byteOffset": 2401852, "byteLength": 392, "target": 34962}, {"buffer": 0, "byteOffset": 2402244, "byteLength": 432, "target": 34963}, {"buffer": 0, "byteOffset": 2402676, "byteLength": 588, "target": 34962}, {"buffer": 0, "byteOffset": 2403264, "byteLength": 588, "target": 34962}, {"buffer": 0, "byteOffset": 2403852, "byteLength": 392, "target": 34962}, {"buffer": 0, "byteOffset": 2404244, "byteLength": 432, "target": 34963}], "buffers": [{"byteLength": 2404676, "uri": "data:application/octet-stream;base64,"}]}