{"asset":{"version":"2.0","generator":"rotato_extract.py"},"scene":0,"scenes":[{"nodes":[0,1,2,3,4,5,6,7,8,9,10,11,12,13,14,15,16,17]}],"nodes":[{"mesh":0,"name":"Back_001"},{"mesh":1,"name":"Black_001"},{"mesh":2,"name":"Edge_001"},{"mesh":3,"name":"Edge_Antenna_001"},{"mesh":4,"name":"Flash_001"},{"mesh":5,"name":"Glass_001"},{"mesh":6,"name":"Glass_Lens_001"},{"mesh":7,"name":"Glass_Rough_001"},{"mesh":8,"name":"Glass_Screen"},{"mesh":9,"name":"Gray_001"},{"mesh":10,"name":"Lens_001"},{"mesh":11,"name":"Matte_001"},{"mesh":12,"name":"Mic_001"},{"mesh":13,"name":"Plastic_001"},{"mesh":14,"name":"Screen"},{"mesh":15,"name":"Screen_Edge_001"},{"mesh":16,"name":"Shadow"},{"mesh":17,"name":"rotatoTag"}],"meshes":[{"name":"Back_001","primitives":[{"attributes":{"POSITION":0,"NORMAL":1,"TEXCOORD_0":2},"indices":3,"mode":4}]},{"name":"Black_001","primitives":[{"attributes":{"POSITION":4,"NORMAL":5,"TEXCOORD_0":6},"indices":7,"mode":4}]},{"name":"Edge_001","primitives":[{"attributes":{"POSITION":8,"NORMAL":9,"TEXCOORD_0":10},"indices":11,"mode":4}]},{"name":"Edge_Antenna_001","primitives":[{"attributes":{"POSITION":12,"NORMAL":13,"TEXCOORD_0":14},"indices":15,"mode":4}]},{"name":"Flash_001","primitives":[{"attributes":{"POSITION":16,"NORMAL":17,"TEXCOORD_0":18},"indices":19,"mode":4}]},{"name":"Glass_001","primitives":[{"attributes":{"POSITION":20,"NORMAL":21,"TEXCOORD_0":22},"indices":23,"mode":4}]},{"name":"Glass_Lens_001","primitives":[{"attributes":{"POSITION":24,"NORMAL":25,"TEXCOORD_0":26},"indices":27,"mode":4}]},{"name":"Glass_Rough_001","primitives":[{"attributes":{"POSITION":28,"NORMAL":29,"TEXCOORD_0":30},"indices":31,"mode":4}]},{"name":"Glass_Screen","primitives":[{"attributes":{"POSITION":32,"NORMAL":33,"TEXCOORD_0":34},"indices":35,"mode":4}]},{"name":"Gray_001","primitives":[{"attributes":{"POSITION":36,"NORMAL":37,"TEXCOORD_0":38},"indices":39,"mode":4}]},{"name":"Lens_001","primitives":[{"attributes":{"POSITION":40,"NORMAL":41,"TEXCOORD_0":42},"indices":43,"mode":4}]},{"name":"Matte_001","primitives":[{"attributes":{"POSITION":44,"NORMAL":45,"TEXCOORD_0":46},"indices":47,"mode":4}]},{"name":"Mic_001","primitives":[{"attributes":{"POSITION":48,"NORMAL":49,"TEXCOORD_0":50},"indices":51,"mode":4}]},{"name":"Plastic_001","primitives":[{"attributes":{"POSITION":52,"NORMAL":53,"TEXCOORD_0":54},"indices":55,"mode":4}]},{"name":"Screen","primitives":[{"attributes":{"POSITION":56,"NORMAL":57,"TEXCOORD_0":58},"indices":59,"mode":4}]},{"name":"Screen_Edge_001","primitives":[{"attributes":{"POSITION":60,"NORMAL":61,"TEXCOORD_0":62},"indices":63,"mode":4}]},{"name":"Shadow","primitives":[{"attributes":{"POSITION":64,"NORMAL":65,"TEXCOORD_0":66},"indices":67,"mode":4}]},{"name":"rotatoTag","primitives":[{"attributes":{"POSITION":68,"NORMAL":69,"TEXCOORD_0":70},"indices":71,"mode":4}]}],"accessors":[{"bufferView":0,"byteOffset":0,"componentType":5126,"count":9332,"type":"VEC3","min":[-0.03481000289320946,-0.07240505516529083,-0.00442506093531847],"max":[0.034810006618499756,0.07240504771471024,-0.003439374966546893]},{"bufferView":1,"byteOffset":0,"componentType":5126,"count":9332,"type":"VEC3"},{"bufferView":2,"byteOffset":0,"componentType":5126,"count":9332,"type":"VEC2"},{"bufferView":3,"byteOffset":0,"componentType":5123,"count":23826,"type":"SCALAR"},{"bufferView":4,"byteOffset":0,"componentType":5126,"count":590,"type":"VEC3","min":[0.018239857628941536,0.04155486077070236,-0.004918850027024746],"max":[0.027820143848657608,0.0654151439666748,-0.004918848164379597]},{"bufferView":5,"byteOffset":0,"componentType":5126,"count":590,"type":"VEC3"},{"bufferView":6,"byteOffset":0,"componentType":5126,"count":590,"type":"VEC2"},{"bufferView":7,"byteOffset":0,"componentType":5123,"count":768,"type":"SCALAR"},{"bufferView":8,"byteOffset":0,"componentType":5126,"count":19643,"type":"VEC3","min":[-0.03636002913117409,-0.07335500419139862,-0.005205060821026564],"max":[0.03620942309498787,0.07335500419139862,0.0036184086930006742]},{"bufferView":9,"byteOffset":0,"componentType":5126,"count":19643,"type":"VEC3"},{"bufferView":10,"byteOffset":0,"componentType":5126,"count":19643,"type":"VEC2"},{"bufferView":11,"byteOffset":0,"componentType":5123,"count":89196,"type":"SCALAR"},{"bufferView":12,"byteOffset":0,"componentType":5126,"count":496,"type":"VEC3","min":[-0.03575999662280083,-0.07335500419139862,-0.0036184086930006742],"max":[0.035760000348091125,0.07335298508405685,0.0036184086930006742]},{"bufferView":13,"byteOffset":0,"componentType":5126,"count":496,"type":"VEC3"},{"bufferView":14,"byteOffset":0,"componentType":5126,"count":496,"type":"VEC2"},{"bufferView":15,"byteOffset":0,"componentType":5123,"count":1608,"type":"SCALAR"},{"bufferView":16,"byteOffset":0,"componentType":5126,"count":142,"type":"VEC3","min":[0.007821457460522652,0.050826460123062134,-0.004087297711521387],"max":[0.0131385438144207,0.05614354461431503,-0.004087297711521387]},{"bufferView":17,"byteOffset":0,"componentType":5126,"count":142,"type":"VEC3"},{"bufferView":18,"byteOffset":0,"componentType":5126,"count":142,"type":"VEC2"},{"bufferView":19,"byteOffset":0,"componentType":5123,"count":186,"type":"SCALAR"},{"bufferView":20,"byteOffset":0,"componentType":5126,"count":4217,"type":"VEC3","min":[-0.03481000289320946,-0.07240505516529083,-0.004425060469657183],"max":[0.034810006618499756,0.07240504771471024,-0.003508352441713214]},{"bufferView":21,"byteOffset":0,"componentType":5126,"count":4217,"type":"VEC3"},{"bufferView":22,"byteOffset":0,"componentType":5126,"count":4217,"type":"VEC2"},{"bufferView":23,"byteOffset":0,"componentType":5123,"count":14220,"type":"SCALAR"},{"bufferView":24,"byteOffset":0,"componentType":5126,"count":351,"type":"VEC3","min":[0.00672898069024086,0.04155486077070236,-0.0050411587581038475],"max":[0.027820143848657608,0.06897254288196564,0.0036949918139725924]},{"bufferView":25,"byteOffset":0,"componentType":5126,"count":351,"type":"VEC3"},{"bufferView":26,"byteOffset":0,"componentType":5126,"count":351,"type":"VEC2"},{"bufferView":27,"byteOffset":0,"componentType":5123,"count":462,"type":"SCALAR"},{"bufferView":28,"byteOffset":0,"componentType":5126,"count":861,"type":"VEC3","min":[0.0033425595611333847,0.03907756134867668,-0.00442506093531847],"max":[0.030167439952492714,0.06807243824005127,-0.004425060469657183]},{"bufferView":29,"byteOffset":0,"componentType":5126,"count":861,"type":"VEC3"},{"bufferView":30,"byteOffset":0,"componentType":5126,"count":861,"type":"VEC2"},{"bufferView":31,"byteOffset":0,"componentType":5123,"count":1158,"type":"SCALAR"},{"bufferView":32,"byteOffset":0,"componentType":5126,"count":1787,"type":"VEC3","min":[-0.032290782779455185,-0.06988593190908432,0.003695105202496052],"max":[0.032290782779455185,0.06988591700792313,0.003695105202496052]},{"bufferView":33,"byteOffset":0,"componentType":5126,"count":1787,"type":"VEC3"},{"bufferView":34,"byteOffset":0,"componentType":5126,"count":1787,"type":"VEC2"},{"bufferView":35,"byteOffset":0,"componentType":5123,"count":5376,"type":"SCALAR"},{"bufferView":36,"byteOffset":0,"componentType":5126,"count":320,"type":"VEC3","min":[0.006681157276034355,0.04341602325439453,-0.004881011322140694],"max":[0.026862015947699547,0.06902036815881729,0.003680894849821925]},{"bufferView":37,"byteOffset":0,"componentType":5126,"count":320,"type":"VEC3"},{"bufferView":38,"byteOffset":0,"componentType":5126,"count":320,"type":"VEC2"},{"bufferView":39,"byteOffset":0,"componentType":5123,"count":960,"type":"SCALAR"},{"bufferView":40,"byteOffset":0,"componentType":5126,"count":1677,"type":"VEC3","min":[0.007204389199614525,0.044722530990839005,-0.004586411640048027],"max":[0.02483149990439415,0.06849724799394608,0.0035107312723994255]},{"bufferView":41,"byteOffset":0,"componentType":5126,"count":1677,"type":"VEC3"},{"bufferView":42,"byteOffset":0,"componentType":5126,"count":1677,"type":"VEC2"},{"bufferView":43,"byteOffset":0,"componentType":5123,"count":8640,"type":"SCALAR"},{"bufferView":44,"byteOffset":0,"componentType":5126,"count":3858,"type":"VEC3","min":[-0.03539855033159256,-0.07329380512237549,-0.002214021049439907],"max":[0.03559437766671181,0.06991556286811829,0.003352567320689559]},{"bufferView":45,"byteOffset":0,"componentType":5126,"count":3858,"type":"VEC3"},{"bufferView":46,"byteOffset":0,"componentType":5126,"count":3858,"type":"VEC2"},{"bufferView":47,"byteOffset":0,"componentType":5123,"count":3864,"type":"SCALAR"},{"bufferView":48,"byteOffset":0,"componentType":5126,"count":120,"type":"VEC3","min":[0.009477343410253525,0.06007234379649162,-0.0041290209628641605],"max":[0.011482656002044678,0.062077660113573074,-0.0041290209628641605]},{"bufferView":49,"byteOffset":0,"componentType":5126,"count":120,"type":"VEC3"},{"bufferView":50,"byteOffset":0,"componentType":5126,"count":120,"type":"VEC2"},{"bufferView":51,"byteOffset":0,"componentType":5123,"count":186,"type":"SCALAR"},{"bufferView":52,"byteOffset":0,"componentType":5126,"count":1536,"type":"VEC3","min":[0.01791617088019848,0.041231174021959305,-0.005281515419483185],"max":[0.028143830597400665,0.06573882699012756,-0.0022926698438823223]},{"bufferView":53,"byteOffset":0,"componentType":5126,"count":1536,"type":"VEC3"},{"bufferView":54,"byteOffset":0,"componentType":5126,"count":1536,"type":"VEC2"},{"bufferView":55,"byteOffset":0,"componentType":5123,"count":8448,"type":"SCALAR"},{"bufferView":56,"byteOffset":0,"componentType":5126,"count":1803,"type":"VEC3","min":[-0.032290782779455185,-0.06988593190908432,0.0036810683086514473],"max":[0.032290782779455185,0.06988591700792313,0.0036810683086514473]},{"bufferView":57,"byteOffset":0,"componentType":5126,"count":1803,"type":"VEC3"},{"bufferView":58,"byteOffset":0,"componentType":5126,"count":1803,"type":"VEC2"},{"bufferView":59,"byteOffset":0,"componentType":5123,"count":5376,"type":"SCALAR"},{"bufferView":60,"byteOffset":0,"componentType":5126,"count":2804,"type":"VEC3","min":[-0.03481000289320946,-0.07240505516529083,0.003226209431886673],"max":[0.034810006618499756,0.07240504771471024,0.0036951054353266954]},{"bufferView":61,"byteOffset":0,"componentType":5126,"count":2804,"type":"VEC3"},{"bufferView":62,"byteOffset":0,"componentType":5126,"count":2804,"type":"VEC2"},{"bufferView":63,"byteOffset":0,"componentType":5123,"count":10182,"type":"SCALAR"},{"bufferView":64,"byteOffset":0,"componentType":5126,"count":4,"type":"VEC3","min":[-1.0,0.0,-1.0],"max":[1.0,0.0,1.0]},{"bufferView":65,"byteOffset":0,"componentType":5126,"count":4,"type":"VEC3"},{"bufferView":66,"byteOffset":0,"componentType":5126,"count":4,"type":"VEC2"},{"bufferView":67,"byteOffset":0,"componentType":5123,"count":6,"type":"SCALAR"},{"bufferView":68,"byteOffset":0,"componentType":5126,"count":32,"type":"VEC3","min":[-1.0000003576278687,-2.000000238418579,-7.549790126404332e-08],"max":[1.0000003576278687,2.000000238418579,7.549790126404332e-08]},{"bufferView":69,"byteOffset":0,"componentType":5126,"count":32,"type":"VEC3"},{"bufferView":70,"byteOffset":0,"componentType":5126,"count":32,"type":"VEC2"},{"bufferView":71,"byteOffset":0,"componentType":5123,"count":90,"type":"SCALAR"}],"bufferViews":[{"buffer":0,"byteOffset":0,"byteLength":111984,"target":34962},{"buffer":0,"byteOffset":111984,"byteLength":111984,"target":34962},{"buffer":0,"byteOffset":223968,"byteLength":74656,"target":34962},{"buffer":0,"byteOffset":298624,"byteLength":47652,"target":34963},{"buffer":0,"byteOffset":346276,"byteLength":7080,"target":34962},{"buffer":0,"byteOffset":353356,"byteLength":7080,"target":34962},{"buffer":0,"byteOffset":360436,"byteLength":4720,"target":34962},{"buffer":0,"byteOffset":365156,"byteLength":1536,"target":34963},{"buffer":0,"byteOffset":366692,"byteLength":235716,"target":34962},{"buffer":0,"byteOffset":602408,"byteLength":235716,"target":34962},{"buffer":0,"byteOffset":838124,"byteLength":157144,"target":34962},{"buffer":0,"byteOffset":995268,"byteLength":178392,"target":34963},{"buffer":0,"byteOffset":1173660,"byteLength":5952,"target":34962},{"buffer":0,"byteOffset":1179612,"byteLength":5952,"target":34962},{"buffer":0,"byteOffset":1185564,"byteLength":3968,"target":34962},{"buffer":0,"byteOffset":1189532,"byteLength":3216,"target":34963},{"buffer":0,"byteOffset":1192748,"byteLength":1704,"target":34962},{"buffer":0,"byteOffset":1194452,"byteLength":1704,"target":34962},{"buffer":0,"byteOffset":1196156,"byteLength":1136,"target":34962},{"buffer":0,"byteOffset":1197292,"byteLength":372,"target":34963},{"buffer":0,"byteOffset":1197664,"byteLength":50604,"target":34962},{"buffer":0,"byteOffset":1248268,"byteLength":50604,"target":34962},{"buffer":0,"byteOffset":1298872,"byteLength":33736,"target":34962},{"buffer":0,"byteOffset":1332608,"byteLength":28440,"target":34963},{"buffer":0,"byteOffset":1361048,"byteLength":4212,"target":34962},{"buffer":0,"byteOffset":1365260,"byteLength":4212,"target":34962},{"buffer":0,"byteOffset":1369472,"byteLength":2808,"target":34962},{"buffer":0,"byteOffset":1372280,"byteLength":924,"target":34963},{"buffer":0,"byteOffset":1373204,"byteLength":10332,"target":34962},{"buffer":0,"byteOffset":1383536,"byteLength":10332,"target":34962},{"buffer":0,"byteOffset":1393868,"byteLength":6888,"target":34962},{"buffer":0,"byteOffset":1400756,"byteLength":2316,"target":34963},{"buffer":0,"byteOffset":1403072,"byteLength":21444,"target":34962},{"buffer":0,"byteOffset":1424516,"byteLength":21444,"target":34962},{"buffer":0,"byteOffset":1445960,"byteLength":14296,"target":34962},{"buffer":0,"byteOffset":1460256,"byteLength":10752,"target":34963},{"buffer":0,"byteOffset":1471008,"byteLength":3840,"target":34962},{"buffer":0,"byteOffset":1474848,"byteLength":3840,"target":34962},{"buffer":0,"byteOffset":1478688,"byteLength":2560,"target":34962},{"buffer":0,"byteOffset":1481248,"byteLength":1920,"target":34963},{"buffer":0,"byteOffset":1483168,"byteLength":20124,"target":34962},{"buffer":0,"byteOffset":1503292,"byteLength":20124,"target":34962},{"buffer":0,"byteOffset":1523416,"byteLength":13416,"target":34962},{"buffer":0,"byteOffset":1536832,"byteLength":17280,"target":34963},{"buffer":0,"byteOffset":1554112,"byteLength":46296,"target":34962},{"buffer":0,"byteOffset":1600408,"byteLength":46296,"target":34962},{"buffer":0,"byteOffset":1646704,"byteLength":30864,"target":34962},{"buffer":0,"byteOffset":1677568,"byteLength":7728,"target":34963},{"buffer":0,"byteOffset":1685296,"byteLength":1440,"target":34962},{"buffer":0,"byteOffset":1686736,"byteLength":1440,"target":34962},{"buffer":0,"byteOffset":1688176,"byteLength":960,"target":34962},{"buffer":0,"byteOffset":1689136,"byteLength":372,"target":34963},{"buffer":0,"byteOffset":1689508,"byteLength":18432,"target":34962},{"buffer":0,"byteOffset":1707940,"byteLength":18432,"target":34962},{"buffer":0,"byteOffset":1726372,"byteLength":12288,"target":34962},{"buffer":0,"byteOffset":1738660,"byteLength":16896,"target":34963},{"buffer":0,"byteOffset":1755556,"byteLength":21636,"target":34962},{"buffer":0,"byteOffset":1777192,"byteLength":21636,"target":34962},{"buffer":0,"byteOffset":1798828,"byteLength":14424,"target":34962},{"buffer":0,"byteOffset":1813252,"byteLength":10752,"target":34963},{"buffer":0,"byteOffset":1824004,"byteLength":33648,"target":34962},{"buffer":0,"byteOffset":1857652,"byteLength":33648,"target":34962},{"buffer":0,"byteOffset":1891300,"byteLength":22432,"target":34962},{"buffer":0,"byteOffset":1913732,"byteLength":20364,"target":34963},{"buffer":0,"byteOffset":1934096,"byteLength":48,"target":34962},{"buffer":0,"byteOffset":1934144,"byteLength":48,"target":34962},{"buffer":0,"byteOffset":1934192,"byteLength":32,"target":34962},{"buffer":0,"byteOffset":1934224,"byteLength":12,"target":34963},{"buffer":0,"byteOffset":1934236,"byteLength":384,"target":34962},{"buffer":0,"byteOffset":1934620,"byteLength":384,"target":34962},{"buffer":0,"byteOffset":1935004,"byteLength":256,"target":34962},{"buffer":0,"byteOffset":1935260,"byteLength":180,"target":34963}],"buffers":[{"byteLength":1935440,"uri":"data:application/octet-stream;base64,"}]}