{"asset":{"version":"2.0","generator":"rotato_extract.py"},"scene":0,"scenes":[{"nodes":[0,1,2,3,4,5,6,7,8,9,10,11,12,13,14,15,16,17,18,19,20]}],"nodes":[{"mesh":0,"name":"Back"},{"mesh":1,"name":"Black"},{"mesh":2,"name":"Edge"},{"mesh":3,"name":"Edge_Antenna"},{"mesh":4,"name":"Flash"},{"mesh":5,"name":"Glass"},{"mesh":6,"name":"Glass_Rough"},{"mesh":7,"name":"Glass_Screen"},{"mesh":8,"name":"Gray"},{"mesh":9,"name":"Lens"},{"mesh":10,"name":"LiDAR"},{"mesh":11,"name":"Matte"},{"mesh":12,"name":"Mic"},{"mesh":13,"name":"Plastic"},{"mesh":14,"name":"Screen"},{"mesh":15,"name":"Screen_Edge"},{"mesh":16,"name":"Flat_shadow"},{"mesh":17,"name":"Long_and_smooth_shadow"},{"mesh":18,"name":"Long_shadow"},{"mesh":19,"name":"Standing_shadow"},{"mesh":20,"name":"rotatoTag"}],"meshes":[{"name":"Back","primitives":[{"attributes":{"POSITION":0,"NORMAL":1,"TEXCOORD_0":2},"indices":3,"mode":4}]},{"name":"Black","primitives":[{"attributes":{"POSITION":4,"NORMAL":5,"TEXCOORD_0":6},"indices":7,"mode":4}]},{"name":"Edge","primitives":[{"attributes":{"POSITION":8,"NORMAL":9,"TEXCOORD_0":10},"indices":11,"mode":4}]},{"name":"Edge_Antenna","primitives":[{"attributes":{"POSITION":12,"NORMAL":13,"TEXCOORD_0":14},"indices":15,"mode":4}]},{"name":"Flash","primitives":[{"attributes":{"POSITION":16,"NORMAL":17,"TEXCOORD_0":18},"indices":19,"mode":4}]},{"name":"Glass","primitives":[{"attributes":{"POSITION":20,"NORMAL":21,"TEXCOORD_0":22},"indices":23,"mode":4}]},{"name":"Glass_Rough","primitives":[{"attributes":{"POSITION":24,"NORMAL":25,"TEXCOORD_0":26},"indices":27,"mode":4}]},{"name":"Glass_Screen","primitives":[{"attributes":{"POSITION":28,"NORMAL":29,"TEXCOORD_0":30},"indices":31,"mode":4}]},{"name":"Gray","primitives":[{"attributes":{"POSITION":32,"NORMAL":33,"TEXCOORD_0":34},"indices":35,"mode":4}]},{"name":"Lens","primitives":[{"attributes":{"POSITION":36,"NORMAL":37,"TEXCOORD_0":38},"indices":39,"mode":4}]},{"name":"LiDAR","primitives":[{"attributes":{"POSITION":40,"NORMAL":41,"TEXCOORD_0":42},"indices":43,"mode":4}]},{"name":"Matte","primitives":[{"attributes":{"POSITION":44,"NORMAL":45,"TEXCOORD_0":46},"indices":47,"mode":4}]},{"name":"Mic","primitives":[{"attributes":{"POSITION":48,"NORMAL":49,"TEXCOORD_0":50},"indices":51,"mode":4}]},{"name":"Plastic","primitives":[{"attributes":{"POSITION":52,"NORMAL":53,"TEXCOORD_0":54},"indices":55,"mode":4}]},{"name":"Screen","primitives":[{"attributes":{"POSITION":56,"NORMAL":57,"TEXCOORD_0":58},"indices":59,"mode":4}]},{"name":"Screen_Edge","primitives":[{"attributes":{"POSITION":60,"NORMAL":61,"TEXCOORD_0":62},"indices":63,"mode":4}]},{"name":"Flat_shadow","primitives":[{"attributes":{"POSITION":64,"NORMAL":65,"TEXCOORD_0":66},"indices":67,"mode":4}]},{"name":"Long_and_smooth_shadow","primitives":[{"attributes":{"POSITION":68,"NORMAL":69,"TEXCOORD_0":70},"indices":71,"mode":4}]},{"name":"Long_shadow","primitives":[{"attributes":{"POSITION":72,"NORMAL":73,"TEXCOORD_0":74},"indices":75,"mode":4}]},{"name":"Standing_shadow","primitives":[{"attributes":{"POSITION":76,"NORMAL":77,"TEXCOORD_0":78},"indices":79,"mode":4}]},{"name":"rotatoTag","primitives":[{"attributes":{"POSITION":80,"NORMAL":81,"TEXCOORD_0":82},"indices":83,"mode":4}]}],"accessors":[{"bufferView":0,"byteOffset":0,"componentType":5126,"count":6118,"type":"VEC3","min":[-0.03481000289320946,-0.07240505516529083,-0.004648772068321705],"max":[0.034810006618499756,0.07240504771471024,-0.003468342823907733]},{"bufferView":1,"byteOffset":0,"componentType":5126,"count":6118,"type":"VEC3"},{"bufferView":2,"byteOffset":0,"componentType":5126,"count":6118,"type":"VEC2"},{"bufferView":3,"byteOffset":0,"componentType":5123,"count":34956,"type":"SCALAR"},{"bufferView":4,"byteOffset":0,"componentType":5126,"count":384,"type":"VEC3","min":[0.005354993045330048,0.0408799983561039,-0.0052104671485722065],"max":[0.028495006263256073,0.06609001010656357,-0.005210466682910919]},{"bufferView":5,"byteOffset":0,"componentType":5126,"count":384,"type":"VEC3"},{"bufferView":6,"byteOffset":0,"componentType":5126,"count":384,"type":"VEC2"},{"bufferView":7,"byteOffset":0,"componentType":5123,"count":1152,"type":"SCALAR"},{"bufferView":8,"byteOffset":0,"componentType":5126,"count":17415,"type":"VEC3","min":[-0.03636002913117409,-0.07335500419139862,-0.005415335763245821],"max":[0.03620942309498787,0.07335500419139862,0.0036184086930006742]},{"bufferView":9,"byteOffset":0,"componentType":5126,"count":17415,"type":"VEC3"},{"bufferView":10,"byteOffset":0,"componentType":5126,"count":17415,"type":"VEC2"},{"bufferView":11,"byteOffset":0,"componentType":5123,"count":92652,"type":"SCALAR"},{"bufferView":12,"byteOffset":0,"componentType":5126,"count":469,"type":"VEC3","min":[-0.03575999662280083,-0.07335500419139862,-0.0036184086930006742],"max":[0.035760000348091125,0.07335298508405685,0.0036184086930006742]},{"bufferView":13,"byteOffset":0,"componentType":5126,"count":469,"type":"VEC3"},{"bufferView":14,"byteOffset":0,"componentType":5126,"count":469,"type":"VEC2"},{"bufferView":15,"byteOffset":0,"componentType":5123,"count":1608,"type":"SCALAR"},{"bufferView":16,"byteOffset":0,"componentType":5126,"count":64,"type":"VEC3","min":[0.007283078506588936,0.061218082904815674,-0.004313347395509481],"max":[0.013216918334364891,0.06715191900730133,-0.004313347395509481]},{"bufferView":17,"byteOffset":0,"componentType":5126,"count":64,"type":"VEC3"},{"bufferView":18,"byteOffset":0,"componentType":5126,"count":64,"type":"VEC2"},{"bufferView":19,"byteOffset":0,"componentType":5123,"count":186,"type":"SCALAR"},{"bufferView":20,"byteOffset":0,"componentType":5126,"count":794,"type":"VEC3","min":[0.0027652624994516373,0.038235265761613846,-0.0053124506957829],"max":[0.031084736809134483,0.06873473525047302,-0.004635324701666832]},{"bufferView":21,"byteOffset":0,"componentType":5126,"count":794,"type":"VEC3"},{"bufferView":22,"byteOffset":0,"componentType":5126,"count":794,"type":"VEC2"},{"bufferView":23,"byteOffset":0,"componentType":5123,"count":2388,"type":"SCALAR"},{"bufferView":24,"byteOffset":0,"componentType":5126,"count":3873,"type":"VEC3","min":[-0.03481000289320946,-0.07240505516529083,-0.004635324236005545],"max":[0.034810006618499756,0.07240504771471024,-0.003508352441713214]},{"bufferView":25,"byteOffset":0,"componentType":5126,"count":3873,"type":"VEC3"},{"bufferView":26,"byteOffset":0,"componentType":5126,"count":3873,"type":"VEC2"},{"bufferView":27,"byteOffset":0,"componentType":5123,"count":22326,"type":"SCALAR"},{"bufferView":28,"byteOffset":0,"componentType":5126,"count":1839,"type":"VEC3","min":[-0.034772839397192,-0.07236789166927338,0.0036904311273247004],"max":[0.0347728431224823,0.07236788421869278,0.0036951054353266954]},{"bufferView":29,"byteOffset":0,"componentType":5126,"count":1839,"type":"VEC3"},{"bufferView":30,"byteOffset":0,"componentType":5126,"count":1839,"type":"VEC2"},{"bufferView":31,"byteOffset":0,"componentType":5123,"count":10566,"type":"SCALAR"},{"bufferView":32,"byteOffset":0,"componentType":5126,"count":384,"type":"VEC3","min":[0.006375886499881744,0.04274602234363556,-0.005185178946703672],"max":[0.02662898227572441,0.06422398239374161,-0.0028786666225641966]},{"bufferView":33,"byteOffset":0,"componentType":5126,"count":384,"type":"VEC3"},{"bufferView":34,"byteOffset":0,"componentType":5126,"count":384,"type":"VEC2"},{"bufferView":35,"byteOffset":0,"componentType":5123,"count":1152,"type":"SCALAR"},{"bufferView":36,"byteOffset":0,"componentType":5126,"count":1677,"type":"VEC3","min":[0.008280766196548939,0.044098176062107086,-0.0048477500677108765],"max":[0.025277279317378998,0.06277568638324738,-0.0009090243838727474]},{"bufferView":37,"byteOffset":0,"componentType":5126,"count":1677,"type":"VEC3"},{"bufferView":38,"byteOffset":0,"componentType":5126,"count":1677,"type":"VEC2"},{"bufferView":39,"byteOffset":0,"componentType":5123,"count":8640,"type":"SCALAR"},{"bufferView":40,"byteOffset":0,"componentType":5126,"count":64,"type":"VEC3","min":[0.007233563810586929,0.03976856917142868,-0.003655108157545328],"max":[0.013266434893012047,0.04580143839120865,-0.003655108157545328]},{"bufferView":41,"byteOffset":0,"componentType":5126,"count":64,"type":"VEC3"},{"bufferView":42,"byteOffset":0,"componentType":5126,"count":64,"type":"VEC2"},{"bufferView":43,"byteOffset":0,"componentType":5123,"count":186,"type":"SCALAR"},{"bufferView":44,"byteOffset":0,"componentType":5126,"count":1932,"type":"VEC3","min":[-0.035433389246463776,-0.07306474447250366,-0.0021630539558827877],"max":[0.035538624972105026,0.06057877838611603,0.00216305791400373]},{"bufferView":45,"byteOffset":0,"componentType":5126,"count":1932,"type":"VEC3"},{"bufferView":46,"byteOffset":0,"componentType":5126,"count":1932,"type":"VEC2"},{"bufferView":47,"byteOffset":0,"componentType":5123,"count":2898,"type":"SCALAR"},{"bufferView":48,"byteOffset":0,"componentType":5126,"count":64,"type":"VEC3","min":[0.005073467269539833,0.04551847279071808,-0.004347644280642271],"max":[0.00598653219640255,0.0464315339922905,-0.004347644280642271]},{"bufferView":49,"byteOffset":0,"componentType":5126,"count":64,"type":"VEC3"},{"bufferView":50,"byteOffset":0,"componentType":5126,"count":64,"type":"VEC2"},{"bufferView":51,"byteOffset":0,"componentType":5123,"count":186,"type":"SCALAR"},{"bufferView":52,"byteOffset":0,"componentType":5126,"count":2304,"type":"VEC3","min":[0.005078364163637161,0.04060336947441101,-0.0055147139355540276],"max":[0.02877163514494896,0.06636663526296616,-0.001146587310358882]},{"bufferView":53,"byteOffset":0,"componentType":5126,"count":2304,"type":"VEC3"},{"bufferView":54,"byteOffset":0,"componentType":5126,"count":2304,"type":"VEC2"},{"bufferView":55,"byteOffset":0,"componentType":5123,"count":12672,"type":"SCALAR"},{"bufferView":56,"byteOffset":0,"componentType":5126,"count":1839,"type":"VEC3","min":[-0.034772839397192,-0.07236789166927338,0.0036746656987816095],"max":[0.0347728431224823,0.07236788421869278,0.0036793400067836046]},{"bufferView":57,"byteOffset":0,"componentType":5126,"count":1839,"type":"VEC3"},{"bufferView":58,"byteOffset":0,"componentType":5126,"count":1839,"type":"VEC2"},{"bufferView":59,"byteOffset":0,"componentType":5123,"count":10566,"type":"SCALAR"},{"bufferView":60,"byteOffset":0,"componentType":5126,"count":770,"type":"VEC3","min":[-0.03481000289320946,-0.07240505516529083,0.003508352441713214],"max":[0.034810006618499756,0.07240504771471024,0.003690431360155344]},{"bufferView":61,"byteOffset":0,"componentType":5126,"count":770,"type":"VEC3"},{"bufferView":62,"byteOffset":0,"componentType":5126,"count":770,"type":"VEC2"},{"bufferView":63,"byteOffset":0,"componentType":5123,"count":3696,"type":"SCALAR"},{"bufferView":64,"byteOffset":0,"componentType":5126,"count":4,"type":"VEC3","min":[-1.0,0.0,-1.0],"max":[1.0,0.0,1.0]},{"bufferView":65,"byteOffset":0,"componentType":5126,"count":4,"type":"VEC3"},{"bufferView":66,"byteOffset":0,"componentType":5126,"count":4,"type":"VEC2"},{"bufferView":67,"byteOffset":0,"componentType":5123,"count":6,"type":"SCALAR"},{"bufferView":68,"byteOffset":0,"componentType":5126,"count":4,"type":"VEC3","min":[-1.0,0.0,-1.0],"max":[1.0,0.0,1.0]},{"bufferView":69,"byteOffset":0,"componentType":5126,"count":4,"type":"VEC3"},{"bufferView":70,"byteOffset":0,"componentType":5126,"count":4,"type":"VEC2"},{"bufferView":71,"byteOffset":0,"componentType":5123,"count":6,"type":"SCALAR"},{"bufferView":72,"byteOffset":0,"componentType":5126,"count":4,"type":"VEC3","min":[-1.0,0.0,-1.0],"max":[1.0,0.0,1.0]},{"bufferView":73,"byteOffset":0,"componentType":5126,"count":4,"type":"VEC3"},{"bufferView":74,"byteOffset":0,"componentType":5126,"count":4,"type":"VEC2"},{"bufferView":75,"byteOffset":0,"componentType":5123,"count":6,"type":"SCALAR"},{"bufferView":76,"byteOffset":0,"componentType":5126,"count":4,"type":"VEC3","min":[-1.0,0.0,-1.0],"max":[1.0,0.0,1.0]},{"bufferView":77,"byteOffset":0,"componentType":5126,"count":4,"type":"VEC3"},{"bufferView":78,"byteOffset":0,"componentType":5126,"count":4,"type":"VEC2"},{"bufferView":79,"byteOffset":0,"componentType":5123,"count":6,"type":"SCALAR"},{"bufferView":80,"byteOffset":0,"componentType":5126,"count":32,"type":"VEC3","min":[-1.0000003576278687,-2.000000238418579,-7.549790126404332e-08],"max":[1.0000003576278687,2.000000238418579,7.549790126404332e-08]},{"bufferView":81,"byteOffset":0,"componentType":5126,"count":32,"type":"VEC3"},{"bufferView":82,"byteOffset":0,"componentType":5126,"count":32,"type":"VEC2"},{"bufferView":83,"byteOffset":0,"componentType":5123,"count":90,"type":"SCALAR"}],"bufferViews":[{"buffer":0,"byteOffset":0,"byteLength":73416,"target":34962},{"buffer":0,"byteOffset":73416,"byteLength":73416,"target":34962},{"buffer":0,"byteOffset":146832,"byteLength":48944,"target":34962},{"buffer":0,"byteOffset":195776,"byteLength":69912,"target":34963},{"buffer":0,"byteOffset":265688,"byteLength":4608,"target":34962},{"buffer":0,"byteOffset":270296,"byteLength":4608,"target":34962},{"buffer":0,"byteOffset":274904,"byteLength":3072,"target":34962},{"buffer":0,"byteOffset":277976,"byteLength":2304,"target":34963},{"buffer":0,"byteOffset":280280,"byteLength":208980,"target":34962},{"buffer":0,"byteOffset":489260,"byteLength":208980,"target":34962},{"buffer":0,"byteOffset":698240,"byteLength":139320,"target":34962},{"buffer":0,"byteOffset":837560,"byteLength":185304,"target":34963},{"buffer":0,"byteOffset":1022864,"byteLength":5628,"target":34962},{"buffer":0,"byteOffset":1028492,"byteLength":5628,"target":34962},{"buffer":0,"byteOffset":1034120,"byteLength":3752,"target":34962},{"buffer":0,"byteOffset":1037872,"byteLength":3216,"target":34963},{"buffer":0,"byteOffset":1041088,"byteLength":768,"target":34962},{"buffer":0,"byteOffset":1041856,"byteLength":768,"target":34962},{"buffer":0,"byteOffset":1042624,"byteLength":512,"target":34962},{"buffer":0,"byteOffset":1043136,"byteLength":372,"target":34963},{"buffer":0,"byteOffset":1043508,"byteLength":9528,"target":34962},{"buffer":0,"byteOffset":1053036,"byteLength":9528,"target":34962},{"buffer":0,"byteOffset":1062564,"byteLength":6352,"target":34962},{"buffer":0,"byteOffset":1068916,"byteLength":4776,"target":34963},{"buffer":0,"byteOffset":1073692,"byteLength":46476,"target":34962},{"buffer":0,"byteOffset":1120168,"byteLength":46476,"target":34962},{"buffer":0,"byteOffset":1166644,"byteLength":30984,"target":34962},{"buffer":0,"byteOffset":1197628,"byteLength":44652,"target":34963},{"buffer":0,"byteOffset":1242280,"byteLength":22068,"target":34962},{"buffer":0,"byteOffset":1264348,"byteLength":22068,"target":34962},{"buffer":0,"byteOffset":1286416,"byteLength":14712,"target":34962},{"buffer":0,"byteOffset":1301128,"byteLength":21132,"target":34963},{"buffer":0,"byteOffset":1322260,"byteLength":4608,"target":34962},{"buffer":0,"byteOffset":1326868,"byteLength":4608,"target":34962},{"buffer":0,"byteOffset":1331476,"byteLength":3072,"target":34962},{"buffer":0,"byteOffset":1334548,"byteLength":2304,"target":34963},{"buffer":0,"byteOffset":1336852,"byteLength":20124,"target":34962},{"buffer":0,"byteOffset":1356976,"byteLength":20124,"target":34962},{"buffer":0,"byteOffset":1377100,"byteLength":13416,"target":34962},{"buffer":0,"byteOffset":1390516,"byteLength":17280,"target":34963},{"buffer":0,"byteOffset":1407796,"byteLength":768,"target":34962},{"buffer":0,"byteOffset":1408564,"byteLength":768,"target":34962},{"buffer":0,"byteOffset":1409332,"byteLength":512,"target":34962},{"buffer":0,"byteOffset":1409844,"byteLength":372,"target":34963},{"buffer":0,"byteOffset":1410216,"byteLength":23184,"target":34962},{"buffer":0,"byteOffset":1433400,"byteLength":23184,"target":34962},{"buffer":0,"byteOffset":1456584,"byteLength":15456,"target":34962},{"buffer":0,"byteOffset":1472040,"byteLength":5796,"target":34963},{"buffer":0,"byteOffset":1477836,"byteLength":768,"target":34962},{"buffer":0,"byteOffset":1478604,"byteLength":768,"target":34962},{"buffer":0,"byteOffset":1479372,"byteLength":512,"target":34962},{"buffer":0,"byteOffset":1479884,"byteLength":372,"target":34963},{"buffer":0,"byteOffset":1480256,"byteLength":27648,"target":34962},{"buffer":0,"byteOffset":1507904,"byteLength":27648,"target":34962},{"buffer":0,"byteOffset":1535552,"byteLength":18432,"target":34962},{"buffer":0,"byteOffset":1553984,"byteLength":25344,"target":34963},{"buffer":0,"byteOffset":1579328,"byteLength":22068,"target":34962},{"buffer":0,"byteOffset":1601396,"byteLength":22068,"target":34962},{"buffer":0,"byteOffset":1623464,"byteLength":14712,"target":34962},{"buffer":0,"byteOffset":1638176,"byteLength":21132,"target":34963},{"buffer":0,"byteOffset":1659308,"byteLength":9240,"target":34962},{"buffer":0,"byteOffset":1668548,"byteLength":9240,"target":34962},{"buffer":0,"byteOffset":1677788,"byteLength":6160,"target":34962},{"buffer":0,"byteOffset":1683948,"byteLength":7392,"target":34963},{"buffer":0,"byteOffset":1691340,"byteLength":48,"target":34962},{"buffer":0,"byteOffset":1691388,"byteLength":48,"target":34962},{"buffer":0,"byteOffset":1691436,"byteLength":32,"target":34962},{"buffer":0,"byteOffset":1691468,"byteLength":12,"target":34963},{"buffer":0,"byteOffset":1691480,"byteLength":48,"target":34962},{"buffer":0,"byteOffset":1691528,"byteLength":48,"target":34962},{"buffer":0,"byteOffset":1691576,"byteLength":32,"target":34962},{"buffer":0,"byteOffset":1691608,"byteLength":12,"target":34963},{"buffer":0,"byteOffset":1691620,"byteLength":48,"target":34962},{"buffer":0,"byteOffset":1691668,"byteLength":48,"target":34962},{"buffer":0,"byteOffset":1691716,"byteLength":32,"target":34962},{"buffer":0,"byteOffset":1691748,"byteLength":12,"target":34963},{"buffer":0,"byteOffset":1691760,"byteLength":48,"target":34962},{"buffer":0,"byteOffset":1691808,"byteLength":48,"target":34962},{"buffer":0,"byteOffset":1691856,"byteLength":32,"target":34962},{"buffer":0,"byteOffset":1691888,"byteLength":12,"target":34963},{"buffer":0,"byteOffset":1691900,"byteLength":384,"target":34962},{"buffer":0,"byteOffset":1692284,"byteLength":384,"target":34962},{"buffer":0,"byteOffset":1692668,"byteLength":256,"target":34962},{"buffer":0,"byteOffset":1692924,"byteLength":180,"target":34963}],"buffers":[{"byteLength":1693104,"uri":"data:application/octet-stream;base64,"}]}