{"asset":{"version":"2.0","generator":"rotato_extract.py"},"scene":0,"scenes":[{"nodes":[0,1,2,3,4,5,6,7,8,9,10,11,12,13,14,15,16,17,18,19,20]}],"nodes":[{"mesh":0,"name":"Back"},{"mesh":1,"name":"Black"},{"mesh":2,"name":"Edge"},{"mesh":3,"name":"Edge_Antenna"},{"mesh":4,"name":"Flash"},{"mesh":5,"name":"Glass"},{"mesh":6,"name":"Glass_Back"},{"mesh":7,"name":"Glass_Rough"},{"mesh":8,"name":"Glass_Screen"},{"mesh":9,"name":"Gray"},{"mesh":10,"name":"Lens"},{"mesh":11,"name":"Matte"},{"mesh":12,"name":"Mic"},{"mesh":13,"name":"Plastic"},{"mesh":14,"name":"Screen"},{"mesh":15,"name":"Screen_Edge"},{"mesh":16,"name":"Screen_Edge_001"},{"mesh":17,"name":"Bottom_shadow_plane"},{"mesh":18,"name":"Plane"},{"mesh":19,"name":"plane"},{"mesh":20,"name":"rotatoTag"}],"meshes":[{"name":"Back","primitives":[{"attributes":{"POSITION":0,"NORMAL":1,"TEXCOORD_0":2},"indices":3,"mode":4}]},{"name":"Black","primitives":[{"attributes":{"POSITION":4,"NORMAL":5,"TEXCOORD_0":6},"indices":7,"mode":4}]},{"name":"Edge","primitives":[{"attributes":{"POSITION":8,"NORMAL":9,"TEXCOORD_0":10},"indices":11,"mode":4}]},{"name":"Edge_Antenna","primitives":[{"attributes":{"POSITION":12,"NORMAL":13,"TEXCOORD_0":14},"indices":15,"mode":4}]},{"name":"Flash","primitives":[{"attributes":{"POSITION":16,"NORMAL":17,"TEXCOORD_0":18},"indices":19,"mode":4}]},{"name":"Glass","primitives":[{"attributes":{"POSITION":20,"NORMAL":21,"TEXCOORD_0":22},"indices":23,"mode":4}]},{"name":"Glass_Back","primitives":[{"attributes":{"POSITION":24,"NORMAL":25,"TEXCOORD_0":26},"indices":27,"mode":4}]},{"name":"Glass_Rough","primitives":[{"attributes":{"POSITION":28,"NORMAL":29,"TEXCOORD_0":30},"indices":31,"mode":4}]},{"name":"Glass_Screen","primitives":[{"attributes":{"POSITION":32,"NORMAL":33,"TEXCOORD_0":34},"indices":35,"mode":4}]},{"name":"Gray","primitives":[{"attributes":{"POSITION":36,"NORMAL":37,"TEXCOORD_0":38},"indices":39,"mode":4}]},{"name":"Lens","primitives":[{"attributes":{"POSITION":40,"NORMAL":41,"TEXCOORD_0":42},"indices":43,"mode":4}]},{"name":"Matte","primitives":[{"attributes":{"POSITION":44,"NORMAL":45,"TEXCOORD_0":46},"indices":47,"mode":4}]},{"name":"Mic","primitives":[{"attributes":{"POSITION":48,"NORMAL":49,"TEXCOORD_0":50},"indices":51,"mode":4}]},{"name":"Plastic","primitives":[{"attributes":{"POSITION":52,"NORMAL":53,"TEXCOORD_0":54},"indices":55,"mode":4}]},{"name":"Screen","primitives":[{"attributes":{"POSITION":56,"NORMAL":57,"TEXCOORD_0":58},"indices":59,"mode":4}]},{"name":"Screen_Edge","primitives":[{"attributes":{"POSITION":60,"NORMAL":61,"TEXCOORD_0":62},"indices":63,"mode":4}]},{"name":"Screen_Edge_001","primitives":[{"attributes":{"POSITION":64,"NORMAL":65,"TEXCOORD_0":66},"indices":67,"mode":4}]},{"name":"Bottom_shadow_plane","primitives":[{"attributes":{"POSITION":68,"NORMAL":69,"TEXCOORD_0":70},"indices":71,"mode":4}]},{"name":"Plane","primitives":[{"attributes":{"POSITION":72,"NORMAL":73,"TEXCOORD_0":74},"indices":75,"mode":4}]},{"name":"plane","primitives":[{"attributes":{"POSITION":76,"NORMAL":77,"TEXCOORD_0":78},"indices":79,"mode":4}]},{"name":"rotatoTag","primitives":[{"attributes":{"POSITION":80,"NORMAL":81,"TEXCOORD_0":82},"indices":83,"mode":4}]}],"accessors":[{"bufferView":0,"byteOffset":0,"componentType":5126,"count":4279,"type":"VEC3","min":[-0.03481000289320946,-0.07240505516529083,-0.00442506093531847],"max":[0.034810006618499756,0.07240504771471024,-0.003439374966546893]},{"bufferView":1,"byteOffset":0,"componentType":5126,"count":4279,"type":"VEC3"},{"bufferView":2,"byteOffset":0,"componentType":5126,"count":4279,"type":"VEC2"},{"bufferView":3,"byteOffset":0,"componentType":5123,"count":23730,"type":"SCALAR"},{"bufferView":4,"byteOffset":0,"componentType":5126,"count":256,"type":"VEC3","min":[0.005458777770400047,0.0415072962641716,-0.0049607520923018456],"max":[0.02793063595890999,0.06557022035121918,-0.004960749763995409]},{"bufferView":5,"byteOffset":0,"componentType":5126,"count":256,"type":"VEC3"},{"bufferView":6,"byteOffset":0,"componentType":5126,"count":256,"type":"VEC2"},{"bufferView":7,"byteOffset":0,"componentType":5123,"count":768,"type":"SCALAR"},{"bufferView":8,"byteOffset":0,"componentType":5126,"count":16775,"type":"VEC3","min":[-0.03636002913117409,-0.07335500419139862,-0.005269859451800585],"max":[0.03620942309498787,0.07335500419139862,0.0036184086930006742]},{"bufferView":9,"byteOffset":0,"componentType":5126,"count":16775,"type":"VEC3"},{"bufferView":10,"byteOffset":0,"componentType":5126,"count":16775,"type":"VEC2"},{"bufferView":11,"byteOffset":0,"componentType":5123,"count":89964,"type":"SCALAR"},{"bufferView":12,"byteOffset":0,"componentType":5126,"count":469,"type":"VEC3","min":[-0.03575999662280083,-0.07335500419139862,-0.0036184086930006742],"max":[0.035760000348091125,0.07335298508405685,0.0036184086930006742]},{"bufferView":13,"byteOffset":0,"componentType":5126,"count":469,"type":"VEC3"},{"bufferView":14,"byteOffset":0,"componentType":5126,"count":469,"type":"VEC2"},{"bufferView":15,"byteOffset":0,"componentType":5123,"count":1608,"type":"SCALAR"},{"bufferView":16,"byteOffset":0,"componentType":5126,"count":64,"type":"VEC3","min":[0.007821457460522652,0.05803116783499718,-0.004087297711521387],"max":[0.0131385438144207,0.06334824115037918,-0.004087297711521387]},{"bufferView":17,"byteOffset":0,"componentType":5126,"count":64,"type":"VEC3"},{"bufferView":18,"byteOffset":0,"componentType":5126,"count":64,"type":"VEC2"},{"bufferView":19,"byteOffset":0,"componentType":5123,"count":186,"type":"SCALAR"},{"bufferView":20,"byteOffset":0,"componentType":5126,"count":128,"type":"VEC3","min":[0.005458777770400047,0.0415072962641716,-0.005092845298349857],"max":[0.02793063595890999,0.06557022035121918,-0.00509284483268857]},{"bufferView":21,"byteOffset":0,"componentType":5126,"count":128,"type":"VEC3"},{"bufferView":22,"byteOffset":0,"componentType":5126,"count":128,"type":"VEC2"},{"bufferView":23,"byteOffset":0,"componentType":5123,"count":372,"type":"SCALAR"},{"bufferView":24,"byteOffset":0,"componentType":5126,"count":2487,"type":"VEC3","min":[-0.03481000289320946,-0.07240505516529083,-0.004425060469657183],"max":[0.034810006618499756,0.07240504771471024,-0.003508352441713214]},{"bufferView":25,"byteOffset":0,"componentType":5126,"count":2487,"type":"VEC3"},{"bufferView":26,"byteOffset":0,"componentType":5126,"count":2487,"type":"VEC2"},{"bufferView":27,"byteOffset":0,"componentType":5123,"count":14220,"type":"SCALAR"},{"bufferView":28,"byteOffset":0,"componentType":5126,"count":392,"type":"VEC3","min":[0.0033425595611333847,0.03907756134867668,-0.004427472595125437],"max":[0.030167439952492714,0.06807243824005127,-0.0044250451028347015]},{"bufferView":29,"byteOffset":0,"componentType":5126,"count":392,"type":"VEC3"},{"bufferView":30,"byteOffset":0,"componentType":5126,"count":392,"type":"VEC2"},{"bufferView":31,"byteOffset":0,"componentType":5123,"count":1158,"type":"SCALAR"},{"bufferView":32,"byteOffset":0,"componentType":5126,"count":996,"type":"VEC3","min":[-0.032290782779455185,-0.06988593190908432,0.003695105202496052],"max":[0.032290782779455185,0.06988591700792313,0.003695105202496052]},{"bufferView":33,"byteOffset":0,"componentType":5126,"count":996,"type":"VEC3"},{"bufferView":34,"byteOffset":0,"componentType":5126,"count":996,"type":"VEC2"},{"bufferView":35,"byteOffset":0,"componentType":5123,"count":5376,"type":"SCALAR"},{"bufferView":36,"byteOffset":0,"componentType":5126,"count":320,"type":"VEC3","min":[-0.01095768716186285,0.043517351150512695,-0.004919885657727718],"max":[0.026895858347415924,0.0692472755908966,0.0036395329516381025]},{"bufferView":37,"byteOffset":0,"componentType":5126,"count":320,"type":"VEC3"},{"bufferView":38,"byteOffset":0,"componentType":5126,"count":320,"type":"VEC2"},{"bufferView":39,"byteOffset":0,"componentType":5123,"count":960,"type":"SCALAR"},{"bufferView":40,"byteOffset":0,"componentType":5126,"count":1677,"type":"VEC3","min":[-0.010329898446798325,0.044928379356861115,-0.004601717926561832],"max":[0.024702901020646095,0.06861962378025055,0.003435365855693817]},{"bufferView":41,"byteOffset":0,"componentType":5126,"count":1677,"type":"VEC3"},{"bufferView":42,"byteOffset":0,"componentType":5126,"count":1677,"type":"VEC2"},{"bufferView":43,"byteOffset":0,"componentType":5123,"count":8640,"type":"SCALAR"},{"bufferView":44,"byteOffset":0,"componentType":5126,"count":2694,"type":"VEC3","min":[-0.03557438403367996,-0.0732705220580101,-0.0024625281803309917],"max":[0.03547453135251999,0.07275868952274323,0.0033509614877402782]},{"bufferView":45,"byteOffset":0,"componentType":5126,"count":2694,"type":"VEC3"},{"bufferView":46,"byteOffset":0,"componentType":5126,"count":2694,"type":"VEC2"},{"bufferView":47,"byteOffset":0,"componentType":5123,"count":14154,"type":"SCALAR"},{"bufferView":48,"byteOffset":0,"componentType":5126,"count":64,"type":"VEC3","min":[0.022008109837770462,0.04532461240887642,-0.0041290209628641605],"max":[0.024013422429561615,0.04732992872595787,-0.0041290209628641605]},{"bufferView":49,"byteOffset":0,"componentType":5126,"count":64,"type":"VEC3"},{"bufferView":50,"byteOffset":0,"componentType":5126,"count":64,"type":"VEC2"},{"bufferView":51,"byteOffset":0,"componentType":5123,"count":186,"type":"SCALAR"},{"bufferView":52,"byteOffset":0,"componentType":5126,"count":27364,"type":"VEC3","min":[-0.006462590303272009,0.041157715022563934,-0.005352430511265993],"max":[0.028280217200517654,0.07283756136894226,0.0031814207322895527]},{"bufferView":53,"byteOffset":0,"componentType":5126,"count":27364,"type":"VEC3"},{"bufferView":54,"byteOffset":0,"componentType":5126,"count":27364,"type":"VEC2"},{"bufferView":55,"byteOffset":0,"componentType":5123,"count":53268,"type":"SCALAR"},{"bufferView":56,"byteOffset":0,"componentType":5126,"count":996,"type":"VEC3","min":[-0.032290782779455185,-0.06988593190908432,0.00368491280823946],"max":[0.032290782779455185,0.06988591700792313,0.00368491280823946]},{"bufferView":57,"byteOffset":0,"componentType":5126,"count":996,"type":"VEC3"},{"bufferView":58,"byteOffset":0,"componentType":5126,"count":996,"type":"VEC2"},{"bufferView":59,"byteOffset":0,"componentType":5123,"count":5376,"type":"SCALAR"},{"bufferView":60,"byteOffset":0,"componentType":5126,"count":2018,"type":"VEC3","min":[-0.03481000289320946,-0.07240505516529083,0.0033631257247179747],"max":[0.034810006618499756,0.07240504771471024,0.0036951054353266954]},{"bufferView":61,"byteOffset":0,"componentType":5126,"count":2018,"type":"VEC3"},{"bufferView":62,"byteOffset":0,"componentType":5126,"count":2018,"type":"VEC2"},{"bufferView":63,"byteOffset":0,"componentType":5123,"count":10443,"type":"SCALAR"},{"bufferView":64,"byteOffset":0,"componentType":5126,"count":46,"type":"VEC3","min":[-0.010900307446718216,0.06658018380403519,0.003695104969665408],"max":[-0.008290586061775684,0.0691898986697197,0.003695105202496052]},{"bufferView":65,"byteOffset":0,"componentType":5126,"count":46,"type":"VEC3"},{"bufferView":66,"byteOffset":0,"componentType":5126,"count":46,"type":"VEC2"},{"bufferView":67,"byteOffset":0,"componentType":5123,"count":132,"type":"SCALAR"},{"bufferView":68,"byteOffset":0,"componentType":5126,"count":4,"type":"VEC3","min":[-1.0,0.0,-1.0],"max":[1.0,0.0,1.0]},{"bufferView":69,"byteOffset":0,"componentType":5126,"count":4,"type":"VEC3"},{"bufferView":70,"byteOffset":0,"componentType":5126,"count":4,"type":"VEC2"},{"bufferView":71,"byteOffset":0,"componentType":5123,"count":6,"type":"SCALAR"},{"bufferView":72,"byteOffset":0,"componentType":5126,"count":4,"type":"VEC3","min":[-1.0,0.0,-1.0],"max":[1.0,0.0,1.0]},{"bufferView":73,"byteOffset":0,"componentType":5126,"count":4,"type":"VEC3"},{"bufferView":74,"byteOffset":0,"componentType":5126,"count":4,"type":"VEC2"},{"bufferView":75,"byteOffset":0,"componentType":5123,"count":6,"type":"SCALAR"},{"bufferView":76,"byteOffset":0,"componentType":5126,"count":4,"type":"VEC3","min":[-1.0,0.0,-1.0],"max":[1.0,0.0,1.0]},{"bufferView":77,"byteOffset":0,"componentType":5126,"count":4,"type":"VEC3"},{"bufferView":78,"byteOffset":0,"componentType":5126,"count":4,"type":"VEC2"},{"bufferView":79,"byteOffset":0,"componentType":5123,"count":6,"type":"SCALAR"},{"bufferView":80,"byteOffset":0,"componentType":5126,"count":32,"type":"VEC3","min":[-1.0000003576278687,-2.000000238418579,-7.549790126404332e-08],"max":[1.0000003576278687,2.000000238418579,7.549790126404332e-08]},{"bufferView":81,"byteOffset":0,"componentType":5126,"count":32,"type":"VEC3"},{"bufferView":82,"byteOffset":0,"componentType":5126,"count":32,"type":"VEC2"},{"bufferView":83,"byteOffset":0,"componentType":5123,"count":90,"type":"SCALAR"}],"bufferViews":[{"buffer":0,"byteOffset":0,"byteLength":51348,"target":34962},{"buffer":0,"byteOffset":51348,"byteLength":51348,"target":34962},{"buffer":0,"byteOffset":102696,"byteLength":34232,"target":34962},{"buffer":0,"byteOffset":136928,"byteLength":47460,"target":34963},{"buffer":0,"byteOffset":184388,"byteLength":3072,"target":34962},{"buffer":0,"byteOffset":187460,"byteLength":3072,"target":34962},{"buffer":0,"byteOffset":190532,"byteLength":2048,"target":34962},{"buffer":0,"byteOffset":192580,"byteLength":1536,"target":34963},{"buffer":0,"byteOffset":194116,"byteLength":201300,"target":34962},{"buffer":0,"byteOffset":395416,"byteLength":201300,"target":34962},{"buffer":0,"byteOffset":596716,"byteLength":134200,"target":34962},{"buffer":0,"byteOffset":730916,"byteLength":179928,"target":34963},{"buffer":0,"byteOffset":910844,"byteLength":5628,"target":34962},{"buffer":0,"byteOffset":916472,"byteLength":5628,"target":34962},{"buffer":0,"byteOffset":922100,"byteLength":3752,"target":34962},{"buffer":0,"byteOffset":925852,"byteLength":3216,"target":34963},{"buffer":0,"byteOffset":929068,"byteLength":768,"target":34962},{"buffer":0,"byteOffset":929836,"byteLength":768,"target":34962},{"buffer":0,"byteOffset":930604,"byteLength":512,"target":34962},{"buffer":0,"byteOffset":931116,"byteLength":372,"target":34963},{"buffer":0,"byteOffset":931488,"byteLength":1536,"target":34962},{"buffer":0,"byteOffset":933024,"byteLength":1536,"target":34962},{"buffer":0,"byteOffset":934560,"byteLength":1024,"target":34962},{"buffer":0,"byteOffset":935584,"byteLength":744,"target":34963},{"buffer":0,"byteOffset":936328,"byteLength":29844,"target":34962},{"buffer":0,"byteOffset":966172,"byteLength":29844,"target":34962},{"buffer":0,"byteOffset":996016,"byteLength":19896,"target":34962},{"buffer":0,"byteOffset":1015912,"byteLength":28440,"target":34963},{"buffer":0,"byteOffset":1044352,"byteLength":4704,"target":34962},{"buffer":0,"byteOffset":1049056,"byteLength":4704,"target":34962},{"buffer":0,"byteOffset":1053760,"byteLength":3136,"target":34962},{"buffer":0,"byteOffset":1056896,"byteLength":2316,"target":34963},{"buffer":0,"byteOffset":1059212,"byteLength":11952,"target":34962},{"buffer":0,"byteOffset":1071164,"byteLength":11952,"target":34962},{"buffer":0,"byteOffset":1083116,"byteLength":7968,"target":34962},{"buffer":0,"byteOffset":1091084,"byteLength":10752,"target":34963},{"buffer":0,"byteOffset":1101836,"byteLength":3840,"target":34962},{"buffer":0,"byteOffset":1105676,"byteLength":3840,"target":34962},{"buffer":0,"byteOffset":1109516,"byteLength":2560,"target":34962},{"buffer":0,"byteOffset":1112076,"byteLength":1920,"target":34963},{"buffer":0,"byteOffset":1113996,"byteLength":20124,"target":34962},{"buffer":0,"byteOffset":1134120,"byteLength":20124,"target":34962},{"buffer":0,"byteOffset":1154244,"byteLength":13416,"target":34962},{"buffer":0,"byteOffset":1167660,"byteLength":17280,"target":34963},{"buffer":0,"byteOffset":1184940,"byteLength":32328,"target":34962},{"buffer":0,"byteOffset":1217268,"byteLength":32328,"target":34962},{"buffer":0,"byteOffset":1249596,"byteLength":21552,"target":34962},{"buffer":0,"byteOffset":1271148,"byteLength":28308,"target":34963},{"buffer":0,"byteOffset":1299456,"byteLength":768,"target":34962},{"buffer":0,"byteOffset":1300224,"byteLength":768,"target":34962},{"buffer":0,"byteOffset":1300992,"byteLength":512,"target":34962},{"buffer":0,"byteOffset":1301504,"byteLength":372,"target":34963},{"buffer":0,"byteOffset":1301876,"byteLength":328368,"target":34962},{"buffer":0,"byteOffset":1630244,"byteLength":328368,"target":34962},{"buffer":0,"byteOffset":1958612,"byteLength":218912,"target":34962},{"buffer":0,"byteOffset":2177524,"byteLength":106536,"target":34963},{"buffer":0,"byteOffset":2284060,"byteLength":11952,"target":34962},{"buffer":0,"byteOffset":2296012,"byteLength":11952,"target":34962},{"buffer":0,"byteOffset":2307964,"byteLength":7968,"target":34962},{"buffer":0,"byteOffset":2315932,"byteLength":10752,"target":34963},{"buffer":0,"byteOffset":2326684,"byteLength":24216,"target":34962},{"buffer":0,"byteOffset":2350900,"byteLength":24216,"target":34962},{"buffer":0,"byteOffset":2375116,"byteLength":16144,"target":34962},{"buffer":0,"byteOffset":2391260,"byteLength":20886,"target":34963},{"buffer":0,"byteOffset":2412148,"byteLength":552,"target":34962},{"buffer":0,"byteOffset":2412700,"byteLength":552,"target":34962},{"buffer":0,"byteOffset":2413252,"byteLength":368,"target":34962},{"buffer":0,"byteOffset":2413620,"byteLength":264,"target":34963},{"buffer":0,"byteOffset":2413884,"byteLength":48,"target":34962},{"buffer":0,"byteOffset":2413932,"byteLength":48,"target":34962},{"buffer":0,"byteOffset":2413980,"byteLength":32,"target":34962},{"buffer":0,"byteOffset":2414012,"byteLength":12,"target":34963},{"buffer":0,"byteOffset":2414024,"byteLength":48,"target":34962},{"buffer":0,"byteOffset":2414072,"byteLength":48,"target":34962},{"buffer":0,"byteOffset":2414120,"byteLength":32,"target":34962},{"buffer":0,"byteOffset":2414152,"byteLength":12,"target":34963},{"buffer":0,"byteOffset":2414164,"byteLength":48,"target":34962},{"buffer":0,"byteOffset":2414212,"byteLength":48,"target":34962},{"buffer":0,"byteOffset":2414260,"byteLength":32,"target":34962},{"buffer":0,"byteOffset":2414292,"byteLength":12,"target":34963},{"buffer":0,"byteOffset":2414304,"byteLength":384,"target":34962},{"buffer":0,"byteOffset":2414688,"byteLength":384,"target":34962},{"buffer":0,"byteOffset":2415072,"byteLength":256,"target":34962},{"buffer":0,"byteOffset":2415328,"byteLength":180,"target":34963}],"buffers":[{"byteLength":2415508,"uri":"data:application/octet-stream;base64,"}]}