{"asset":{"version":"2.0","generator":"rotato_extract.py"},"scene":0,"scenes":[{"nodes":[0,1,2,3,4,5,6,7,8,9,10,11,12,13,14,15,16]}],"nodes":[{"mesh":0,"name":"Back"},{"mesh":1,"name":"Black"},{"mesh":2,"name":"Camera_Module"},{"mesh":3,"name":"Edge"},{"mesh":4,"name":"Edge_Antenna"},{"mesh":5,"name":"Flash"},{"mesh":6,"name":"Glass"},{"mesh":7,"name":"Glass_Screen"},{"mesh":8,"name":"Gray"},{"mesh":9,"name":"Lens"},{"mesh":10,"name":"Matte"},{"mesh":11,"name":"Matte_001"},{"mesh":12,"name":"Screen"},{"mesh":13,"name":"Screen_Edge"},{"mesh":14,"name":"Long_shadow_plane"},{"mesh":15,"name":"Plane"},{"mesh":16,"name":"rotatoTag"}],"meshes":[{"name":"Back","primitives":[{"attributes":{"POSITION":0,"NORMAL":1,"TEXCOORD_0":2},"indices":3,"mode":4}]},{"name":"Black","primitives":[{"attributes":{"POSITION":4,"NORMAL":5,"TEXCOORD_0":6},"indices":7,"mode":4}]},{"name":"Camera_Module","primitives":[{"attributes":{"POSITION":8,"NORMAL":9,"TEXCOORD_0":10},"indices":11,"mode":4}]},{"name":"Edge","primitives":[{"attributes":{"POSITION":12,"NORMAL":13,"TEXCOORD_0":14},"indices":15,"mode":4}]},{"name":"Edge_Antenna","primitives":[{"attributes":{"POSITION":16,"NORMAL":17,"TEXCOORD_0":18},"indices":19,"mode":4}]},{"name":"Flash","primitives":[{"attributes":{"POSITION":20,"NORMAL":21,"TEXCOORD_0":22},"indices":23,"mode":4}]},{"name":"Glass","primitives":[{"attributes":{"POSITION":24,"NORMAL":25,"TEXCOORD_0":26},"indices":27,"mode":4}]},{"name":"Glass_Screen","primitives":[{"attributes":{"POSITION":28,"NORMAL":29,"TEXCOORD_0":30},"indices":31,"mode":4}]},{"name":"Gray","primitives":[{"attributes":{"POSITION":32,"NORMAL":33,"TEXCOORD_0":34},"indices":35,"mode":4}]},{"name":"Lens","primitives":[{"attributes":{"POSITION":36,"NORMAL":37,"TEXCOORD_0":38},"indices":39,"mode":4}]},{"name":"Matte","primitives":[{"attributes":{"POSITION":40,"NORMAL":41,"TEXCOORD_0":42},"indices":43,"mode":4}]},{"name":"Matte_001","primitives":[{"attributes":{"POSITION":44,"NORMAL":45,"TEXCOORD_0":46},"indices":47,"mode":4}]},{"name":"Screen","primitives":[{"attributes":{"POSITION":48,"NORMAL":49,"TEXCOORD_0":50},"indices":51,"mode":4}]},{"name":"Screen_Edge","primitives":[{"attributes":{"POSITION":52,"NORMAL":53,"TEXCOORD_0":54},"indices":55,"mode":4}]},{"name":"Long_shadow_plane","primitives":[{"attributes":{"POSITION":56,"NORMAL":57,"TEXCOORD_0":58},"indices":59,"mode":4}]},{"name":"Plane","primitives":[{"attributes":{"POSITION":60,"NORMAL":61,"TEXCOORD_0":62},"indices":63,"mode":4}]},{"name":"rotatoTag","primitives":[{"attributes":{"POSITION":64,"NORMAL":65,"TEXCOORD_0":66},"indices":67,"mode":4}]}],"accessors":[{"bufferView":0,"byteOffset":0,"componentType":5126,"count":1311,"type":"VEC3","min":[-0.037391431629657745,-0.08147367089986801,-0.0041038659401237965],"max":[0.037391431629657745,0.08148862421512604,-0.00014184595784172416]},{"bufferView":1,"byteOffset":0,"componentType":5126,"count":1311,"type":"VEC3"},{"bufferView":2,"byteOffset":0,"componentType":5126,"count":1311,"type":"VEC2"},{"bufferView":3,"byteOffset":0,"componentType":5123,"count":7398,"type":"SCALAR"},{"bufferView":4,"byteOffset":0,"componentType":5126,"count":256,"type":"VEC3","min":[0.0032608117908239365,0.03090743161737919,-0.005697686690837145],"max":[0.029528938233852386,0.07652337104082108,-0.005218894220888615]},{"bufferView":5,"byteOffset":0,"componentType":5126,"count":256,"type":"VEC3"},{"bufferView":6,"byteOffset":0,"componentType":5126,"count":256,"type":"VEC2"},{"bufferView":7,"byteOffset":0,"componentType":5123,"count":768,"type":"SCALAR"},{"bufferView":8,"byteOffset":0,"componentType":5126,"count":2019,"type":"VEC3","min":[0.0008969517075456679,0.026403555646538734,-0.006014812272042036],"max":[0.035079777240753174,0.08056037873029709,-0.0028763392474502325]},{"bufferView":9,"byteOffset":0,"componentType":5126,"count":2019,"type":"VEC3"},{"bufferView":10,"byteOffset":0,"componentType":5126,"count":2019,"type":"VEC2"},{"bufferView":11,"byteOffset":0,"componentType":5123,"count":10983,"type":"SCALAR"},{"bufferView":12,"byteOffset":0,"componentType":5126,"count":10253,"type":"VEC3","min":[-0.037757378071546555,-0.08250834047794342,-0.005990952253341675],"max":[0.03828631341457367,0.08250834047794342,0.004729445092380047]},{"bufferView":13,"byteOffset":0,"componentType":5126,"count":10253,"type":"VEC3"},{"bufferView":14,"byteOffset":0,"componentType":5126,"count":10253,"type":"VEC2"},{"bufferView":15,"byteOffset":0,"componentType":5123,"count":53151,"type":"SCALAR"},{"bufferView":16,"byteOffset":0,"componentType":5126,"count":272,"type":"VEC3","min":[-0.037757374346256256,-0.08250834047794342,-0.0034380899742245674],"max":[0.03775737062096596,0.08250834047794342,0.0047294446267187595]},{"bufferView":17,"byteOffset":0,"componentType":5126,"count":272,"type":"VEC3"},{"bufferView":18,"byteOffset":0,"componentType":5126,"count":272,"type":"VEC2"},{"bufferView":19,"byteOffset":0,"componentType":5123,"count":780,"type":"SCALAR"},{"bufferView":20,"byteOffset":0,"componentType":5126,"count":64,"type":"VEC3","min":[0.0033888230100274086,0.059815868735313416,-0.0057822600938379765],"max":[0.012283745221793652,0.07514522224664688,-0.005512875970453024]},{"bufferView":21,"byteOffset":0,"componentType":5126,"count":64,"type":"VEC3"},{"bufferView":22,"byteOffset":0,"componentType":5126,"count":64,"type":"VEC2"},{"bufferView":23,"byteOffset":0,"componentType":5123,"count":180,"type":"SCALAR"},{"bufferView":24,"byteOffset":0,"componentType":5126,"count":160,"type":"VEC3","min":[-0.0018569770036265254,0.031085660681128502,-0.005731899756938219],"max":[0.029350709170103073,0.07902109622955322,0.004777122754603624]},{"bufferView":25,"byteOffset":0,"componentType":5126,"count":160,"type":"VEC3"},{"bufferView":26,"byteOffset":0,"componentType":5126,"count":160,"type":"VEC2"},{"bufferView":27,"byteOffset":0,"componentType":5123,"count":450,"type":"SCALAR"},{"bufferView":28,"byteOffset":0,"componentType":5126,"count":499,"type":"VEC3","min":[-0.035793811082839966,-0.07918896526098251,0.004623867571353912],"max":[0.035793811082839966,0.08026246726512909,0.004777430556714535]},{"bufferView":29,"byteOffset":0,"componentType":5126,"count":499,"type":"VEC3"},{"bufferView":30,"byteOffset":0,"componentType":5126,"count":499,"type":"VEC2"},{"bufferView":31,"byteOffset":0,"componentType":5123,"count":2580,"type":"SCALAR"},{"bufferView":32,"byteOffset":0,"componentType":5126,"count":448,"type":"VEC3","min":[-0.001976610627025366,0.0312509760260582,-0.005697686690837145],"max":[0.028494738042354584,0.07914073020219803,0.0047640567645430565]},{"bufferView":33,"byteOffset":0,"componentType":5126,"count":448,"type":"VEC3"},{"bufferView":34,"byteOffset":0,"componentType":5126,"count":448,"type":"VEC2"},{"bufferView":35,"byteOffset":0,"componentType":5123,"count":1776,"type":"SCALAR"},{"bufferView":36,"byteOffset":0,"componentType":5126,"count":2523,"type":"VEC3","min":[-0.0009954284178093076,0.031172534450888634,-0.00524958036839962],"max":[0.026029471307992935,0.07815991342067719,0.004561149515211582]},{"bufferView":37,"byteOffset":0,"componentType":5126,"count":2523,"type":"VEC3"},{"bufferView":38,"byteOffset":0,"componentType":5126,"count":2523,"type":"VEC2"},{"bufferView":39,"byteOffset":0,"componentType":5123,"count":12960,"type":"SCALAR"},{"bufferView":40,"byteOffset":0,"componentType":5126,"count":1311,"type":"VEC3","min":[-0.037391431629657745,-0.08147367089986801,-0.004196700174361467],"max":[0.037391431629657745,0.08148862421512604,-0.00023468019207939506]},{"bufferView":41,"byteOffset":0,"componentType":5126,"count":1311,"type":"VEC3"},{"bufferView":42,"byteOffset":0,"componentType":5126,"count":1311,"type":"VEC2"},{"bufferView":43,"byteOffset":0,"componentType":5123,"count":7398,"type":"SCALAR"},{"bufferView":44,"byteOffset":0,"componentType":5126,"count":327,"type":"VEC3","min":[-0.02755003049969673,-0.08168857544660568,-0.0024827546440064907],"max":[0.03707267343997955,0.053738273680210114,0.00260548060759902]},{"bufferView":45,"byteOffset":0,"componentType":5126,"count":327,"type":"VEC3"},{"bufferView":46,"byteOffset":0,"componentType":5126,"count":327,"type":"VEC2"},{"bufferView":47,"byteOffset":0,"componentType":5123,"count":1428,"type":"SCALAR"},{"bufferView":48,"byteOffset":0,"componentType":5126,"count":499,"type":"VEC3","min":[-0.035793811082839966,-0.07918896526098251,0.004619933664798737],"max":[0.035793811082839966,0.08026246726512909,0.004773496650159359]},{"bufferView":49,"byteOffset":0,"componentType":5126,"count":499,"type":"VEC3"},{"bufferView":50,"byteOffset":0,"componentType":5126,"count":499,"type":"VEC2"},{"bufferView":51,"byteOffset":0,"componentType":5123,"count":2580,"type":"SCALAR"},{"bufferView":52,"byteOffset":0,"componentType":5126,"count":1116,"type":"VEC3","min":[-0.037293899804353714,-0.08162741363048553,0.002791082952171564],"max":[0.037293899804353714,0.08162741363048553,0.004777430556714535]},{"bufferView":53,"byteOffset":0,"componentType":5126,"count":1116,"type":"VEC3"},{"bufferView":54,"byteOffset":0,"componentType":5126,"count":1116,"type":"VEC2"},{"bufferView":55,"byteOffset":0,"componentType":5123,"count":5916,"type":"SCALAR"},{"bufferView":56,"byteOffset":0,"componentType":5126,"count":4,"type":"VEC3","min":[-1.0,0.0,-1.0],"max":[1.0,0.0,1.0]},{"bufferView":57,"byteOffset":0,"componentType":5126,"count":4,"type":"VEC3"},{"bufferView":58,"byteOffset":0,"componentType":5126,"count":4,"type":"VEC2"},{"bufferView":59,"byteOffset":0,"componentType":5123,"count":6,"type":"SCALAR"},{"bufferView":60,"byteOffset":0,"componentType":5126,"count":4,"type":"VEC3","min":[-1.0,0.0,-1.0],"max":[1.0,0.0,1.0]},{"bufferView":61,"byteOffset":0,"componentType":5126,"count":4,"type":"VEC3"},{"bufferView":62,"byteOffset":0,"componentType":5126,"count":4,"type":"VEC2"},{"bufferView":63,"byteOffset":0,"componentType":5123,"count":6,"type":"SCALAR"},{"bufferView":64,"byteOffset":0,"componentType":5126,"count":32,"type":"VEC3","min":[-1.0000003576278687,-2.000000238418579,-7.549790126404332e-08],"max":[1.0000003576278687,2.000000238418579,7.549790126404332e-08]},{"bufferView":65,"byteOffset":0,"componentType":5126,"count":32,"type":"VEC3"},{"bufferView":66,"byteOffset":0,"componentType":5126,"count":32,"type":"VEC2"},{"bufferView":67,"byteOffset":0,"componentType":5123,"count":90,"type":"SCALAR"}],"bufferViews":[{"buffer":0,"byteOffset":0,"byteLength":15732,"target":34962},{"buffer":0,"byteOffset":15732,"byteLength":15732,"target":34962},{"buffer":0,"byteOffset":31464,"byteLength":10488,"target":34962},{"buffer":0,"byteOffset":41952,"byteLength":14796,"target":34963},{"buffer":0,"byteOffset":56748,"byteLength":3072,"target":34962},{"buffer":0,"byteOffset":59820,"byteLength":3072,"target":34962},{"buffer":0,"byteOffset":62892,"byteLength":2048,"target":34962},{"buffer":0,"byteOffset":64940,"byteLength":1536,"target":34963},{"buffer":0,"byteOffset":66476,"byteLength":24228,"target":34962},{"buffer":0,"byteOffset":90704,"byteLength":24228,"target":34962},{"buffer":0,"byteOffset":114932,"byteLength":16152,"target":34962},{"buffer":0,"byteOffset":131084,"byteLength":21966,"target":34963},{"buffer":0,"byteOffset":153052,"byteLength":123036,"target":34962},{"buffer":0,"byteOffset":276088,"byteLength":123036,"target":34962},{"buffer":0,"byteOffset":399124,"byteLength":82024,"target":34962},{"buffer":0,"byteOffset":481148,"byteLength":106302,"target":34963},{"buffer":0,"byteOffset":587452,"byteLength":3264,"target":34962},{"buffer":0,"byteOffset":590716,"byteLength":3264,"target":34962},{"buffer":0,"byteOffset":593980,"byteLength":2176,"target":34962},{"buffer":0,"byteOffset":596156,"byteLength":1560,"target":34963},{"buffer":0,"byteOffset":597716,"byteLength":768,"target":34962},{"buffer":0,"byteOffset":598484,"byteLength":768,"target":34962},{"buffer":0,"byteOffset":599252,"byteLength":512,"target":34962},{"buffer":0,"byteOffset":599764,"byteLength":360,"target":34963},{"buffer":0,"byteOffset":600124,"byteLength":1920,"target":34962},{"buffer":0,"byteOffset":602044,"byteLength":1920,"target":34962},{"buffer":0,"byteOffset":603964,"byteLength":1280,"target":34962},{"buffer":0,"byteOffset":605244,"byteLength":900,"target":34963},{"buffer":0,"byteOffset":606144,"byteLength":5988,"target":34962},{"buffer":0,"byteOffset":612132,"byteLength":5988,"target":34962},{"buffer":0,"byteOffset":618120,"byteLength":3992,"target":34962},{"buffer":0,"byteOffset":622112,"byteLength":5160,"target":34963},{"buffer":0,"byteOffset":627272,"byteLength":5376,"target":34962},{"buffer":0,"byteOffset":632648,"byteLength":5376,"target":34962},{"buffer":0,"byteOffset":638024,"byteLength":3584,"target":34962},{"buffer":0,"byteOffset":641608,"byteLength":3552,"target":34963},{"buffer":0,"byteOffset":645160,"byteLength":30276,"target":34962},{"buffer":0,"byteOffset":675436,"byteLength":30276,"target":34962},{"buffer":0,"byteOffset":705712,"byteLength":20184,"target":34962},{"buffer":0,"byteOffset":725896,"byteLength":25920,"target":34963},{"buffer":0,"byteOffset":751816,"byteLength":15732,"target":34962},{"buffer":0,"byteOffset":767548,"byteLength":15732,"target":34962},{"buffer":0,"byteOffset":783280,"byteLength":10488,"target":34962},{"buffer":0,"byteOffset":793768,"byteLength":14796,"target":34963},{"buffer":0,"byteOffset":808564,"byteLength":3924,"target":34962},{"buffer":0,"byteOffset":812488,"byteLength":3924,"target":34962},{"buffer":0,"byteOffset":816412,"byteLength":2616,"target":34962},{"buffer":0,"byteOffset":819028,"byteLength":2856,"target":34963},{"buffer":0,"byteOffset":821884,"byteLength":5988,"target":34962},{"buffer":0,"byteOffset":827872,"byteLength":5988,"target":34962},{"buffer":0,"byteOffset":833860,"byteLength":3992,"target":34962},{"buffer":0,"byteOffset":837852,"byteLength":5160,"target":34963},{"buffer":0,"byteOffset":843012,"byteLength":13392,"target":34962},{"buffer":0,"byteOffset":856404,"byteLength":13392,"target":34962},{"buffer":0,"byteOffset":869796,"byteLength":8928,"target":34962},{"buffer":0,"byteOffset":878724,"byteLength":11832,"target":34963},{"buffer":0,"byteOffset":890556,"byteLength":48,"target":34962},{"buffer":0,"byteOffset":890604,"byteLength":48,"target":34962},{"buffer":0,"byteOffset":890652,"byteLength":32,"target":34962},{"buffer":0,"byteOffset":890684,"byteLength":12,"target":34963},{"buffer":0,"byteOffset":890696,"byteLength":48,"target":34962},{"buffer":0,"byteOffset":890744,"byteLength":48,"target":34962},{"buffer":0,"byteOffset":890792,"byteLength":32,"target":34962},{"buffer":0,"byteOffset":890824,"byteLength":12,"target":34963},{"buffer":0,"byteOffset":890836,"byteLength":384,"target":34962},{"buffer":0,"byteOffset":891220,"byteLength":384,"target":34962},{"buffer":0,"byteOffset":891604,"byteLength":256,"target":34962},{"buffer":0,"byteOffset":891860,"byteLength":180,"target":34963}],"buffers":[{"byteLength":892040,"uri":"data:application/octet-stream;base64,"}]}