{"asset":{"version":"2.0","generator":"rotato_extract.py"},"scene":0,"scenes":[{"nodes":[0]}],"nodes":[{"mesh":0,"name":"Screen"}],"meshes":[{"name":"Screen","primitives":[{"attributes":{"POSITION":0,"NORMAL":1,"TEXCOORD_0":2},"indices":3,"mode":4}]}],"accessors":[{"bufferView":0,"byteOffset":0,"componentType":5126,"count":441,"type":"VEC3","min":[-3.500000080741183,-6.99997544134782,0.8075023307048705],"max":[3.4999995825857013,7.000002109592727,0.8075067255285244]},{"bufferView":1,"byteOffset":0,"componentType":5126,"count":441,"type":"VEC3"},{"bufferView":2,"byteOffset":0,"componentType":5126,"count":441,"type":"VEC2"},{"bufferView":3,"byteOffset":0,"componentType":5123,"count":2400,"type":"SCALAR"}],"bufferViews":[{"buffer":0,"byteOffset":0,"byteLength":5292,"target":34962},{"buffer":0,"byteOffset":5292,"byteLength":5292,"target":34962},{"buffer":0,"byteOffset":10584,"byteLength":3528,"target":34962},{"buffer":0,"byteOffset":14112,"byteLength":4800,"target":34963}],"buffers":[{"byteLength":18912,"uri":"data:application/octet-stream;base64,"}]}