{"asset":{"version":"2.0","generator":"rotato_extract.py"},"scene":0,"scenes":[{"nodes":[0,1,2,3,4,5,6,7,8,9,10]}],"nodes":[{"mesh":0,"name":"Back_Tex"},{"mesh":1,"name":"Band"},{"mesh":2,"name":"Body"},{"mesh":3,"name":"Glass"},{"mesh":4,"name":"Matte"},{"mesh":5,"name":"Screen"},{"mesh":6,"name":"Screen_Edge"},{"mesh":7,"name":"Sensor"},{"mesh":8,"name":"Sensor_Line"},{"mesh":9,"name":"Standing_shadow"},{"mesh":10,"name":"rotatoTag"}],"meshes":[{"name":"Back_Tex","primitives":[{"attributes":{"POSITION":0,"NORMAL":1,"TEXCOORD_0":2},"indices":3,"mode":4}]},{"name":"Band","primitives":[{"attributes":{"POSITION":4,"NORMAL":5,"TEXCOORD_0":6},"indices":7,"mode":4}]},{"name":"Body","primitives":[{"attributes":{"POSITION":8,"NORMAL":9,"TEXCOORD_0":10},"indices":11,"mode":4}]},{"name":"Glass","primitives":[{"attributes":{"POSITION":12,"NORMAL":13,"TEXCOORD_0":14},"indices":15,"mode":4}]},{"name":"Matte","primitives":[{"attributes":{"POSITION":16,"NORMAL":17,"TEXCOORD_0":18},"indices":19,"mode":4}]},{"name":"Screen","primitives":[{"attributes":{"POSITION":20,"NORMAL":21,"TEXCOORD_0":22},"indices":23,"mode":4}]},{"name":"Screen_Edge","primitives":[{"attributes":{"POSITION":24,"NORMAL":25,"TEXCOORD_0":26},"indices":27,"mode":4}]},{"name":"Sensor","primitives":[{"attributes":{"POSITION":28,"NORMAL":29,"TEXCOORD_0":30},"indices":31,"mode":4}]},{"name":"Sensor_Line","primitives":[{"attributes":{"POSITION":32,"NORMAL":33,"TEXCOORD_0":34},"indices":35,"mode":4}]},{"name":"Standing_shadow","primitives":[{"attributes":{"POSITION":36,"NORMAL":37,"TEXCOORD_0":38},"indices":39,"mode":4}]},{"name":"rotatoTag","primitives":[{"attributes":{"POSITION":40,"NORMAL":41,"TEXCOORD_0":42},"indices":43,"mode":4}]}],"accessors":[{"bufferView":0,"byteOffset":0,"componentType":5126,"count":3424,"type":"VEC3","min":[-0.016221895813941956,-0.01584685407578945,-0.0065550366416573524],"max":[0.01625816524028778,0.02287321723997593,-0.002178788650780916]},{"bufferView":1,"byteOffset":0,"componentType":5126,"count":3424,"type":"VEC3"},{"bufferView":2,"byteOffset":0,"componentType":5126,"count":3424,"type":"VEC2"},{"bufferView":3,"byteOffset":0,"componentType":5123,"count":18966,"type":"SCALAR"},{"bufferView":4,"byteOffset":0,"componentType":5126,"count":3893,"type":"VEC3","min":[-0.017556820064783096,-0.031053753569722176,-0.05465804040431976],"max":[0.017589977011084557,0.0380801185965538,0.002312237396836281]},{"bufferView":5,"byteOffset":0,"componentType":5126,"count":3893,"type":"VEC3"},{"bufferView":6,"byteOffset":0,"componentType":5126,"count":3893,"type":"VEC2"},{"bufferView":7,"byteOffset":0,"componentType":5123,"count":22902,"type":"SCALAR"},{"bufferView":8,"byteOffset":0,"componentType":5126,"count":26326,"type":"VEC3","min":[-0.018901865929365158,-0.018526818603277206,-0.004136993084102869],"max":[0.02043149247765541,0.025553181767463684,0.005530224181711674]},{"bufferView":9,"byteOffset":0,"componentType":5126,"count":26326,"type":"VEC3"},{"bufferView":10,"byteOffset":0,"componentType":5126,"count":26326,"type":"VEC2"},{"bufferView":11,"byteOffset":0,"componentType":5123,"count":145326,"type":"SCALAR"},{"bufferView":12,"byteOffset":0,"componentType":5126,"count":1037,"type":"VEC3","min":[-0.014336865395307541,-0.013961822725832462,0.006436431314796209],"max":[0.014373134821653366,0.020988184958696365,0.006530017592012882]},{"bufferView":13,"byteOffset":0,"componentType":5126,"count":1037,"type":"VEC3"},{"bufferView":14,"byteOffset":0,"componentType":5126,"count":1037,"type":"VEC2"},{"bufferView":15,"byteOffset":0,"componentType":5123,"count":5904,"type":"SCALAR"},{"bufferView":16,"byteOffset":0,"componentType":5126,"count":406,"type":"VEC3","min":[-1.0,-1.0,-1.0],"max":[1.0,1.0,1.0]},{"bufferView":17,"byteOffset":0,"componentType":5126,"count":406,"type":"VEC3"},{"bufferView":18,"byteOffset":0,"componentType":5126,"count":406,"type":"VEC2"},{"bufferView":19,"byteOffset":0,"componentType":5123,"count":1716,"type":"SCALAR"},{"bufferView":20,"byteOffset":0,"componentType":5126,"count":1037,"type":"VEC3","min":[-0.014336865395307541,-0.013961822725832462,0.006436431314796209],"max":[0.014373134821653366,0.020988184958696365,0.006530017592012882]},{"bufferView":21,"byteOffset":0,"componentType":5126,"count":1037,"type":"VEC3"},{"bufferView":22,"byteOffset":0,"componentType":5126,"count":1037,"type":"VEC2"},{"bufferView":23,"byteOffset":0,"componentType":5123,"count":5904,"type":"SCALAR"},{"bufferView":24,"byteOffset":0,"componentType":5126,"count":1976,"type":"VEC3","min":[-0.017381880432367325,-0.01700683869421482,0.0044237105175852776],"max":[0.0174181517213583,0.0240332018584013,0.006457622162997723]},{"bufferView":25,"byteOffset":0,"componentType":5126,"count":1976,"type":"VEC3"},{"bufferView":26,"byteOffset":0,"componentType":5126,"count":1976,"type":"VEC2"},{"bufferView":27,"byteOffset":0,"componentType":5123,"count":6864,"type":"SCALAR"},{"bufferView":28,"byteOffset":0,"componentType":5126,"count":1440,"type":"VEC3","min":[0.020464075729250908,0.009133822284638882,-0.0010487361578270793],"max":[0.020528100430965424,0.01479255873709917,0.004610003903508186]},{"bufferView":29,"byteOffset":0,"componentType":5126,"count":1440,"type":"VEC3"},{"bufferView":30,"byteOffset":0,"componentType":5126,"count":1440,"type":"VEC2"},{"bufferView":31,"byteOffset":0,"componentType":5123,"count":6474,"type":"SCALAR"},{"bufferView":32,"byteOffset":0,"componentType":5126,"count":1440,"type":"VEC3","min":[0.02043149247765541,0.008875450119376183,-0.0013071080902591348],"max":[0.020464075729250908,0.015050929971039295,0.0048683760687708855]},{"bufferView":33,"byteOffset":0,"componentType":5126,"count":1440,"type":"VEC3"},{"bufferView":34,"byteOffset":0,"componentType":5126,"count":1440,"type":"VEC2"},{"bufferView":35,"byteOffset":0,"componentType":5123,"count":4320,"type":"SCALAR"},{"bufferView":36,"byteOffset":0,"componentType":5126,"count":4,"type":"VEC3","min":[-0.1529151201248169,0.0,-0.1529151201248169],"max":[0.1529151201248169,0.0,0.1529151201248169]},{"bufferView":37,"byteOffset":0,"componentType":5126,"count":4,"type":"VEC3"},{"bufferView":38,"byteOffset":0,"componentType":5126,"count":4,"type":"VEC2"},{"bufferView":39,"byteOffset":0,"componentType":5123,"count":6,"type":"SCALAR"},{"bufferView":40,"byteOffset":0,"componentType":5126,"count":32,"type":"VEC3","min":[-1.0000003576278687,-2.000000238418579,-7.549790126404332e-08],"max":[1.0000003576278687,2.000000238418579,7.549790126404332e-08]},{"bufferView":41,"byteOffset":0,"componentType":5126,"count":32,"type":"VEC3"},{"bufferView":42,"byteOffset":0,"componentType":5126,"count":32,"type":"VEC2"},{"bufferView":43,"byteOffset":0,"componentType":5123,"count":90,"type":"SCALAR"}],"bufferViews":[{"buffer":0,"byteOffset":0,"byteLength":41088,"target":34962},{"buffer":0,"byteOffset":41088,"byteLength":41088,"target":34962},{"buffer":0,"byteOffset":82176,"byteLength":27392,"target":34962},{"buffer":0,"byteOffset":109568,"byteLength":37932,"target":34963},{"buffer":0,"byteOffset":147500,"byteLength":46716,"target":34962},{"buffer":0,"byteOffset":194216,"byteLength":46716,"target":34962},{"buffer":0,"byteOffset":240932,"byteLength":31144,"target":34962},{"buffer":0,"byteOffset":272076,"byteLength":45804,"target":34963},{"buffer":0,"byteOffset":317880,"byteLength":315912,"target":34962},{"buffer":0,"byteOffset":633792,"byteLength":315912,"target":34962},{"buffer":0,"byteOffset":949704,"byteLength":210608,"target":34962},{"buffer":0,"byteOffset":1160312,"byteLength":290652,"target":34963},{"buffer":0,"byteOffset":1450964,"byteLength":12444,"target":34962},{"buffer":0,"byteOffset":1463408,"byteLength":12444,"target":34962},{"buffer":0,"byteOffset":1475852,"byteLength":8296,"target":34962},{"buffer":0,"byteOffset":1484148,"byteLength":11808,"target":34963},{"buffer":0,"byteOffset":1495956,"byteLength":4872,"target":34962},{"buffer":0,"byteOffset":1500828,"byteLength":4872,"target":34962},{"buffer":0,"byteOffset":1505700,"byteLength":3248,"target":34962},{"buffer":0,"byteOffset":1508948,"byteLength":3432,"target":34963},{"buffer":0,"byteOffset":1512380,"byteLength":12444,"target":34962},{"buffer":0,"byteOffset":1524824,"byteLength":12444,"target":34962},{"buffer":0,"byteOffset":1537268,"byteLength":8296,"target":34962},{"buffer":0,"byteOffset":1545564,"byteLength":11808,"target":34963},{"buffer":0,"byteOffset":1557372,"byteLength":23712,"target":34962},{"buffer":0,"byteOffset":1581084,"byteLength":23712,"target":34962},{"buffer":0,"byteOffset":1604796,"byteLength":15808,"target":34962},{"buffer":0,"byteOffset":1620604,"byteLength":13728,"target":34963},{"buffer":0,"byteOffset":1634332,"byteLength":17280,"target":34962},{"buffer":0,"byteOffset":1651612,"byteLength":17280,"target":34962},{"buffer":0,"byteOffset":1668892,"byteLength":11520,"target":34962},{"buffer":0,"byteOffset":1680412,"byteLength":12948,"target":34963},{"buffer":0,"byteOffset":1693360,"byteLength":17280,"target":34962},{"buffer":0,"byteOffset":1710640,"byteLength":17280,"target":34962},{"buffer":0,"byteOffset":1727920,"byteLength":11520,"target":34962},{"buffer":0,"byteOffset":1739440,"byteLength":8640,"target":34963},{"buffer":0,"byteOffset":1748080,"byteLength":48,"target":34962},{"buffer":0,"byteOffset":1748128,"byteLength":48,"target":34962},{"buffer":0,"byteOffset":1748176,"byteLength":32,"target":34962},{"buffer":0,"byteOffset":1748208,"byteLength":12,"target":34963},{"buffer":0,"byteOffset":1748220,"byteLength":384,"target":34962},{"buffer":0,"byteOffset":1748604,"byteLength":384,"target":34962},{"buffer":0,"byteOffset":1748988,"byteLength":256,"target":34962},{"buffer":0,"byteOffset":1749244,"byteLength":180,"target":34963}],"buffers":[{"byteLength":1749424,"uri":"data:application/octet-stream;base64,"}]}