{"asset": {"version": "2.0", "generator": "rotato_extract.py"}, "scene": 0, "scenes": [{"nodes": [0, 1, 2]}], "nodes": [{"mesh": 0, "name": "Plane"}, {"mesh": 1, "name": "Screen"}, {"mesh": 2, "name": "Geometry_438"}], "meshes": [{"name": "Plane", "primitives": [{"attributes": {"POSITION": 0, "NORMAL": 1, "TEXCOORD_0": 2}, "indices": 3, "mode": 4}, {"attributes": {"POSITION": 0, "NORMAL": 1, "TEXCOORD_0": 2}, "indices": 4, "mode": 4}]}, {"name": "Screen", "primitives": [{"attributes": {"POSITION": 5, "NORMAL": 6, "TEXCOORD_0": 7}, "indices": 8, "mode": 4}]}, {"name": "Geometry_438", "primitives": [{"attributes": {"POSITION": 9, "NORMAL": 10, "TEXCOORD_0": 11}, "indices": 12, "mode": 4}]}], "accessors": [{"bufferView": 0, "byteOffset": 0, "componentType": 5126, "count": 1956, "type": "VEC3", "min": [-35.78694845515784, -38.60023200665353, -20.49251448542062], "max": [35.78694845515784, 20.541023663146518, 3.059081556998011]}, {"bufferView": 1, "byteOffset": 0, "componentType": 5126, "count": 1956, "type": "VEC3"}, {"bufferView": 2, "byteOffset": 0, "componentType": 5126, "count": 1956, "type": "VEC2"}, {"bufferView": 3, "byteOffset": 0, "componentType": 5123, "count": 1950, "type": "SCALAR"}, {"bufferView": 4, "byteOffset": 0, "componentType": 5123, "count": 6, "type": "SCALAR"}, {"bufferView": 5, "byteOffset": 0, "componentType": 5126, "count": 441, "type": "VEC3", "min": [-35.17410328990622, -19.89128899043363, -0.6180159339760558], "max": [35.174639727539024, 19.89128438880575, -0.6180028911421123]}, {"bufferView": 6, "byteOffset": 0, "componentType": 5126, "count": 441, "type": "VEC3"}, {"bufferView": 7, "byteOffset": 0, "componentType": 5126, "count": 441, "type": "VEC2"}, {"bufferView": 8, "byteOffset": 0, "componentType": 5123, "count": 2400, "type": "SCALAR"}, {"bufferView": 9, "byteOffset": 0, "componentType": 5126, "count": 441, "type": "VEC3", "min": [-35.17409910563014, -19.891285852857546, -0.376464021158717], "max": [35.17463552559138, 19.891280412703463, -0.37645097832707275]}, {"bufferView": 10, "byteOffset": 0, "componentType": 5126, "count": 441, "type": "VEC3"}, {"bufferView": 11, "byteOffset": 0, "componentType": 5126, "count": 441, "type": "VEC2"}, {"bufferView": 12, "byteOffset": 0, "componentType": 5123, "count": 2400, "type": "SCALAR"}], "bufferViews": [{"buffer": 0, "byteOffset": 0, "byteLength": 23472, "target": 34962}, {"buffer": 0, "byteOffset": 23472, "byteLength": 23472, "target": 34962}, {"buffer": 0, "byteOffset": 46944, "byteLength": 15648, "target": 34962}, {"buffer": 0, "byteOffset": 62592, "byteLength": 3900, "target": 34963}, {"buffer": 0, "byteOffset": 66492, "byteLength": 12, "target": 34963}, {"buffer": 0, "byteOffset": 66504, "byteLength": 5292, "target": 34962}, {"buffer": 0, "byteOffset": 71796, "byteLength": 5292, "target": 34962}, {"buffer": 0, "byteOffset": 77088, "byteLength": 3528, "target": 34962}, {"buffer": 0, "byteOffset": 80616, "byteLength": 4800, "target": 34963}, {"buffer": 0, "byteOffset": 85416, "byteLength": 5292, "target": 34962}, {"buffer": 0, "byteOffset": 90708, "byteLength": 5292, "target": 34962}, {"buffer": 0, "byteOffset": 96000, "byteLength": 3528, "target": 34962}, {"buffer": 0, "byteOffset": 99528, "byteLength": 4800, "target": 34963}], "buffers": [{"byteLength": 104328, "uri": "data:application/octet-stream;base64,"}]}